<svg width="388" height="189" viewBox="0 0 388 189" fill="none" xmlns="http://www.w3.org/2000/svg">
<path d="M387.509 67.8758C371.65 69.3285 365.047 63.0927 361.204 91.3268C357.394 119.309 358.247 154.802 350.94 151.452C332.518 143.012 345.244 64.0908 328.144 41.6676C318.997 29.6753 310.03 53.3239 298.69 58.2256C291.666 61.2595 279.514 55.8044 270.814 63.1866C262.919 69.8869 258.416 88.2485 252.648 89.4887C241.272 91.9346 233.483 39.953 222.23 54.5741C208.645 72.2191 217.742 147.405 209.649 170.47C204.997 183.728 191.993 194.653 182.005 183.021C173.191 172.758 172.5 134.118 164.828 106.877C148.917 50.374 126.373 77.4321 111.365 87.6506C95.6915 98.3236 97.7091 54.3468 73.6812 35.1452C55.0369 20.2425 44.5841 30.2682 44.3241 51.8762C43.9633 81.7952 42.3044 129.893 34.9374 132.008C26.9013 134.32 25.9741 81.1529 0.515137 62.6678" stroke="#838383" stroke-width="0.247061" stroke-miterlimit="10"/>
<path d="M0.527344 65.0693C24.396 82.3982 25.9258 131.212 34.3994 128.994C41.8027 127.057 43.7638 82.0276 44.5781 54.3221C45.1828 34.325 55.3817 25.3172 73.3669 39.8641C76.5293 42.4286 79.2463 45.428 81.6207 48.6743C96.5744 69.1606 97.2617 98.8178 110.325 90.7933C117.478 86.3956 126.063 78.4748 134.762 76.8096C144.485 74.9171 154.394 80.6292 162.587 107.623C170.099 132.487 171.095 167.684 179.657 176.484C182.945 179.864 186.54 180.906 190.056 180.18C196.844 178.821 203.282 171.113 206.309 162.5C214.523 139.153 206.511 67.451 219.709 51.2487C230.871 37.5467 238.512 88.7328 249.723 88.0311C255.421 87.7149 260.003 71.1569 267.922 64.926C269.71 63.5227 271.641 62.5888 273.646 61.9563C281.529 59.4561 289.997 61.1064 295.419 57.9243C300.305 55.0534 304.749 48.872 309.171 44.2569C314.579 38.6091 319.56 35.0959 324.552 42.0531C330.012 49.6576 332.469 63.0434 333.894 77.5805C336.833 107.722 335.422 144.969 348.407 148.457C356.074 150.449 355.973 116.764 360.291 90.4573C364.608 64.1502 371.536 70.134 387.505 69.2842" stroke="#838383" stroke-width="0.247061" stroke-miterlimit="10"/>
<path d="M0.537109 67.4658C22.8134 83.6384 24.948 128.095 33.8609 125.97C41.2985 124.201 43.5398 82.245 44.8318 56.7582C45.765 38.367 55.7261 30.377 73.0541 44.5682C76.1178 47.0882 78.7683 50.0184 81.1064 53.1956C95.6631 73.0247 96.7192 100.794 109.286 93.9211C116.458 89.9977 124.778 82.8132 133.157 81.1579C142.655 79.2259 152.327 83.9448 160.349 108.349C167.727 130.792 168.992 162.589 177.311 169.927C180.483 172.729 183.926 173.445 187.304 172.486C193.806 170.638 199.984 162.999 202.973 154.51C211.304 130.881 204.386 62.6778 217.191 47.9035C228.271 35.1206 235.759 85.437 246.802 86.5587C252.432 87.1318 257.09 72.4119 265.035 66.6554C266.827 65.3559 268.764 64.4665 270.78 63.8142C278.792 61.2151 286.897 61.566 292.155 57.6081C296.87 54.0553 301.177 47.5972 305.684 43.1846C311.104 37.8778 316.052 35.1552 320.966 42.4237C326.334 50.3494 328.841 63.8785 330.341 78.1042C333.41 107.504 332.35 144.272 345.883 145.448C353.909 146.145 354.554 114.22 359.389 89.5728C364.209 64.9952 371.433 70.9246 387.515 70.6776" stroke="#838383" stroke-width="0.247061" stroke-miterlimit="10"/>
<path d="M0.549316 69.8621C21.2354 84.8785 23.9725 124.967 33.3269 122.951C40.7987 121.34 43.3303 82.4672 45.0879 59.199C46.3557 42.4087 56.0729 35.4466 72.7418 49.277C75.7047 51.7526 78.2928 54.6185 80.5926 57.7216C94.7541 76.8935 96.1872 102.82 108.249 97.0537C115.446 93.6146 123.496 87.1614 131.551 85.511C140.823 83.5345 150.249 87.2849 158.11 109.086C165.338 129.127 166.88 157.5 174.963 163.38C178.016 165.603 181.308 166.008 184.551 164.803C190.769 162.49 196.685 154.891 199.634 146.53C208.083 122.624 202.266 57.934 214.668 44.5631C225.669 32.7042 233 82.1905 243.876 85.086C249.437 86.5684 254.171 73.6669 262.141 68.3798C263.939 67.184 265.878 66.3391 267.904 65.672C276.043 62.9741 283.785 62.0303 288.882 57.2917C293.425 53.0669 297.595 46.3172 302.189 42.1073C307.619 37.1315 312.537 35.2094 317.372 42.7892C322.649 51.0361 325.205 64.7085 326.777 78.6229C329.98 107.287 329.27 143.506 343.347 142.439C351.734 141.801 353.115 111.694 358.474 88.6882C363.767 65.9586 371.316 71.7102 387.509 72.0709" stroke="#838383" stroke-width="0.247061" stroke-miterlimit="10"/>
<path d="M0.55957 72.2636C19.6553 86.1238 22.9951 121.839 32.7889 119.937C40.295 118.479 43.1188 82.6896 45.342 61.645C46.9464 46.4557 56.4177 40.5163 72.4276 53.996C75.2917 56.427 77.8132 59.2287 80.0767 62.2577C93.8412 80.7724 95.6633 104.9 107.209 100.196C114.439 97.2514 122.213 91.5542 129.943 89.8741C138.993 87.9075 148.166 90.6351 155.869 109.832C162.948 127.467 164.754 152.425 172.613 156.842C175.545 158.488 178.69 158.582 181.796 157.129C187.728 154.352 193.383 146.792 196.294 138.555C204.862 114.368 200.154 53.2152 212.146 41.2328C223.077 30.3127 230.244 78.959 240.949 83.6235C246.442 86.015 251.253 74.9368 259.249 70.1142C261.053 69.0271 262.996 68.2217 265.032 67.5398C273.3 64.7431 280.677 62.5146 285.613 56.9854C289.985 52.0886 294.016 45.0425 298.698 41.045C304.136 36.4003 309.026 35.2786 313.783 43.1747C318.967 51.7428 321.573 65.5584 323.22 79.1566C326.554 107.084 326.199 142.74 340.82 139.439C349.57 137.463 351.674 109.194 357.568 87.8137C363.322 66.937 371.207 72.5107 387.511 73.4742" stroke="#838383" stroke-width="0.247061" stroke-miterlimit="10"/>
<path d="M0.571777 74.6602C18.0752 87.369 22.0177 118.701 32.2529 116.918C39.7912 115.603 42.9113 82.9022 45.5981 64.091C47.5391 50.4977 56.7645 45.591 72.1153 58.71C74.8786 61.0916 77.3357 63.8291 79.5629 66.7839C92.9303 84.6415 95.1495 107.025 106.171 103.329C113.439 100.888 120.931 95.9075 128.338 94.2275C137.163 92.2263 146.084 93.9705 153.632 110.563C160.558 125.792 162.619 147.35 170.267 150.291C173.072 151.368 176.074 151.14 179.043 149.441C184.688 146.204 190.084 138.684 192.954 130.57C201.641 106.106 198.05 48.5162 209.625 37.8926C220.493 27.9212 227.489 75.7226 238.025 82.1511C243.451 85.4617 248.337 76.192 256.357 71.8388C258.167 70.8555 260.114 70.0896 262.158 69.3929C270.552 66.4924 277.569 62.9841 282.342 56.6693C286.542 51.1104 290.434 43.7579 295.205 39.9729C300.651 35.6493 305.513 35.338 310.191 43.5454C315.283 52.4346 317.951 66.3837 319.66 79.6805C323.151 106.852 323.127 141.96 338.289 136.43C347.401 133.11 350.215 106.684 356.659 86.9293C362.861 67.9105 371.096 73.3014 387.511 74.8678" stroke="#838383" stroke-width="0.247061" stroke-miterlimit="10"/>
<path d="M0.581543 77.0567C16.4947 88.6093 21.0378 115.554 31.7144 113.898C39.285 112.722 42.7014 83.1097 45.8518 66.5319C48.1314 54.5297 57.1089 50.6558 71.8025 63.419C74.4672 65.7562 76.8577 68.4294 79.0486 71.3101C92.021 88.5105 94.6412 109.204 105.132 106.462C112.443 104.55 119.649 100.261 126.731 98.5807C135.332 96.5449 143.997 97.3009 151.392 111.299C158.163 124.117 160.473 142.296 167.918 143.743C170.593 144.262 173.455 143.709 176.289 141.757C181.646 138.066 186.784 130.575 189.616 122.59C198.42 97.8444 195.957 43.8468 207.103 34.5573C217.915 25.5495 224.734 72.5009 235.1 80.6836C240.457 84.9133 245.42 77.452 253.466 73.5682C255.28 72.6936 257.233 71.9673 259.287 71.2557C267.811 68.2564 274.462 63.4733 279.072 56.358C283.101 50.137 286.854 42.4682 291.712 38.9056C297.166 34.9032 301.999 35.4023 306.599 43.9209C311.598 53.1264 314.319 67.2188 316.099 80.2092C319.723 106.64 320.051 141.174 335.755 133.431C345.228 128.762 348.737 104.184 355.745 86.0547C362.381 68.8889 370.981 74.0969 387.509 76.2711" stroke="#838383" stroke-width="0.247061" stroke-miterlimit="10"/>
<path d="M0.59375 79.458C14.9145 89.8543 20.0604 112.401 31.1784 110.884C38.7832 109.842 42.4979 83.3121 46.1058 68.9776C48.7281 58.5615 57.4536 55.7302 71.4882 68.1376C74.0521 70.4304 76.3781 73.0393 78.5327 75.8459C91.108 92.3891 94.1395 111.447 104.094 109.604C111.451 108.241 118.365 104.619 125.125 102.944C133.5 100.873 141.907 100.641 149.153 112.04C155.766 122.447 158.36 135.18 165.57 137.196C168.096 137.903 170.837 136.277 173.536 134.073C178.607 129.932 183.485 122.471 186.276 114.61C195.199 89.5825 193.869 39.2068 204.582 31.2218C215.343 23.1973 221.978 69.284 232.175 79.2158C237.464 84.3695 242.503 78.7118 250.574 75.3024C252.394 74.5316 254.351 73.8497 256.413 73.1184C265.064 70.0202 271.352 63.9672 275.801 56.0465C279.661 49.1732 283.271 41.1783 288.219 37.8331C293.679 34.1421 298.486 35.4614 303.007 44.2913C307.913 53.818 310.685 68.0536 312.539 80.7328C316.296 106.422 316.977 140.378 333.225 130.422C343.061 124.398 347.25 101.659 354.836 85.17C361.891 69.8374 370.87 74.8873 387.509 77.6643" stroke="#838383" stroke-width="0.247061" stroke-miterlimit="10"/>
<path d="M0.604004 81.8544C13.3345 91.0944 19.081 109.244 30.6404 107.86C38.2775 106.951 42.2986 83.5097 46.36 71.4136C49.3269 62.5836 57.8086 60.7208 71.174 72.8416C73.641 75.08 75.9005 77.6296 78.0169 80.3671C90.1971 96.2531 93.6801 110.444 103.055 112.732C110.434 114.531 117.081 108.962 123.519 107.297C131.67 105.187 139.811 103.971 146.912 112.777C153.362 120.771 156.145 132.294 163.222 130.649C165.627 130.091 168.221 128.845 170.783 126.39C175.568 121.799 180.185 114.363 182.939 106.63C191.981 81.3257 191.791 34.6015 202.063 27.8864C212.779 20.8748 219.225 66.0771 229.253 77.7482C234.475 83.8259 239.587 79.9718 247.684 77.0317C249.51 76.3696 251.471 75.7273 253.543 74.9811C262.323 71.7842 268.251 64.4662 272.534 55.7351C276.224 48.2146 279.691 39.8837 284.73 36.7658C290.196 33.381 294.977 35.5255 299.42 44.6668C304.233 54.5146 307.055 68.8936 308.982 81.2614C312.872 106.215 313.904 139.578 330.696 127.422C340.893 120.04 345.75 99.119 353.929 84.2953C361.389 70.7762 370.762 75.6877 387.511 79.0675" stroke="#838383" stroke-width="0.247061" stroke-miterlimit="10"/>
<path d="M0.615723 84.2509C11.7539 92.3397 18.103 106.071 30.1039 104.841C37.7732 104.055 42.1067 83.7123 46.6156 73.8595C49.9312 66.6157 58.1549 65.7905 70.8612 77.5556C73.2275 79.7495 75.4225 82.2349 77.5005 84.8982C89.2837 100.127 93.2322 112.866 102.014 115.87C109.403 118.395 115.797 113.31 121.91 111.655C129.835 109.505 137.706 107.317 144.67 113.518C150.951 119.111 153.972 127.363 160.872 124.107C163.139 123.039 165.6 121.424 168.027 118.711C172.524 113.681 176.883 106.259 179.596 98.6546C188.757 73.0689 189.715 30.0408 199.537 24.5561C210.217 18.592 216.464 62.8752 226.322 76.2857C231.474 83.2923 236.664 81.2368 244.787 78.7662C246.617 78.2078 248.584 77.6099 250.664 76.849C259.571 73.5482 265.14 64.9752 269.258 55.4288C272.781 47.261 276.101 38.5891 281.231 35.7035C286.701 32.6251 291.458 35.5947 295.822 45.0473C300.542 55.2163 303.414 69.7386 305.416 81.7902C309.437 106.002 310.822 138.777 328.158 124.418C338.715 115.677 344.23 96.5397 353.012 83.4159C360.867 71.6755 370.642 76.4784 387.503 80.4659" stroke="#838383" stroke-width="0.247061" stroke-miterlimit="10"/>
<path d="M0.625977 86.6527C10.1738 93.5852 17.1236 102.904 29.5679 101.827C37.2695 101.16 41.9194 83.9301 46.8697 76.3058C50.5381 70.658 58.5017 70.8655 70.5489 82.2748C72.8165 84.4242 74.9449 86.8454 76.9867 89.4346C88.3728 104.006 92.7829 115.455 100.976 119.008C108.38 122.22 114.513 117.659 120.306 116.013C128.005 113.824 135.602 110.677 142.433 114.254C148.54 117.456 151.808 122.486 158.526 117.56C160.656 115.999 162.984 114.002 165.276 111.028C169.488 105.563 173.586 98.1558 176.259 90.6748C185.537 64.8076 187.647 25.515 197.017 21.2211C207.666 16.3392 213.706 59.6786 223.399 74.8185C228.483 82.759 233.75 82.4971 241.897 80.4959C243.733 80.0463 245.704 79.4879 247.794 78.7072C256.83 75.3077 262.04 65.4796 265.991 55.1129C269.347 46.3027 272.521 37.28 277.742 34.6266C283.218 31.8447 287.949 35.6494 292.234 45.4133C296.862 55.9035 299.782 70.569 301.86 82.3094C306.011 105.785 307.748 137.962 325.632 121.404C336.549 111.299 342.717 93.9064 352.107 82.5268C360.353 72.5356 370.538 77.2644 387.507 81.8548" stroke="#838383" stroke-width="0.247061" stroke-miterlimit="10"/>
<path d="M0.638184 89.0488C8.59373 94.825 16.1462 99.7218 29.0319 98.8077C36.7657 98.2592 41.7361 84.1569 47.1258 78.7463C51.149 74.7093 58.8465 75.9348 70.2366 86.9833C72.4034 89.0883 74.4674 91.4403 76.4729 93.9603C87.4639 107.875 92.3195 118.192 99.9384 122.14C107.358 125.989 113.231 122.002 118.7 120.366C126.175 118.133 133.492 114.051 140.194 114.99C146.124 115.82 149.651 117.668 156.178 111.012C158.175 108.977 160.368 106.58 162.523 103.344C166.449 97.4439 170.287 90.0469 172.921 82.6944C182.318 56.5504 185.583 21.0279 194.498 17.8804C205.118 14.13 210.947 56.4762 220.477 73.3505C225.49 82.2249 230.835 83.7617 239.008 82.2299C240.851 81.884 242.826 81.3701 244.926 80.5746C254.089 77.0762 258.947 65.993 262.726 54.8111C265.918 45.3634 268.942 35.9801 274.255 33.5688C279.568 31.1574 284.442 35.7231 288.648 45.7983C293.185 56.6097 296.154 71.4185 298.305 82.8475C302.586 105.587 304.674 137.161 323.105 118.414C334.382 106.946 341.199 91.2575 351.202 81.6616C359.835 73.3801 370.431 78.0743 387.513 83.2675" stroke="#838383" stroke-width="0.247061" stroke-miterlimit="10"/>
<path d="M0.647949 91.4506C7.01319 96.0706 15.1663 96.5351 28.4934 95.7939C36.2595 95.3591 41.5504 84.4093 47.3795 81.1926C51.7574 78.7763 59.1909 81.0147 69.9219 91.6976C71.9899 93.7581 73.9873 96.0459 75.9566 98.4868C86.5505 111.744 91.6681 123.425 98.8981 125.273C106.517 127.225 111.945 126.34 117.091 124.72C124.341 122.437 131.379 117.451 137.952 115.722C143.707 114.21 147.51 112.9 153.827 104.461C155.695 101.965 157.749 99.1539 159.767 95.6555C163.411 89.3308 166.985 81.9338 169.579 74.7097C179.094 48.2841 183.517 16.5862 191.972 14.5405C202.564 11.9809 208.179 53.2796 217.548 71.8784C222.488 81.6867 227.914 85.0171 236.112 83.9547C237.96 83.7126 239.939 83.2432 242.048 82.4328C251.337 78.8356 255.842 66.5023 259.45 54.4952C262.482 44.4052 265.352 34.6611 270.756 32.4969C276.24 30.298 280.92 35.7828 285.05 46.1692C289.495 57.3018 292.512 72.2539 294.739 83.3717C299.147 105.375 301.588 136.346 320.567 115.406C332.203 102.568 339.671 88.5501 350.285 80.7775C359.309 74.1711 370.312 78.8603 387.505 84.6613" stroke="#838383" stroke-width="0.247061" stroke-miterlimit="10"/>
<path d="M0.660156 93.8469C5.43308 97.3107 14.1908 93.338 27.9573 92.7747C35.7577 92.4535 41.361 84.676 47.6336 83.6383C52.3642 82.8527 59.5336 86.0941 69.6076 96.4114C71.5748 98.4274 73.5077 100.651 75.4407 103.018C85.6396 115.618 91.1643 125.975 97.8601 128.411C105.521 131.198 110.663 130.684 115.487 129.078C122.511 126.746 129.279 120.885 135.715 116.463C141.3 112.624 145.4 108.181 151.481 97.9185C153.228 94.9686 155.137 91.7419 157.016 87.9767C160.378 81.227 163.687 73.835 166.243 66.7344C175.878 40.0321 181.453 12.1933 189.455 11.21C200.018 9.91043 205.42 50.0924 214.625 70.4156C219.493 81.1579 225 86.2819 233.223 85.689C235.076 85.5555 237.061 85.1207 239.179 84.2955C248.598 80.5995 252.752 67.0111 256.185 54.1837C259.055 43.4564 261.774 33.3417 267.269 31.4294C272.763 29.5172 277.413 35.8469 281.465 46.5446C285.816 57.9984 288.88 73.0938 291.184 83.9002C295.719 105.172 298.496 135.457 318.042 112.406C330.026 98.1606 338.161 85.8125 349.382 79.9028C358.803 74.9418 370.207 79.6607 387.511 86.0645" stroke="#838383" stroke-width="0.247061" stroke-miterlimit="10"/>
<path d="M0.672363 96.2435C3.85499 98.5559 13.2134 90.1361 27.4213 89.7507C35.2539 89.5382 41.1677 84.938 47.8897 86.0744C52.969 86.9293 59.8724 91.2084 69.2973 101.12C71.1637 103.102 73.0342 105.251 74.9288 107.544C84.7307 119.487 90.6525 128.569 96.8242 131.544C104.514 135.254 109.381 135.017 113.882 133.431C120.681 131.04 127.189 124.329 133.478 117.199C138.902 111.047 143.316 103.472 149.137 91.3714C150.772 87.9719 152.527 84.3302 154.267 80.2932C157.351 73.1235 160.392 65.7265 162.908 58.7544C172.659 31.7705 179.399 6.75306 186.937 7.87472C197.447 9.44109 202.639 46.9449 211.705 68.9482C216.49 80.6539 222.087 87.542 230.335 87.4184C232.194 87.3888 234.183 86.9984 236.309 86.1584C245.855 82.3586 249.661 67.5251 252.918 53.8725C255.629 42.5077 258.193 32.0175 263.78 30.3573C269.274 28.7267 273.904 35.9063 277.879 46.9153C282.138 58.6902 285.242 73.9437 287.63 84.4191C292.278 104.98 295.425 134.656 315.516 109.392C327.86 93.7926 336.66 83.0257 348.477 79.0134C358.301 75.6732 370.1 80.4464 387.515 87.4481" stroke="#838383" stroke-width="0.247061" stroke-miterlimit="10"/>
<path d="M0.682617 98.6447C2.27292 99.8009 12.234 86.8796 26.8833 86.7363C34.7482 86.6029 40.9683 85.2194 48.1438 88.5201C53.5678 91.0154 60.2172 96.2778 68.983 105.834C70.7507 107.771 72.5547 109.851 74.413 112.075C83.8178 123.361 90.1226 131.197 95.7844 134.681C103.486 139.42 108.096 139.336 112.274 137.794C118.845 135.313 125.105 127.778 131.235 117.94C136.507 109.476 141.252 98.7731 146.785 84.829C148.313 80.9749 149.913 76.9231 151.509 72.6143C154.319 65.0296 157.089 57.6276 159.566 50.7791C169.436 23.5135 177.301 3.546 184.412 4.54413C194.895 6.01661 199.876 43.7379 208.777 67.4854C213.491 80.1151 219.167 88.8067 227.439 89.1575C229.303 89.2366 231.297 88.8858 233.433 88.0309C243.108 84.1323 246.577 68.0585 249.645 53.5709C252.209 41.5786 254.607 30.698 260.283 29.2996C265.784 27.9457 270.387 35.9802 274.283 47.3005C278.45 59.3966 281.604 74.7934 284.065 84.9575C288.844 104.782 292.343 133.876 312.979 106.397C325.683 89.4441 335.156 80.2386 347.56 78.1436C357.797 76.4141 369.982 81.2467 387.507 88.8561" stroke="#838383" stroke-width="0.247061" stroke-miterlimit="10"/>
<path d="M0.694336 101.041C0.694336 101.041 11.256 83.7174 26.3488 83.7174C41.4416 83.7174 51.5014 90.1755 73.8987 116.601C96.296 143.027 104.217 144.712 110.669 142.147C123.964 136.86 135.822 105.74 148.758 64.9259C161.69 24.1115 173.572 -1.19747 181.89 1.20397C199.097 6.16989 200.994 101.941 230.561 89.884C248.471 82.5809 244.047 30.7277 256.792 28.2225C268.174 25.9842 275.595 66.3935 280.507 85.4814C285.417 104.569 289.267 133.08 310.451 103.393C334.237 70.0549 348.386 72.0314 387.511 90.2546" stroke="#D86A8D" stroke-width="0.988244" stroke-miterlimit="10"/>
</svg>
