<svg width="1922" height="380" viewBox="0 0 1922 380" fill="none" xmlns="http://www.w3.org/2000/svg">
<path d="M1921 136.248C1842.32 139.188 1809.56 126.568 1790.49 183.708C1771.59 240.338 1775.82 312.168 1739.57 305.388C1648.17 288.308 1711.31 128.588 1626.47 83.2079C1581.09 58.9379 1536.6 106.798 1480.34 116.718C1445.49 122.858 1385.2 111.818 1342.04 126.758C1302.87 140.318 1280.53 177.478 1251.91 179.988C1195.47 184.938 1156.83 79.7379 1101 109.328C1033.6 145.038 1078.73 297.198 1038.58 343.878C1015.5 370.708 950.98 392.818 901.43 369.278C857.7 348.508 854.27 270.308 816.21 215.178C737.27 100.828 625.42 155.588 550.96 176.268C473.2 197.868 483.21 108.868 364 70.0079C271.5 39.8479 219.64 60.1379 218.35 103.868C216.56 164.418 208.33 261.758 171.78 266.038C131.91 270.718 127.31 163.118 1 125.708" stroke="#838383" stroke-width="0.5" stroke-miterlimit="10"/>
<path d="M1.06006 130.568C119.48 165.638 127.07 264.428 169.11 259.938C205.84 256.018 215.57 164.888 219.61 108.818C222.61 68.3479 273.21 50.1179 362.44 79.5579C378.13 84.7479 391.61 90.8179 403.39 97.3879C477.58 138.848 480.99 198.868 545.8 182.628C581.29 173.728 623.88 157.698 667.04 154.328C715.28 150.498 764.44 162.058 805.09 216.688C842.36 267.008 847.3 338.238 889.78 356.048C906.09 362.888 923.93 364.998 941.37 363.528C975.05 360.778 1006.99 345.178 1022.01 327.748C1062.76 280.498 1023.01 135.388 1088.49 102.598C1143.87 74.8679 1181.78 178.458 1237.4 177.038C1265.67 176.398 1288.4 142.888 1327.69 130.278C1336.56 127.438 1346.14 125.548 1356.09 124.268C1395.2 119.208 1437.21 122.548 1464.11 116.108C1488.35 110.298 1510.4 97.7879 1532.34 88.4479C1559.17 77.0179 1583.88 69.9079 1608.65 83.9879C1635.74 99.3779 1647.93 126.468 1655 155.888C1669.58 216.888 1662.58 292.268 1727 299.328C1765.04 303.358 1764.54 235.188 1785.96 181.948C1807.38 128.708 1841.75 140.818 1920.98 139.098" stroke="#838383" stroke-width="0.5" stroke-miterlimit="10"/>
<path d="M1.10986 135.418C111.63 168.148 122.22 258.118 166.44 253.818C203.34 250.238 214.46 165.328 220.87 113.748C225.5 76.528 274.92 60.358 360.89 89.078C376.09 94.178 389.24 100.108 400.84 106.538C473.06 146.668 478.3 202.868 540.65 188.958C576.23 181.018 617.51 166.478 659.08 163.128C706.2 159.218 754.19 168.768 793.99 218.158C830.59 263.578 836.87 327.928 878.14 342.778C893.88 348.448 910.96 349.898 927.72 347.958C959.98 344.218 990.63 328.758 1005.46 311.578C1046.79 263.758 1012.47 125.728 1076 95.828C1130.97 69.958 1168.12 171.788 1222.91 174.058C1250.84 175.218 1273.95 145.428 1313.37 133.778C1322.26 131.148 1331.87 129.348 1341.87 128.028C1381.62 122.768 1421.83 123.478 1447.92 115.468C1471.31 108.278 1492.68 95.208 1515.04 86.278C1541.93 75.538 1566.48 70.028 1590.86 84.738C1617.49 100.778 1629.93 128.158 1637.37 156.948C1652.6 216.448 1647.34 290.858 1714.48 293.238C1754.3 294.648 1757.5 230.038 1781.49 180.158C1805.4 130.418 1841.24 142.418 1921.03 141.918" stroke="#838383" stroke-width="0.5" stroke-miterlimit="10"/>
<path d="M1.16992 140.268C103.8 170.658 117.38 251.788 163.79 247.708C200.86 244.448 213.42 165.778 222.14 118.688C228.43 84.7081 276.64 70.6181 359.34 98.6081C374.04 103.618 386.88 109.418 398.29 115.698C468.55 154.498 475.66 206.968 535.5 195.298C571.21 188.338 611.15 175.278 651.11 171.938C697.11 167.938 743.88 175.528 782.88 219.648C818.74 260.208 826.39 317.628 866.49 329.528C881.64 334.028 897.97 334.848 914.06 332.408C944.91 327.728 974.26 312.348 988.89 295.428C1030.81 247.048 1001.95 116.128 1063.48 89.0681C1118.06 65.0681 1154.43 165.218 1208.39 171.078C1235.98 174.078 1259.47 147.968 1299.01 137.268C1307.93 134.848 1317.55 133.138 1327.6 131.788C1367.98 126.328 1406.39 124.418 1431.68 114.828C1454.22 106.278 1474.91 92.6181 1497.7 84.0981C1524.64 74.0281 1549.04 70.1381 1573.03 85.4781C1599.21 102.168 1611.89 129.838 1619.69 157.998C1635.58 216.008 1632.06 289.308 1701.9 287.148C1743.51 285.858 1750.36 224.928 1776.95 178.368C1803.21 132.368 1840.66 144.008 1921 144.738" stroke="#838383" stroke-width="0.5" stroke-miterlimit="10"/>
<path d="M1.22021 145.128C95.9602 173.178 112.53 245.458 161.12 241.608C198.36 238.658 212.37 166.228 223.4 123.638C231.36 92.8978 278.35 80.8778 357.78 108.158C371.99 113.078 384.5 118.748 395.73 124.878C464.02 162.348 473.06 211.178 530.34 201.658C566.21 195.698 604.78 184.168 643.13 180.768C688.03 176.788 733.54 182.308 771.76 221.158C806.88 256.848 815.84 307.358 854.83 316.298C869.38 319.628 884.98 319.818 900.39 316.878C929.82 311.258 957.88 295.958 972.32 279.288C1014.83 230.338 991.47 106.578 1050.97 82.3278C1105.2 60.2278 1140.76 158.678 1193.87 168.118C1221.12 172.958 1244.99 150.538 1284.66 140.778C1293.61 138.578 1303.25 136.948 1313.35 135.568C1354.37 129.908 1390.97 125.398 1415.46 114.208C1437.15 104.298 1457.15 90.0378 1480.38 81.9478C1507.36 72.5478 1531.62 70.2778 1555.22 86.2578C1580.94 103.598 1593.87 131.558 1602.04 159.078C1618.58 215.598 1616.82 287.758 1689.36 281.078C1732.77 277.078 1743.21 219.868 1772.45 176.598C1801 134.348 1840.12 145.628 1921.01 147.578" stroke="#838383" stroke-width="0.5" stroke-miterlimit="10"/>
<path d="M1.27979 149.978C88.1198 175.698 107.68 239.108 158.46 235.498C195.86 232.838 211.34 166.658 224.67 128.588C234.3 101.078 280.07 91.1477 356.23 117.698C369.94 122.518 382.13 128.058 393.18 134.038C459.5 170.178 470.51 215.478 525.19 207.998C561.25 203.058 598.42 192.978 635.17 189.578C678.95 185.528 723.21 189.058 760.66 222.638C795.02 253.458 805.25 297.088 843.19 303.038C857.11 305.218 872 304.758 886.73 301.318C914.74 294.768 941.51 279.548 955.75 263.128C998.85 213.618 981.03 97.0677 1038.46 75.5677C1092.38 55.3877 1127.09 152.128 1179.36 165.138C1206.28 171.838 1230.52 153.078 1270.31 144.268C1279.29 142.278 1288.95 140.728 1299.09 139.318C1340.74 133.448 1375.55 126.348 1399.23 113.568C1420.07 102.318 1439.38 87.4377 1463.05 79.7777C1490.07 71.0277 1514.19 70.3977 1537.4 87.0077C1562.66 104.998 1575.9 133.228 1584.38 160.138C1601.7 215.128 1601.58 286.178 1676.8 274.988C1722.01 268.268 1735.97 214.788 1767.94 174.808C1798.71 136.318 1839.57 147.228 1921.01 150.398" stroke="#838383" stroke-width="0.5" stroke-miterlimit="10"/>
<path d="M1.33008 154.828C80.2801 178.208 102.82 232.738 155.79 229.388C193.35 227.008 210.3 167.078 225.93 133.528C237.24 109.238 281.78 101.398 354.68 127.228C367.9 131.958 379.76 137.368 390.63 143.198C454.99 178.008 467.99 219.888 520.04 214.338C556.31 210.468 592.06 201.788 627.2 198.388C669.87 194.268 712.86 195.798 749.55 224.128C783.14 250.068 794.6 286.858 831.54 289.788C844.81 290.838 859.01 289.718 873.07 285.768C899.65 278.298 925.14 263.138 939.19 246.978C982.87 196.898 970.65 87.6181 1025.95 68.8181C1079.59 50.5881 1113.42 145.608 1164.85 162.168C1191.43 170.728 1216.05 155.628 1255.97 147.768C1264.97 145.998 1274.66 144.528 1284.85 143.088C1327.14 137.018 1360.14 127.338 1383.01 112.938C1403 100.348 1421.62 84.8281 1445.72 77.6181C1472.78 69.5181 1496.76 70.5281 1519.58 87.7681C1544.38 106.398 1557.88 134.918 1566.71 161.208C1584.69 214.698 1586.32 284.588 1664.23 268.918C1711.23 259.468 1728.64 209.728 1763.41 173.038C1796.33 138.298 1839 148.838 1921 153.238" stroke="#838383" stroke-width="0.5" stroke-miterlimit="10"/>
<path d="M1.39014 159.688C72.4401 180.728 97.9701 226.358 153.13 223.288C190.86 221.178 209.29 167.488 227.19 138.478C240.2 117.398 283.49 111.668 353.12 136.778C365.84 141.418 377.38 146.698 388.07 152.378C450.46 185.858 465.5 224.428 514.89 220.698C551.39 217.938 585.69 210.608 619.23 207.218C660.78 203.028 702.49 202.558 738.44 225.628C771.25 246.688 784.12 272.458 819.89 276.538C832.42 277.968 846.02 274.678 859.41 270.218C884.57 261.838 908.77 246.738 922.62 230.828C966.89 180.178 960.29 78.2278 1013.44 62.0678C1066.83 45.8278 1099.75 139.098 1150.34 159.198C1176.58 169.628 1201.58 158.178 1241.62 151.278C1250.65 149.718 1260.36 148.338 1270.59 146.858C1313.51 140.588 1344.71 128.338 1366.78 112.308C1385.93 98.3978 1403.84 82.2178 1428.39 75.4478C1455.48 67.9778 1479.33 70.6478 1501.76 88.5178C1526.1 107.798 1539.85 136.608 1549.05 162.268C1567.69 214.258 1571.07 282.978 1651.68 262.828C1700.48 250.638 1721.26 204.618 1758.9 171.248C1793.9 140.218 1838.45 150.438 1921 156.058" stroke="#838383" stroke-width="0.5" stroke-miterlimit="10"/>
<path d="M1.43994 164.538C64.5999 183.238 93.1099 219.968 150.46 217.168C188.35 215.328 208.3 167.888 228.45 143.408C243.17 125.538 285.25 121.768 351.56 146.298C363.8 150.828 375.01 155.988 385.51 161.528C445.94 193.678 463.22 222.398 509.73 227.028C546.34 230.668 579.32 219.398 611.26 216.028C651.7 211.758 692.09 209.298 727.32 227.118C759.32 243.298 773.13 266.618 808.24 263.288C820.17 262.158 833.04 259.638 845.75 254.668C869.49 245.378 892.4 230.328 906.06 214.678C950.92 163.468 949.98 68.9081 1000.94 55.3181C1054.11 41.1281 1086.09 132.608 1135.84 156.228C1161.75 168.528 1187.11 160.728 1227.28 154.778C1236.34 153.438 1246.07 152.138 1256.35 150.628C1299.91 144.158 1329.32 129.348 1350.57 111.678C1368.88 96.4581 1386.08 79.5981 1411.08 73.2881C1438.2 66.4381 1461.92 70.7781 1483.96 89.2781C1507.84 109.208 1521.84 138.308 1531.4 163.338C1550.7 213.838 1555.82 281.358 1639.13 256.758C1689.72 241.818 1713.82 199.478 1754.4 169.478C1791.41 142.118 1837.91 152.058 1921.01 158.898" stroke="#838383" stroke-width="0.5" stroke-miterlimit="10"/>
<path d="M1.5 169.388C56.76 185.758 88.26 213.548 147.8 211.058C185.85 209.468 207.35 168.298 229.72 148.358C246.17 133.698 286.97 132.028 350.01 155.838C361.75 160.278 372.64 165.308 382.95 170.698C441.41 201.518 461 227.298 504.57 233.378C541.23 238.488 572.95 228.198 603.28 224.848C642.6 220.498 681.65 216.068 716.2 228.618C747.36 239.938 762.35 256.638 796.58 250.048C807.83 247.888 820.04 244.618 832.08 239.128C854.39 228.948 876.02 213.928 889.48 198.538C934.93 146.758 939.68 59.6778 988.41 48.5778C1041.4 36.5078 1072.39 126.128 1121.3 153.268C1146.86 167.448 1172.61 163.288 1212.91 158.288C1221.99 157.158 1231.75 155.948 1242.07 154.408C1286.26 147.728 1313.89 130.378 1334.32 111.058C1351.8 94.5278 1368.27 76.9778 1393.72 71.1378C1420.86 64.9078 1444.46 70.9178 1466.11 90.0478C1489.53 110.628 1503.78 140.018 1513.71 164.408C1533.66 213.408 1540.53 279.738 1626.54 250.678C1678.92 232.988 1706.28 194.258 1749.85 167.698C1788.82 143.938 1837.32 153.658 1920.97 161.728" stroke="#838383" stroke-width="0.5" stroke-miterlimit="10"/>
<path d="M1.5498 174.248C48.9198 188.278 83.3998 207.138 145.14 204.958C183.35 203.608 206.42 168.738 230.98 153.308C249.18 141.878 288.69 142.298 348.46 165.388C359.71 169.738 370.27 174.638 380.4 179.878C436.89 209.368 458.77 232.538 499.42 239.728C536.15 246.228 566.58 236.998 595.32 233.668C633.52 229.238 671.21 222.868 705.1 230.108C735.4 236.588 751.61 246.768 784.94 236.798C795.51 233.638 807.06 229.598 818.43 223.578C839.33 212.518 859.66 197.528 872.92 182.388C918.95 130.038 929.42 50.5177 975.91 41.8277C1028.74 31.9477 1058.71 119.658 1106.8 150.298C1132.02 166.368 1158.15 165.838 1198.57 161.788C1207.68 160.878 1217.46 159.748 1227.83 158.168C1272.66 151.288 1298.51 131.398 1318.11 110.418C1334.76 92.5877 1350.51 74.3277 1376.41 68.9577C1403.58 63.3277 1427.05 71.0277 1448.31 90.7877C1471.27 112.018 1485.76 141.698 1496.07 165.458C1516.66 212.968 1525.28 278.088 1614.01 244.578C1668.17 224.128 1698.77 188.928 1745.36 165.898C1786.27 145.678 1836.8 155.248 1920.99 164.538" stroke="#838383" stroke-width="0.5" stroke-miterlimit="10"/>
<path d="M1.60986 179.098C41.0799 190.788 78.5499 200.698 142.48 198.848C180.85 197.738 205.51 169.198 232.25 158.248C252.21 150.078 290.4 152.558 346.91 174.918C357.66 179.178 367.9 183.938 377.85 189.038C432.38 217.198 456.47 238.078 494.27 246.068C531.08 253.858 560.22 245.788 587.35 242.478C624.44 237.958 660.74 229.698 693.99 231.598C723.41 233.278 740.91 237.018 773.29 223.548C783.2 219.428 794.08 214.578 804.77 208.028C824.25 196.088 843.29 181.118 856.36 166.238C902.98 113.328 919.18 41.4381 963.41 35.0681C1016.1 27.4781 1045.02 113.178 1092.3 147.328C1117.17 165.288 1143.69 168.398 1184.24 165.298C1193.38 164.598 1203.18 163.558 1213.6 161.948C1259.06 154.868 1283.16 132.438 1301.91 109.808C1317.75 90.6881 1332.75 71.6981 1359.11 66.8181C1385.47 61.9381 1409.65 71.1781 1430.52 91.5681C1453.03 113.448 1467.76 143.418 1478.43 166.548C1499.67 212.568 1510.03 276.468 1601.47 238.528C1657.42 215.318 1691.24 183.568 1740.87 164.148C1783.7 147.388 1836.27 156.888 1921.02 167.398" stroke="#838383" stroke-width="0.5" stroke-miterlimit="10"/>
<path d="M1.66016 183.958C33.2402 193.308 73.6902 194.248 139.81 192.748C178.34 191.868 204.59 169.708 233.51 163.198C255.23 158.308 292.11 162.838 345.35 184.458C355.61 188.628 365.52 193.258 375.29 198.198C427.85 225.028 453.24 248.668 489.11 252.408C526.91 256.358 553.84 254.568 579.37 251.288C615.34 246.668 650.26 236.578 682.87 233.078C711.42 230.018 730.29 227.368 761.63 210.288C770.9 205.238 781.09 199.548 791.1 192.468C809.18 179.668 826.91 164.698 839.78 150.078C886.99 96.5978 908.93 32.4478 950.88 28.3078C1003.43 23.1278 1031.29 106.708 1077.77 144.348C1102.28 164.198 1129.2 170.938 1169.87 168.788C1179.04 168.298 1188.86 167.348 1199.32 165.708C1245.41 158.428 1267.76 133.468 1285.66 109.168C1300.7 88.7478 1314.94 69.0278 1341.75 64.6478C1368.96 60.1978 1392.18 71.2978 1412.67 92.3178C1434.72 114.848 1449.69 145.108 1460.74 167.608C1482.61 212.138 1494.72 274.818 1588.88 232.438C1646.61 206.458 1683.66 178.088 1736.32 162.358C1781.09 148.988 1835.68 158.478 1920.98 170.218" stroke="#838383" stroke-width="0.5" stroke-miterlimit="10"/>
<path d="M1.72021 188.808C25.4002 195.818 68.8502 187.778 137.15 186.638C175.85 185.988 203.65 170.248 234.77 168.148C258.24 166.558 293.81 173.118 343.79 193.998C353.55 198.078 363.14 202.578 372.73 207.368C423.33 232.868 450.74 253.828 483.96 258.758C521.97 264.398 547.48 263.358 571.41 260.108C606.26 255.388 639.84 243.528 671.77 234.578C699.48 226.808 719.82 217.818 749.99 197.048C758.66 191.078 768.13 184.548 777.45 176.928C794.13 163.268 810.55 148.308 823.23 133.938C871.03 79.8981 898.69 23.5581 938.39 21.5681C990.8 18.9381 1017.6 100.258 1063.27 141.388C1087.42 163.128 1114.74 173.498 1155.54 172.298C1164.73 172.028 1174.58 171.148 1185.09 169.478C1231.82 161.998 1252.43 134.498 1269.46 108.538C1283.7 86.8281 1297.19 66.3581 1324.45 62.4881C1351.71 58.6181 1374.78 71.4281 1394.88 93.0781C1416.47 116.258 1431.67 146.808 1443.1 168.678C1465.6 211.728 1479.38 273.018 1576.35 226.368C1635.81 197.538 1676.17 172.548 1731.84 160.588C1778.58 150.548 1835.16 160.098 1921.01 173.058" stroke="#838383" stroke-width="0.5" stroke-miterlimit="10"/>
<path d="M1.77979 193.658C17.5698 198.338 63.9998 181.298 134.49 180.518C173.35 180.088 202.69 170.778 236.04 173.078C261.24 174.808 295.49 183.468 342.25 203.528C351.51 207.538 360.79 211.888 370.19 216.528C418.82 240.698 448.2 259.078 478.82 265.098C516.97 272.608 541.12 272.128 563.45 268.918C597.18 264.078 629.47 250.498 660.67 236.068C687.58 223.618 709.48 208.288 738.36 183.798C746.47 176.918 755.18 169.548 763.81 161.378C779.11 146.868 794.2 131.898 806.68 117.788C855.06 63.1777 888.5 12.5477 925.9 14.8177C978.04 17.9877 1003.8 93.8877 1048.78 138.418C1072.52 162.108 1100.29 176.048 1141.21 175.798C1150.43 175.738 1160.3 174.948 1170.85 173.248C1218.21 165.558 1237.09 135.538 1253.25 107.908C1266.7 84.9077 1279.42 63.6777 1307.14 60.3177C1334.4 57.0177 1357.37 71.5477 1377.09 93.8277C1398.22 117.658 1413.62 148.528 1425.47 169.728C1448.53 211.338 1464.14 271.398 1563.82 220.268C1625.06 188.698 1668.72 166.908 1727.35 158.788C1776.09 152.028 1834.63 161.688 1921.03 175.858" stroke="#838383" stroke-width="0.5" stroke-miterlimit="10"/>
<path d="M1.83008 198.518C9.72008 200.858 59.1401 174.708 131.82 174.418C170.84 174.148 201.7 171.348 237.3 178.028C264.21 183.078 297.2 193.728 340.69 213.068C349.46 216.988 358.41 221.198 367.63 225.698C414.29 248.538 445.57 264.398 473.66 271.448C511.87 281.038 534.74 280.868 555.47 277.748C588.07 272.728 619.13 257.478 649.54 237.568C675.7 220.438 699.24 198.778 726.69 170.558C734.27 162.758 742.21 154.558 750.13 145.838C764.07 130.488 777.81 115.508 790.1 101.648C839.07 46.4679 878.09 6.05787 913.37 8.07787C965.38 11.0579 990.09 87.3979 1034.25 135.458C1057.64 161.018 1085.8 178.608 1126.84 179.318C1136.09 179.478 1145.98 178.768 1156.58 177.038C1204.58 169.148 1221.79 136.618 1237.01 107.298C1249.73 83.0279 1261.63 61.0079 1289.79 58.1779C1317.08 55.4379 1339.92 71.6979 1359.25 94.6079C1379.92 119.088 1395.57 150.248 1407.78 170.818C1431.49 210.938 1448.85 269.818 1551.23 214.208C1614.26 179.898 1661.26 161.268 1722.8 157.028C1773.59 153.528 1834.04 163.308 1920.99 178.708" stroke="#838383" stroke-width="0.5" stroke-miterlimit="10"/>
<path d="M1.89014 203.368C1.89014 203.368 54.2901 168.308 129.17 168.308C204.05 168.308 253.96 181.378 365.08 234.858C476.2 288.338 515.5 291.748 547.51 286.558C613.47 275.858 672.3 212.878 736.48 130.278C800.64 47.6779 859.59 -3.54208 900.86 1.31792C986.23 11.3679 995.64 205.188 1142.33 180.788C1231.19 166.008 1209.24 61.0679 1272.47 55.9979C1328.94 51.4679 1365.76 133.248 1390.13 171.878C1414.49 210.508 1433.59 268.208 1538.69 208.128C1656.7 140.658 1726.9 144.658 1921.01 181.538" stroke="#D86A8D" stroke-width="2" stroke-miterlimit="10"/>
</svg>
