<svg width="1922" height="380" viewBox="0 0 1922 380" fill="none" xmlns="http://www.w3.org/2000/svg">
<path d="M1920.99 136.5C1842.31 139.44 1809.55 126.82 1790.48 183.96C1771.58 240.59 1775.81 312.42 1739.56 305.64C1648.16 288.56 1711.3 128.84 1626.46 83.4598C1581.08 59.1898 1536.59 107.05 1480.33 116.97C1445.48 123.11 1385.19 112.07 1342.03 127.01C1302.86 140.57 1280.53 177.73 1251.91 180.24C1195.47 185.19 1156.83 79.9898 1101 109.58C1033.6 145.29 1078.73 297.45 1038.58 344.13C1015.5 370.96 950.98 393.07 901.431 369.53C857.702 348.76 854.272 270.56 816.212 215.43C737.274 101.08 625.425 155.84 550.967 176.52C473.208 198.12 483.218 109.12 364.009 70.2598C271.511 40.0998 219.652 60.3898 218.362 104.12C216.572 164.67 208.342 262.01 171.792 266.29C131.923 270.97 127.323 163.37 1.01514 125.96" stroke="#838383" stroke-width="0.5" stroke-miterlimit="10"/>
<path d="M1.0752 130.82C119.493 165.89 127.083 264.68 169.123 260.19C205.852 256.27 215.582 165.14 219.622 109.07C222.622 68.5998 273.221 50.3698 362.45 79.8098C378.139 84.9998 391.619 91.0698 403.399 97.6398C477.588 139.1 480.998 199.12 545.807 182.88C581.296 173.98 623.885 157.95 667.045 154.58C715.284 150.75 764.443 162.31 805.093 216.94C842.362 267.26 847.302 338.49 889.781 356.3C906.091 363.14 923.931 365.25 941.371 363.78C975.05 361.03 1006.99 345.43 1022.01 328C1062.76 280.75 1023.01 135.64 1088.49 102.85C1143.87 75.1198 1181.78 178.71 1237.4 177.29C1265.67 176.65 1288.4 143.14 1327.68 130.53C1336.55 127.69 1346.13 125.8 1356.08 124.52C1395.19 119.46 1437.2 122.8 1464.1 116.36C1488.34 110.55 1510.39 98.0398 1532.33 88.6998C1559.16 77.2698 1583.87 70.1598 1608.64 84.2398C1635.73 99.6298 1647.92 126.72 1654.99 156.14C1669.57 217.14 1662.57 292.52 1726.99 299.58C1765.03 303.61 1764.53 235.44 1785.95 182.2C1807.37 128.96 1841.74 141.07 1920.97 139.35" stroke="#838383" stroke-width="0.5" stroke-miterlimit="10"/>
<path d="M1.125 135.67C111.643 168.4 122.233 258.37 166.452 254.07C203.352 250.49 214.472 165.58 220.882 114C225.512 76.78 274.931 60.61 360.899 89.33C376.099 94.43 389.249 100.36 400.849 106.79C473.068 146.92 478.308 203.12 540.657 189.21C576.236 181.27 617.515 166.73 659.085 163.38C706.204 159.47 754.193 169.02 793.993 218.41C830.592 263.83 836.872 328.18 878.141 343.03C893.881 348.7 910.961 350.15 927.721 348.21C959.98 344.47 990.63 329.01 1005.46 311.83C1046.79 264.01 1012.47 125.98 1076 96.08C1130.97 70.21 1168.12 172.04 1222.91 174.31C1250.84 175.47 1273.95 145.68 1313.36 134.03C1322.25 131.4 1331.86 129.6 1341.86 128.28C1381.61 123.02 1421.82 123.73 1447.91 115.72C1471.3 108.53 1492.67 95.46 1515.03 86.53C1541.92 75.79 1566.47 70.28 1590.85 84.99C1617.48 101.03 1629.92 128.41 1637.36 157.2C1652.59 216.7 1647.33 291.11 1714.47 293.49C1754.29 294.9 1757.49 230.29 1781.48 180.41C1805.39 130.67 1841.23 142.67 1921.01 142.17" stroke="#838383" stroke-width="0.5" stroke-miterlimit="10"/>
<path d="M1.18506 140.52C103.813 170.91 117.393 252.04 163.803 247.96C200.872 244.7 213.432 166.03 222.152 118.94C228.442 84.9601 276.651 70.8701 359.349 98.8601C374.049 103.87 386.889 109.67 398.299 115.95C468.558 154.75 475.668 207.22 535.507 195.55C571.216 188.59 611.156 175.53 651.115 172.19C697.114 168.19 743.883 175.78 782.883 219.9C818.742 260.46 826.392 317.88 866.492 329.78C881.641 334.28 897.971 335.1 914.061 332.66C944.91 327.98 974.26 312.6 988.89 295.68C1030.81 247.3 1001.95 116.38 1063.48 89.3201C1118.06 65.3201 1154.43 165.47 1208.39 171.33C1235.98 174.33 1259.47 148.22 1299 137.52C1307.92 135.1 1317.54 133.39 1327.59 132.04C1367.97 126.58 1406.38 124.67 1431.67 115.08C1454.21 106.53 1474.9 92.8701 1497.69 84.3501C1524.63 74.2801 1549.03 70.3901 1573.02 85.7301C1599.2 102.42 1611.88 130.09 1619.68 158.25C1635.57 216.26 1632.05 289.56 1701.89 287.4C1743.5 286.11 1750.35 225.18 1776.94 178.62C1803.2 132.62 1840.65 144.26 1920.99 144.99" stroke="#838383" stroke-width="0.5" stroke-miterlimit="10"/>
<path d="M1.23535 145.38C95.9739 173.43 112.544 245.71 161.133 241.86C198.372 238.91 212.382 166.48 223.412 123.89C231.372 93.1497 278.361 81.1297 357.79 108.41C372 113.33 384.509 119 395.739 125.13C464.028 162.6 473.068 211.43 530.347 201.91C566.217 195.95 604.786 184.42 643.135 181.02C688.035 177.04 733.544 182.56 771.763 221.41C806.883 257.1 815.843 307.61 854.832 316.55C869.382 319.88 884.982 320.07 900.391 317.13C929.821 311.51 957.88 296.21 972.32 279.54C1014.83 230.59 991.47 106.83 1050.97 82.5797C1105.2 60.4797 1140.76 158.93 1193.87 168.37C1221.12 173.21 1244.99 150.79 1284.66 141.03C1293.61 138.83 1303.25 137.2 1313.34 135.82C1354.36 130.16 1390.96 125.65 1415.45 114.46C1437.14 104.55 1457.14 90.2897 1480.37 82.1997C1507.35 72.7997 1531.61 70.5297 1555.21 86.5097C1580.93 103.85 1593.86 131.81 1602.03 159.33C1618.57 215.85 1616.81 288.01 1689.35 281.33C1732.76 277.33 1743.2 220.12 1772.44 176.85C1800.99 134.6 1840.11 145.88 1921 147.83" stroke="#838383" stroke-width="0.5" stroke-miterlimit="10"/>
<path d="M1.29492 150.23C88.1336 175.95 107.693 239.36 158.472 235.75C195.872 233.09 211.352 166.91 224.681 128.84C234.311 101.33 280.081 91.3996 356.239 117.95C369.949 122.77 382.139 128.31 393.189 134.29C459.508 170.43 470.518 215.73 525.197 208.25C561.256 203.31 598.426 193.23 635.175 189.83C678.954 185.78 723.214 189.31 760.663 222.89C795.023 253.71 805.252 297.34 843.192 303.29C857.112 305.47 872.001 305.01 886.731 301.57C914.741 295.02 941.51 279.8 955.75 263.38C998.849 213.87 981.03 97.3196 1038.46 75.8196C1092.38 55.6396 1127.09 152.38 1179.36 165.39C1206.28 172.09 1230.52 153.33 1270.31 144.52C1279.28 142.53 1288.94 140.98 1299.08 139.57C1340.73 133.7 1375.54 126.6 1399.22 113.82C1420.06 102.57 1439.37 87.6896 1463.04 80.0296C1490.06 71.2796 1514.18 70.6496 1537.39 87.2596C1562.65 105.25 1575.89 133.48 1584.37 160.39C1601.69 215.38 1601.57 286.43 1676.79 275.24C1722 268.52 1735.96 215.04 1767.93 175.06C1798.7 136.57 1839.56 147.48 1920.99 150.65" stroke="#838383" stroke-width="0.5" stroke-miterlimit="10"/>
<path d="M1.34521 155.08C80.294 178.46 102.834 232.99 155.803 229.64C193.362 227.26 210.312 167.33 225.942 133.78C237.252 109.49 281.791 101.65 354.69 127.48C367.909 132.21 379.769 137.62 390.639 143.45C454.998 178.26 467.998 220.14 520.047 214.59C556.317 210.72 592.066 202.04 627.205 198.64C669.875 194.52 712.864 196.05 749.554 224.38C783.143 250.32 794.603 287.11 831.542 290.04C844.812 291.09 859.012 289.97 873.072 286.02C899.651 278.55 925.141 263.39 939.191 247.23C982.87 197.15 970.65 87.87 1025.95 69.07C1079.59 50.84 1113.42 145.86 1164.85 162.42C1191.43 170.98 1216.05 155.88 1255.97 148.02C1264.97 146.25 1274.66 144.78 1284.85 143.34C1327.13 137.27 1360.13 127.59 1383 113.19C1402.99 100.6 1421.61 85.08 1445.71 77.87C1472.77 69.77 1496.75 70.78 1519.57 88.02C1544.37 106.65 1557.87 135.17 1566.7 161.46C1584.68 214.95 1586.31 284.84 1664.22 269.17C1711.22 259.72 1728.63 209.98 1763.4 173.29C1796.32 138.55 1838.99 149.09 1920.99 153.49" stroke="#838383" stroke-width="0.5" stroke-miterlimit="10"/>
<path d="M1.40527 159.94C72.4542 180.98 97.9838 226.61 153.143 223.54C190.872 221.43 209.302 167.74 227.202 138.73C240.212 117.65 283.501 111.92 353.13 137.03C365.85 141.67 377.389 146.95 388.079 152.63C450.468 186.11 465.508 224.68 514.897 220.95C551.397 218.19 585.696 210.86 619.236 207.47C660.785 203.28 702.494 202.81 738.444 225.88C771.253 246.94 784.123 272.71 819.892 276.79C832.422 278.22 846.022 274.93 859.412 270.47C884.571 262.09 908.771 246.99 922.621 231.08C966.89 180.43 960.29 78.4798 1013.44 62.3198C1066.83 46.0798 1099.75 139.35 1150.34 159.45C1176.58 169.88 1201.58 158.43 1241.62 151.53C1250.65 149.97 1260.36 148.59 1270.59 147.11C1313.5 140.84 1344.7 128.59 1366.77 112.56C1385.92 98.6498 1403.83 82.4698 1428.38 75.6998C1455.47 68.2298 1479.32 70.8998 1501.75 88.7698C1526.09 108.05 1539.84 136.86 1549.04 162.52C1567.68 214.51 1571.06 283.23 1651.67 263.08C1700.47 250.89 1721.25 204.87 1758.89 171.5C1793.89 140.47 1838.44 150.69 1920.99 156.31" stroke="#838383" stroke-width="0.5" stroke-miterlimit="10"/>
<path d="M1.45508 164.79C64.6141 183.49 93.1237 220.22 150.473 217.42C188.362 215.58 208.312 168.14 228.462 143.66C243.181 125.79 285.261 122.02 351.57 146.55C363.809 151.08 375.019 156.24 385.519 161.78C445.948 193.93 463.228 222.65 509.737 227.28C546.347 230.92 579.326 219.65 611.266 216.28C651.705 212.01 692.094 209.55 727.324 227.37C759.323 243.55 773.133 266.87 808.242 263.54C820.172 262.41 833.042 259.89 845.752 254.92C869.492 245.63 892.401 230.58 906.061 214.93C950.92 163.72 949.98 69.1601 1000.94 55.5701C1054.11 41.3801 1086.09 132.86 1135.84 156.48C1161.75 168.78 1187.11 160.98 1227.28 155.03C1236.34 153.69 1246.07 152.39 1256.35 150.88C1299.9 144.41 1329.31 129.6 1350.56 111.93C1368.87 96.7101 1386.07 79.8501 1411.07 73.5401C1438.19 66.6901 1461.91 71.0301 1483.95 89.5301C1507.83 109.46 1521.83 138.56 1531.39 163.59C1550.69 214.09 1555.81 281.61 1639.12 257.01C1689.71 242.07 1713.81 199.73 1754.39 169.73C1791.4 142.37 1837.9 152.31 1921 159.15" stroke="#838383" stroke-width="0.5" stroke-miterlimit="10"/>
<path d="M1.51514 169.64C56.7743 186.01 88.2738 213.8 147.813 211.31C185.862 209.72 207.362 168.55 229.732 148.61C246.181 133.95 286.981 132.28 350.02 156.09C361.759 160.53 372.649 165.56 382.959 170.95C441.418 201.77 461.008 227.55 504.577 233.63C541.237 238.74 572.956 228.45 603.286 225.1C642.605 220.75 681.655 216.32 716.204 228.87C747.364 240.19 762.353 256.89 796.583 250.3C807.833 248.14 820.042 244.87 832.082 239.38C854.392 229.2 876.021 214.18 889.481 198.79C934.931 147.01 939.68 59.9298 988.41 48.8298C1041.4 36.7598 1072.39 126.38 1121.3 153.52C1146.86 167.7 1172.61 163.54 1212.91 158.54C1221.99 157.41 1231.75 156.2 1242.07 154.66C1286.26 147.98 1313.88 130.63 1334.31 111.31C1351.79 94.7798 1368.26 77.2298 1393.71 71.3898C1420.85 65.1598 1444.45 71.1698 1466.1 90.2998C1489.52 110.88 1503.77 140.27 1513.7 164.66C1533.65 213.66 1540.52 279.99 1626.53 250.93C1678.91 233.24 1706.27 194.51 1749.84 167.95C1788.81 144.19 1837.31 153.91 1920.96 161.98" stroke="#838383" stroke-width="0.5" stroke-miterlimit="10"/>
<path d="M1.56494 174.5C48.9342 188.53 83.4137 207.39 145.153 205.21C183.362 203.86 206.432 168.99 230.991 153.56C249.191 142.13 288.7 142.55 348.47 165.64C359.719 169.99 370.279 174.89 380.409 180.13C436.898 209.62 458.778 232.79 499.427 239.98C536.157 246.48 566.586 237.25 595.326 233.92C633.525 229.49 671.214 223.12 705.104 230.36C735.403 236.84 751.613 247.02 784.943 237.05C795.513 233.89 807.062 229.85 818.432 223.83C839.332 212.77 859.662 197.78 872.921 182.64C918.951 130.29 929.42 50.7697 975.91 42.0797C1028.74 32.1997 1058.71 119.91 1106.8 150.55C1132.02 166.62 1158.15 166.09 1198.57 162.04C1207.68 161.13 1217.46 160 1227.83 158.42C1272.66 151.54 1298.5 131.65 1318.1 110.67C1334.75 92.8397 1350.5 74.5797 1376.4 69.2097C1403.57 63.5797 1427.04 71.2797 1448.3 91.0397C1471.26 112.27 1485.75 141.95 1496.06 165.71C1516.65 213.22 1525.27 278.34 1614 244.83C1668.16 224.38 1698.76 189.18 1745.35 166.15C1786.26 145.93 1836.79 155.5 1920.98 164.79" stroke="#838383" stroke-width="0.5" stroke-miterlimit="10"/>
<path d="M1.625 179.35C41.0944 191.04 78.5638 200.95 142.493 199.1C180.862 197.99 205.522 169.45 232.261 158.5C252.221 150.33 290.411 152.81 346.92 175.17C357.669 179.43 367.909 184.19 377.859 189.29C432.388 217.45 456.478 238.33 494.277 246.32C531.087 254.11 560.226 246.04 587.356 242.73C624.445 238.21 660.745 229.95 693.994 231.85C723.414 233.53 740.913 237.27 773.293 223.8C783.203 219.68 794.083 214.83 804.772 208.28C824.252 196.34 843.292 181.37 856.362 166.49C902.981 113.58 919.181 41.6901 963.41 35.3201C1016.1 27.7301 1045.02 113.43 1092.3 147.58C1117.17 165.54 1143.69 168.65 1184.24 165.55C1193.38 164.85 1203.18 163.81 1213.6 162.2C1259.06 155.12 1283.15 132.69 1301.9 110.06C1317.74 90.9401 1332.74 71.9501 1359.1 67.0701C1385.46 62.1901 1409.64 71.4301 1430.51 91.8201C1453.02 113.7 1467.75 143.67 1478.42 166.8C1499.66 212.82 1510.02 276.72 1601.46 238.78C1657.41 215.57 1691.23 183.82 1740.86 164.4C1783.69 147.64 1836.26 157.14 1921 167.65" stroke="#838383" stroke-width="0.5" stroke-miterlimit="10"/>
<path d="M1.67529 184.21C33.2548 193.56 73.7042 194.5 139.823 193C178.353 192.12 204.602 169.96 233.522 163.45C255.241 158.56 292.121 163.09 345.36 184.71C355.62 188.88 365.53 193.51 375.299 198.45C427.859 225.28 453.248 248.92 489.118 252.66C526.917 256.61 553.847 254.82 579.376 251.54C615.346 246.92 650.265 236.83 682.875 233.33C711.424 230.27 730.294 227.62 761.633 210.54C770.903 205.49 781.093 199.8 791.103 192.72C809.183 179.92 826.912 164.95 839.782 150.33C886.991 96.8498 908.931 32.6998 950.881 28.5598C1003.43 23.3798 1031.29 106.96 1077.77 144.6C1102.28 164.45 1129.2 171.19 1169.87 169.04C1179.04 168.55 1188.86 167.6 1199.32 165.96C1245.41 158.68 1267.76 133.72 1285.66 109.42C1300.7 88.9998 1314.93 69.2798 1341.74 64.8998C1368.95 60.4498 1392.17 71.5498 1412.66 92.5698C1434.71 115.1 1449.68 145.36 1460.73 167.86C1482.6 212.39 1494.71 275.07 1588.87 232.69C1646.6 206.71 1683.65 178.34 1736.31 162.61C1781.08 149.24 1835.67 158.73 1920.97 170.47" stroke="#838383" stroke-width="0.5" stroke-miterlimit="10"/>
<path d="M1.73535 189.06C25.415 196.07 68.8643 188.03 137.163 186.89C175.863 186.24 203.662 170.5 234.782 168.4C258.251 166.81 293.821 173.37 343.8 194.25C353.56 198.33 363.15 202.83 372.74 207.62C423.339 233.12 450.748 254.08 483.968 259.01C521.977 264.65 547.487 263.61 571.416 260.36C606.266 255.64 639.845 243.78 671.775 234.83C699.485 227.06 719.824 218.07 749.994 197.3C758.664 191.33 768.133 184.8 777.453 177.18C794.133 163.52 810.553 148.56 823.233 134.19C871.032 80.1501 898.691 23.8101 938.391 21.8201C990.8 19.1901 1017.6 100.51 1063.27 141.64C1087.42 163.38 1114.74 173.75 1155.54 172.55C1164.73 172.28 1174.58 171.4 1185.09 169.73C1231.82 162.25 1252.43 134.75 1269.46 108.79C1283.7 87.0801 1297.19 66.6101 1324.44 62.7401C1351.7 58.8701 1374.77 71.6801 1394.87 93.3301C1416.46 116.51 1431.66 147.06 1443.09 168.93C1465.59 211.98 1479.37 273.27 1576.34 226.62C1635.8 197.79 1676.16 172.8 1731.83 160.84C1778.57 150.8 1835.15 160.35 1921 173.31" stroke="#838383" stroke-width="0.5" stroke-miterlimit="10"/>
<path d="M1.79492 193.91C17.5847 198.59 64.0139 181.55 134.503 180.77C173.362 180.34 202.702 171.03 236.051 173.33C261.251 175.06 295.5 183.72 342.26 203.78C351.519 207.79 360.799 212.14 370.199 216.78C418.828 240.95 448.208 259.33 478.827 265.35C516.977 272.86 541.127 272.38 563.456 269.17C597.186 264.33 629.475 250.75 660.675 236.32C687.584 223.87 709.484 208.54 738.363 184.05C746.473 177.17 755.183 169.8 763.813 161.63C779.113 147.12 794.203 132.15 806.682 118.04C855.062 63.4296 888.501 12.7996 925.9 15.0696C978.04 18.2396 1003.8 94.1396 1048.78 138.67C1072.52 162.36 1100.29 176.3 1141.21 176.05C1150.43 175.99 1160.3 175.2 1170.85 173.5C1218.21 165.81 1237.09 135.79 1253.25 108.16C1266.7 85.1596 1279.41 63.9296 1307.13 60.5696C1334.39 57.2696 1357.36 71.7996 1377.08 94.0796C1398.21 117.91 1413.61 148.78 1425.46 169.98C1448.52 211.59 1464.13 271.65 1563.81 220.52C1625.05 188.95 1668.71 167.16 1727.34 159.04C1776.08 152.28 1834.62 161.94 1921.01 176.11" stroke="#838383" stroke-width="0.5" stroke-miterlimit="10"/>
<path d="M1.84521 198.77C9.73509 201.11 59.1543 174.96 131.833 174.67C170.853 174.4 201.712 171.6 237.312 178.28C264.221 183.33 297.211 193.98 340.7 213.32C349.47 217.24 358.42 221.45 367.639 225.95C414.299 248.79 445.578 264.65 473.668 271.7C511.877 281.29 534.747 281.12 555.476 278C588.076 272.98 619.135 257.73 649.545 237.82C675.705 220.69 699.244 199.03 726.694 170.81C734.274 163.01 742.214 154.81 750.133 146.09C764.073 130.74 777.813 115.76 790.103 101.9C839.072 46.7198 878.091 6.30983 913.371 8.32983C965.38 11.3098 990.09 87.6498 1034.25 135.71C1057.64 161.27 1085.8 178.86 1126.84 179.57C1136.09 179.73 1145.98 179.02 1156.58 177.29C1204.58 169.4 1221.79 136.87 1237.01 107.55C1249.73 83.2798 1261.63 61.2598 1289.78 58.4298C1317.07 55.6898 1339.91 71.9498 1359.24 94.8598C1379.91 119.34 1395.56 150.5 1407.77 171.07C1431.48 211.19 1448.84 270.07 1551.22 214.46C1614.25 180.15 1661.25 161.52 1722.79 157.28C1773.58 153.78 1834.03 163.56 1920.98 178.96" stroke="#838383" stroke-width="0.5" stroke-miterlimit="10"/>
<path d="M1.90527 203.62C1.90527 203.62 54.3045 168.56 129.183 168.56C204.062 168.56 253.971 181.63 365.09 235.11C476.208 288.59 515.507 292 547.517 286.81C613.476 276.11 672.305 213.13 736.484 130.53C800.643 47.9299 859.592 -3.29013 900.861 1.56987C986.23 11.6199 995.64 205.44 1142.33 181.04C1231.19 166.26 1209.24 61.3199 1272.47 56.2499C1328.93 51.7199 1365.75 133.5 1390.12 172.13C1414.48 210.76 1433.58 268.46 1538.68 208.38C1656.69 140.91 1726.89 144.91 1921 181.79" stroke="#D86A8D" stroke-width="2" stroke-miterlimit="10"/>
</svg>
