<svg width="45" height="10" viewBox="0 0 45 10" fill="none" xmlns="http://www.w3.org/2000/svg">
<path d="M4.34869 9.23456C3.7607 9.23456 3.21771 9.12955 2.71372 8.91656C2.20973 8.70356 1.77474 8.40656 1.40275 8.02556C1.03076 7.64456 0.742758 7.19755 0.532763 6.68155C0.322767 6.16555 0.217773 5.60756 0.217773 4.99856C0.217773 4.38956 0.31978 3.82556 0.526776 3.30956C0.730771 2.79356 1.02175 2.34356 1.39074 1.96556C1.76273 1.58756 2.19774 1.29356 2.70173 1.08356C3.20572 0.873555 3.7517 0.768555 4.34869 0.768555C4.94568 0.768555 5.46466 0.867555 5.93865 1.06556C6.41264 1.26356 6.81163 1.52756 7.13863 1.85756C7.46562 2.18756 7.69962 2.55056 7.83762 2.94656L6.38564 3.63955C6.24764 3.23755 5.99865 2.90155 5.64166 2.63755C5.28467 2.37355 4.85568 2.24155 4.34869 2.24155C3.8417 2.24155 3.41271 2.35855 3.03772 2.59555C2.66273 2.82955 2.37172 3.15055 2.16173 3.55855C1.95173 3.96655 1.84674 4.44355 1.84674 4.99555C1.84674 5.54755 1.95173 6.02756 2.16173 6.43856C2.37172 6.84956 2.66273 7.17356 3.03772 7.40756C3.41271 7.64156 3.8477 7.75855 4.34869 7.75855C4.84968 7.75855 5.28467 7.62655 5.64166 7.36256C5.99865 7.09855 6.24464 6.76555 6.38564 6.36055L7.83762 7.05356C7.69962 7.44956 7.46562 7.81256 7.13863 8.14256C6.81163 8.47256 6.41264 8.73656 5.93865 8.93456C5.46466 9.13256 4.93668 9.23155 4.34869 9.23155V9.23456Z" fill="#FAFAFA"/>
<path d="M10.0723 9.10264V0.900635H11.7012V9.10264H10.0723Z" fill="#FAFAFA"/>
<path d="M14.2998 9.10264V0.900635H17.4047C17.9687 0.900635 18.4697 0.999635 18.9017 1.19763C19.3337 1.39563 19.6757 1.68964 19.9247 2.07964C20.1737 2.46964 20.2997 2.94663 20.2997 3.51063C20.2997 4.07463 20.1677 4.54563 19.9037 4.94163C19.6397 5.33763 19.2887 5.63164 18.8477 5.82364L20.7287 9.10264H18.8897L16.8647 5.49363L17.9207 6.10863H15.9288V9.10264H14.2998ZM15.9288 4.68963H17.4257C17.6747 4.68963 17.8907 4.64163 18.0737 4.53963C18.2567 4.44063 18.4007 4.30264 18.5027 4.12564C18.6047 3.94864 18.6557 3.74463 18.6557 3.51063C18.6557 3.27663 18.6047 3.06963 18.5027 2.89563C18.4007 2.71863 18.2567 2.58063 18.0737 2.48163C17.8907 2.38263 17.6747 2.33464 17.4257 2.33464H15.9288V4.68963Z" fill="#FAFAFA"/>
<path d="M26.6055 9.23456C26.0175 9.23456 25.4745 9.12955 24.9706 8.91656C24.4666 8.70356 24.0316 8.40656 23.6596 8.02556C23.2876 7.64456 22.9996 7.19755 22.7896 6.68155C22.5796 6.16855 22.4746 5.60756 22.4746 4.99856C22.4746 4.38956 22.5766 3.82556 22.7836 3.30956C22.9876 2.79356 23.2786 2.34356 23.6476 1.96556C24.0196 1.58756 24.4546 1.29356 24.9586 1.08356C25.4626 0.873555 26.0085 0.768555 26.6055 0.768555C27.2025 0.768555 27.7215 0.867555 28.1955 1.06556C28.6695 1.26356 29.0685 1.52756 29.3955 1.85756C29.7225 2.18756 29.9565 2.55056 30.0945 2.94656L28.6425 3.63955C28.5045 3.23755 28.2555 2.90155 27.8985 2.63755C27.5415 2.37355 27.1125 2.24155 26.6055 2.24155C26.0985 2.24155 25.6695 2.35855 25.2946 2.59555C24.9196 2.82955 24.6286 3.15055 24.4186 3.55855C24.2086 3.96655 24.1036 4.44355 24.1036 4.99555C24.1036 5.54755 24.2086 6.02756 24.4186 6.43856C24.6286 6.84956 24.9196 7.17356 25.2946 7.40756C25.6695 7.64156 26.1045 7.75855 26.6055 7.75855C27.1065 7.75855 27.5415 7.62655 27.8985 7.36256C28.2555 7.09855 28.5015 6.76555 28.6425 6.36055L30.0945 7.05356C29.9565 7.44956 29.7225 7.81256 29.3955 8.14256C29.0685 8.47256 28.6695 8.73656 28.1955 8.93456C27.7215 9.13256 27.1935 9.23155 26.6055 9.23155V9.23456Z" fill="#FAFAFA"/>
<path d="M32.3262 9.10264V0.900635H33.9551V7.67164H37.4441V9.10264H32.3262Z" fill="#FAFAFA"/>
<path d="M39.4385 9.10264V0.900635H44.9314V2.33163H41.0674V4.27864H44.7094V5.69763H41.0674V7.66863H44.9314V9.09964H39.4385V9.10264Z" fill="#FAFAFA"/>
</svg>
