<svg width="389" height="189" viewBox="0 0 389 189" fill="none" xmlns="http://www.w3.org/2000/svg">
<path d="M388.005 67.8831C372.146 69.3359 365.543 63.1 361.699 91.3342C357.89 119.316 358.742 154.809 351.436 151.459C333.013 143.019 345.74 64.0982 328.639 41.6749C319.493 29.6826 310.525 53.3313 299.186 58.2329C292.161 61.2668 280.009 55.8117 271.31 63.1939C263.415 69.8942 258.912 88.2558 253.143 89.496C241.767 91.9419 233.979 39.9603 222.726 54.5814C209.141 72.2265 218.237 147.412 210.145 170.478C205.493 183.735 192.488 194.66 182.501 183.028C173.687 172.765 172.995 134.125 165.324 106.884C149.413 50.3813 126.868 77.4395 111.86 87.6579C96.1871 98.3309 98.2047 54.3541 74.1768 35.1525C55.5326 20.2498 45.0797 30.2755 44.8197 51.8835C44.4589 81.8026 42.8 129.9 35.4331 132.015C27.3969 134.328 26.4697 81.1602 1.01074 62.6751" stroke="#838383" stroke-width="0.247061" stroke-miterlimit="10"/>
<path d="M1.02295 65.0766C24.8916 82.4055 26.4214 131.22 34.895 129.001C42.2983 127.064 44.2594 82.0349 45.0737 54.3295C45.6784 34.3324 55.8773 25.3245 73.8625 39.8715C77.0249 42.436 79.742 45.4353 82.1163 48.6817C97.07 69.1679 97.7573 98.8251 110.82 90.8006C117.974 86.4029 126.558 78.4821 135.257 76.817C144.981 74.9245 154.889 80.6365 163.083 107.63C170.595 132.495 171.591 167.691 180.153 176.491C183.44 179.871 187.036 180.914 190.551 180.187C197.34 178.828 203.778 171.12 206.805 162.508C215.019 139.16 207.007 67.4583 220.205 51.256C231.367 37.554 239.008 88.7401 250.219 88.0385C255.917 87.7222 260.498 71.1642 268.418 64.9333C270.205 63.53 272.136 62.5961 274.142 61.9637C282.025 59.4634 290.492 61.1138 295.914 57.9316C300.8 55.0608 305.245 48.8793 309.667 44.2642C315.075 38.6164 320.055 35.1032 325.048 42.0604C330.508 49.665 332.965 63.0507 334.39 77.5878C337.329 107.729 335.918 144.976 348.902 148.465C356.57 150.456 356.469 116.772 360.786 90.4646C365.104 64.1576 372.031 70.1414 388.001 69.2915" stroke="#838383" stroke-width="0.247061" stroke-miterlimit="10"/>
<path d="M1.03271 67.4731C23.3091 83.6457 25.4436 128.102 34.3565 125.977C41.7941 124.208 44.0354 82.2523 45.3274 56.7655C46.2606 38.3743 56.2217 30.3843 73.5497 44.5755C76.6134 47.0955 79.264 50.0257 81.602 53.2029C96.1587 73.032 97.2148 100.802 109.782 93.9284C116.954 90.0051 125.274 82.8205 133.653 81.1652C143.15 79.2332 152.823 83.9521 160.845 108.357C168.222 130.8 169.488 162.596 177.806 169.934C180.979 172.736 184.421 173.452 187.8 172.494C194.302 170.646 200.48 163.007 203.469 154.518C211.799 130.889 204.882 62.6851 217.687 47.9108C228.767 35.1279 236.254 85.4443 247.298 86.566C252.927 87.1392 257.586 72.4193 265.531 66.6628C267.323 65.3632 269.26 64.4738 271.275 63.8216C279.287 61.2225 287.392 61.5733 292.651 57.6154C297.365 54.0627 301.673 47.6045 306.179 43.192C311.599 37.8851 316.548 35.1625 321.462 42.431C326.829 50.3567 329.337 63.8858 330.836 78.1116C333.906 107.512 332.846 144.279 346.378 145.455C354.405 146.152 355.05 114.227 359.885 89.5801C364.704 65.0025 371.928 70.932 388.011 70.6849" stroke="#838383" stroke-width="0.247061" stroke-miterlimit="10"/>
<path d="M1.04492 69.8695C21.731 84.8858 24.4681 124.974 33.8225 122.958C41.2943 121.347 43.8259 82.4745 45.5835 59.2063C46.8513 42.4161 56.5685 35.4539 73.2374 49.2844C76.2004 51.7599 78.7884 54.6258 81.0882 57.7289C95.2497 76.9008 96.6828 102.827 108.744 97.061C115.942 93.6219 123.992 87.1687 132.046 85.5183C141.318 83.5418 150.745 87.2922 158.606 109.093C165.834 129.134 167.376 157.507 175.458 163.387C178.512 165.611 181.803 166.016 185.046 164.81C191.265 162.498 197.18 154.898 200.129 146.537C208.578 122.632 202.761 57.9414 215.163 44.5704C226.165 32.7115 233.495 82.1978 244.371 85.0934C249.932 86.5757 254.667 73.6742 262.637 68.3871C264.435 67.1913 266.374 66.3464 268.399 65.6793C276.538 62.9814 284.28 62.0376 289.378 57.299C293.921 53.0743 298.091 46.3246 302.685 42.1146C308.115 37.1388 313.033 35.2167 317.868 42.7965C323.145 51.0434 325.701 64.7158 327.273 78.6302C330.476 107.294 329.766 143.513 343.843 142.446C352.23 141.809 353.611 111.702 358.97 88.6955C364.263 65.9659 371.811 71.7175 388.005 72.0782" stroke="#838383" stroke-width="0.247061" stroke-miterlimit="10"/>
<path d="M1.05518 72.271C20.1509 86.1311 23.4907 121.846 33.2845 119.944C40.7906 118.486 43.6144 82.6969 45.8376 61.6523C47.442 46.463 56.9133 40.5236 72.9232 54.0033C75.7873 56.4344 78.3088 59.236 80.5724 62.265C94.3368 80.7797 96.1589 104.908 107.704 100.204C114.934 97.2587 122.708 91.5615 130.438 89.8815C139.488 87.9149 148.661 90.6424 156.365 109.839C163.443 127.474 165.249 152.432 173.108 156.85C176.041 158.495 179.185 158.589 182.291 157.136C188.223 154.359 193.879 146.799 196.789 138.562C205.358 114.375 200.649 53.2226 212.642 41.2401C223.573 30.32 230.74 78.9663 241.445 83.6308C246.937 86.0224 251.749 74.9442 259.744 70.1215C261.548 69.0345 263.491 68.2291 265.527 67.5472C273.795 64.7504 281.172 62.5219 286.108 56.9927C290.48 52.096 294.511 45.0498 299.194 41.0523C304.632 36.4076 309.522 35.286 314.278 43.182C319.463 51.7501 322.069 65.5657 323.715 79.164C327.049 107.092 326.694 142.748 341.316 139.447C350.065 137.47 352.17 109.202 358.063 87.821C363.818 66.9443 371.703 72.518 388.007 73.4816" stroke="#838383" stroke-width="0.247061" stroke-miterlimit="10"/>
<path d="M1.06738 74.6675C18.5708 87.3764 22.5133 118.709 32.7485 116.925C40.2868 115.61 43.4069 82.9095 46.0937 64.0983C48.0347 50.505 57.2601 45.5984 72.6109 58.7173C75.3743 61.099 77.8313 63.8364 80.0585 66.7912C93.4259 84.6488 95.6451 107.033 106.666 103.336C113.935 100.896 121.427 95.9148 128.834 94.2348C137.658 92.2336 146.579 93.9778 154.128 110.57C161.053 125.799 163.115 147.358 170.762 150.298C173.568 151.375 176.569 151.148 179.538 149.448C185.184 146.211 190.58 138.691 193.45 130.577C202.137 106.113 198.545 48.5236 210.121 37.9C220.989 27.9286 227.985 75.7299 238.52 82.1584C243.946 85.4691 248.832 76.1993 256.852 71.8461C258.662 70.8628 260.609 70.0969 262.653 69.4002C271.048 66.4997 278.064 62.9915 282.837 56.6766C287.038 51.1177 290.93 43.7652 295.701 39.9802C301.147 35.6566 306.009 35.3453 310.687 43.5527C315.778 52.442 318.447 66.391 320.156 79.6878C323.647 106.86 323.623 141.967 338.784 136.438C347.897 133.117 350.71 106.692 357.154 86.9366C363.356 67.9178 371.592 73.3087 388.007 74.8751" stroke="#838383" stroke-width="0.247061" stroke-miterlimit="10"/>
<path d="M1.07715 77.064C16.9903 88.6166 21.5334 115.561 32.21 113.906C39.7806 112.73 43.197 83.117 46.3474 66.5393C48.627 54.537 57.6045 50.6631 72.2981 63.4263C74.9628 65.7635 77.3533 68.4367 79.5442 71.3174C92.5166 88.5178 95.1368 109.212 105.628 106.469C112.939 104.557 120.144 100.268 127.227 98.588C135.828 96.5522 144.493 97.3082 151.888 111.307C158.658 124.124 160.968 142.303 168.414 143.751C171.088 144.27 173.951 143.716 176.784 141.764C182.142 138.073 187.28 130.582 190.112 122.597C198.916 97.8517 196.453 43.8541 207.599 34.5646C218.411 25.5568 225.229 72.5082 235.595 80.6909C240.953 84.9206 245.915 77.4593 253.962 73.5755C255.776 72.701 257.729 71.9746 259.783 71.2631C268.307 68.2637 274.958 63.4806 279.568 56.3653C283.597 50.1443 287.35 42.4755 292.207 38.9129C297.662 34.9105 302.495 35.4096 307.095 43.9282C312.093 53.1337 314.814 67.2261 316.594 80.2165C320.218 106.647 320.547 141.181 336.25 133.438C345.723 128.769 349.233 104.191 356.241 86.062C362.876 68.8962 371.477 74.1043 388.005 76.2784" stroke="#838383" stroke-width="0.247061" stroke-miterlimit="10"/>
<path d="M1.08936 79.4653C15.4101 89.8616 20.556 112.408 31.674 110.891C39.2788 109.849 42.9935 83.3194 46.6015 68.985C49.2237 58.5689 57.9493 55.7376 71.9838 68.145C74.5477 70.4377 76.8737 73.0466 79.0283 75.8533C91.6036 92.3965 94.6351 111.455 104.59 109.612C111.947 108.248 118.86 104.626 125.621 102.951C133.996 100.881 142.403 100.648 149.649 112.048C156.262 122.454 158.856 135.187 166.066 137.203C168.591 137.91 171.332 136.284 174.031 134.081C179.103 129.94 183.98 122.479 186.772 114.617C195.695 89.5898 194.365 39.2141 205.077 31.2291C215.839 23.2046 222.474 69.2913 232.671 79.2232C237.96 84.3769 242.999 78.7192 251.069 75.3097C252.889 74.5389 254.847 73.857 256.908 73.1257C265.559 70.0276 271.848 63.9746 276.296 56.0538C280.156 49.1806 283.766 41.1857 288.715 37.8405C294.175 34.1494 298.982 35.4687 303.503 44.2986C308.409 53.8253 311.18 68.061 313.035 80.7401C316.792 106.43 317.473 140.386 333.721 130.429C343.557 124.406 347.745 101.666 355.332 85.1773C362.387 69.8447 371.366 74.8947 388.005 77.6716" stroke="#838383" stroke-width="0.247061" stroke-miterlimit="10"/>
<path d="M1.09961 81.8617C13.8301 91.1018 19.5766 109.251 31.136 107.867C38.7731 106.958 42.7942 83.517 46.8556 71.4209C49.8226 62.591 58.3042 60.7281 71.6696 72.8489C74.1367 75.0873 76.3961 77.637 78.5125 80.3744C90.6927 96.2604 94.1757 110.452 103.55 112.739C110.929 114.538 117.577 108.969 124.015 107.304C132.166 105.194 140.307 103.979 147.408 112.784C153.857 120.779 156.641 132.302 163.718 130.656C166.122 130.098 168.716 128.853 171.278 126.397C176.063 121.807 180.681 114.37 183.434 106.637C192.476 81.333 192.287 34.6088 202.558 27.8937C213.275 20.8821 219.721 66.0844 229.749 77.7555C234.971 83.8332 240.082 79.9791 248.179 77.0391C250.005 76.3769 251.966 75.7346 254.038 74.9885C262.818 71.7915 268.746 64.4736 273.029 55.7424C276.72 48.2219 280.187 39.891 285.226 36.7731C290.692 33.3884 295.473 35.5328 299.915 44.6741C304.729 54.5219 307.55 68.9009 309.477 81.2688C313.367 106.222 314.399 139.585 331.191 127.43C341.388 120.047 346.246 99.1263 354.425 84.3027C361.885 70.7835 371.257 75.6951 388.007 79.0748" stroke="#838383" stroke-width="0.247061" stroke-miterlimit="10"/>
<path d="M1.11133 84.2582C12.2495 92.347 18.5986 106.079 30.5995 104.848C38.2688 104.063 42.6023 83.7196 47.1112 73.8669C50.4269 66.623 58.6505 65.7979 71.3568 77.5629C73.7231 79.7568 75.9181 82.2422 77.9961 84.9055C89.7793 100.134 93.7279 112.873 102.51 115.877C109.899 118.402 116.292 113.318 122.406 111.662C130.331 109.513 138.202 107.324 145.166 113.525C151.446 119.119 154.468 127.37 161.367 124.114C163.635 123.047 166.096 121.431 168.522 118.718C173.019 113.688 177.379 106.266 180.092 98.6619C189.253 73.0763 190.21 30.0481 200.032 24.5634C210.713 18.5993 216.959 62.8825 226.817 76.293C231.969 83.2996 237.16 81.2441 245.282 78.7735C247.113 78.2151 249.08 77.6172 251.16 76.8563C260.067 73.5556 265.636 64.9825 269.754 55.4361C273.277 47.2683 276.597 38.5964 281.726 35.7108C287.197 32.6324 291.953 35.6021 296.317 45.0546C301.038 55.2236 303.91 69.7459 305.911 81.7975C309.933 106.009 311.317 138.785 328.653 124.425C339.211 115.684 344.726 96.547 353.508 83.4232C361.362 71.6828 371.138 76.4857 387.998 80.4733" stroke="#838383" stroke-width="0.247061" stroke-miterlimit="10"/>
<path d="M1.12158 86.6595C10.6694 93.5921 17.6192 102.911 30.0635 101.834C37.7651 101.167 42.415 83.9369 47.3653 76.3126C51.0337 70.6648 58.9973 70.8723 71.0445 82.2816C73.3121 84.431 75.4405 86.8522 77.4823 89.4414C88.8684 104.013 93.2785 115.462 101.472 119.015C108.875 122.226 115.009 117.666 120.801 116.02C128.501 113.831 136.098 110.684 142.929 114.261C149.036 117.463 152.303 122.493 159.021 117.567C161.152 116.005 163.48 114.009 165.771 111.035C169.984 105.57 174.082 98.1627 176.754 90.6817C186.032 64.8144 188.142 25.5218 197.513 21.2279C208.161 16.346 214.202 59.6854 223.895 74.8253C228.978 82.7658 234.245 82.504 242.392 80.5028C244.228 80.0531 246.2 79.4948 248.29 78.714C257.326 75.3145 262.536 65.4864 266.487 55.1197C269.843 46.3095 273.017 37.2869 278.237 34.6334C283.714 31.8515 288.444 35.6563 292.73 45.4201C297.357 55.9103 300.278 70.5759 302.356 82.3162C306.506 105.792 308.244 137.969 326.128 121.411C337.044 111.306 343.212 93.9132 352.603 82.5336C360.849 72.5425 371.033 77.2712 388.003 81.8616" stroke="#838383" stroke-width="0.247061" stroke-miterlimit="10"/>
<path d="M1.13379 89.0561C9.08934 94.8324 16.6418 99.7291 29.5275 98.815C37.2613 98.2665 42.2317 84.1643 47.6214 78.7536C51.6446 74.7167 59.3421 75.9421 70.7322 86.9906C72.899 89.0956 74.963 91.4476 76.9685 93.9676C87.9595 107.882 92.8151 118.199 100.434 122.147C107.853 125.997 113.727 122.009 119.195 120.374C126.671 118.14 133.988 114.059 140.689 114.997C146.619 115.828 150.147 117.676 156.673 111.02C158.671 108.984 160.864 106.588 163.018 103.351C166.945 97.4512 170.782 90.0542 173.417 82.7017C182.813 56.5577 186.079 21.0353 194.994 17.8877C205.614 14.1373 211.443 56.4836 220.973 73.3578C225.985 82.2323 231.331 83.769 239.504 82.2372C241.346 81.8913 243.321 81.3774 245.422 80.5819C254.585 77.0835 259.442 66.0004 263.221 54.8184C266.414 45.3708 269.438 35.9874 274.751 33.5761C280.064 31.1648 284.937 35.7305 289.144 45.8056C293.681 56.617 296.65 71.4258 298.801 82.8549C303.082 105.594 305.17 137.169 323.601 118.422C334.878 106.953 341.694 91.2648 351.698 81.669C360.331 73.3875 370.927 78.0816 388.009 83.2749" stroke="#838383" stroke-width="0.247061" stroke-miterlimit="10"/>
<path d="M1.14355 91.4579C7.5088 96.0779 15.6619 96.5424 28.989 95.8012C36.7551 95.3664 42.046 84.4166 47.8751 81.1999C52.253 78.7837 59.6865 81.022 70.4175 91.7049C72.4855 93.7654 74.4829 96.0532 76.4522 98.4942C87.0461 111.751 92.1637 123.433 99.3937 125.281C107.013 127.232 112.441 126.348 117.586 124.727C124.837 122.444 131.875 117.459 138.448 115.729C144.202 114.217 148.006 112.908 154.323 104.468C156.191 101.973 158.245 99.1612 160.263 95.6629C163.907 89.3381 167.48 81.9411 170.074 74.717C179.59 48.2914 184.012 16.5935 192.468 14.5478C203.06 11.9883 208.675 53.287 218.044 71.8857C222.984 81.694 228.41 85.0244 236.607 83.962C238.455 83.7199 240.435 83.2505 242.543 82.4402C251.833 78.843 256.338 66.5097 259.946 54.5025C262.977 44.4125 265.847 34.6685 271.251 32.5042C276.736 30.3054 281.416 35.7901 285.546 46.1766C289.99 57.3091 293.008 72.2612 295.235 83.379C299.643 105.382 302.084 136.354 321.063 115.413C332.699 102.576 340.166 88.5574 350.781 80.7848C359.804 74.1784 370.807 78.8677 388 84.6686" stroke="#838383" stroke-width="0.247061" stroke-miterlimit="10"/>
<path d="M1.15576 93.8542C5.92869 97.318 14.6864 93.3453 28.4529 92.782C36.2533 92.4608 41.8566 84.6833 48.1292 83.6457C52.8598 82.86 60.0292 86.1015 70.1032 96.4187C72.0704 98.4347 74.0033 100.658 75.9363 103.025C86.1352 115.625 91.6599 125.982 98.3557 128.418C106.017 131.205 111.159 130.691 115.982 129.085C123.006 126.753 129.775 120.893 136.211 116.47C141.796 112.631 145.896 108.189 151.977 97.9258C153.724 94.9759 155.633 91.7493 157.511 87.9841C160.873 81.2344 164.183 73.8423 166.739 66.7418C176.373 40.0394 181.948 12.2006 189.95 11.2173C200.514 9.91776 205.916 50.0997 215.121 70.423C219.989 81.1652 225.495 86.2892 233.719 85.6963C235.571 85.5629 237.557 85.128 239.675 84.3028C249.094 80.6068 253.248 67.0185 256.681 54.1911C259.551 43.4637 262.27 33.349 267.764 31.4368C273.259 29.5245 277.909 35.8542 281.96 46.5519C286.312 58.0057 289.376 73.1011 291.679 83.9075C296.214 105.179 298.992 135.464 318.537 112.413C330.522 98.1679 338.657 85.8198 349.878 79.9101C359.299 74.9491 370.703 79.668 388.007 86.0718" stroke="#838383" stroke-width="0.247061" stroke-miterlimit="10"/>
<path d="M1.16797 96.2508C4.35059 98.5633 13.709 90.1434 27.9169 89.758C35.7495 89.5456 41.6633 84.9453 48.3853 86.0818C53.4646 86.9366 60.368 91.2157 69.7929 101.128C71.6593 103.109 73.5298 105.259 75.4245 107.551C85.2263 119.494 91.1481 128.576 97.3198 131.551C105.009 135.262 109.877 135.025 114.378 133.438C121.176 131.047 127.685 124.337 133.973 117.206C139.397 111.055 143.812 103.48 149.633 91.3787C151.267 87.9792 153.023 84.3375 154.762 80.3005C157.846 73.1308 160.888 65.7338 163.403 58.7618C173.155 31.7778 179.895 6.76039 187.433 7.88204C197.942 9.44841 203.134 46.9523 212.201 68.9555C216.986 80.6612 222.583 87.5493 230.831 87.4258C232.689 87.3961 234.679 87.0058 236.805 86.1658C246.351 82.366 250.156 67.5324 253.413 53.8798C256.124 42.515 258.688 32.0248 264.275 30.3646C269.77 28.734 274.4 35.9136 278.375 46.9226C282.634 58.6975 285.738 73.9511 288.126 84.4264C292.774 104.987 295.92 134.664 316.012 109.399C328.355 93.7999 337.155 83.033 348.973 79.0208C358.797 75.6805 370.596 80.4537 388.011 87.4554" stroke="#838383" stroke-width="0.247061" stroke-miterlimit="10"/>
<path d="M1.17822 98.652C2.76853 99.8082 12.7296 86.887 27.3789 86.7437C35.2438 86.6103 41.4639 85.2267 48.6394 88.5274C54.0634 91.0228 60.7128 96.2852 69.4786 105.841C71.2463 107.778 73.0503 109.859 74.9086 112.082C84.3134 123.368 90.6182 131.205 96.28 134.688C103.982 139.427 108.591 139.343 112.77 137.801C119.34 135.321 125.601 127.785 131.73 117.947C137.003 109.483 141.748 98.7805 147.281 84.8364C148.808 80.9822 150.409 76.9304 152.005 72.6217C154.815 65.0369 157.584 57.635 160.061 50.7864C169.932 23.5208 177.797 3.55332 184.908 4.55145C195.391 6.02393 200.371 43.7452 209.272 67.4927C213.987 80.1224 219.663 88.814 227.935 89.1649C229.799 89.2439 231.792 88.8931 233.929 88.0383C243.604 84.1396 247.073 68.0659 250.14 53.5782C252.704 41.5859 255.103 30.7053 260.779 29.307C266.279 27.9531 270.883 35.9875 274.779 47.3078C278.945 59.4039 282.1 74.8007 284.561 84.9648C289.34 104.789 292.839 133.883 313.474 106.405C326.179 89.4515 335.652 80.246 348.056 78.1509C358.293 76.4215 370.477 81.254 388.003 88.8635" stroke="#838383" stroke-width="0.247061" stroke-miterlimit="10"/>
<path d="M1.18994 101.049C1.18994 101.049 11.7517 83.7247 26.8444 83.7247C41.9372 83.7247 51.997 90.1829 74.3943 116.608C96.7916 143.034 104.713 144.719 111.165 142.155C124.46 136.867 136.317 105.748 149.253 64.9332C162.185 24.1188 174.067 -1.19014 182.386 1.21129C199.593 6.17722 201.49 101.948 231.056 89.8913C248.967 82.5882 244.543 30.7351 257.287 28.2299C268.669 25.9915 276.091 66.4008 281.003 85.4887C285.913 104.577 289.762 133.087 310.946 103.401C334.732 70.0622 348.882 72.0387 388.007 90.2619" stroke="#D86A8D" stroke-width="0.988244" stroke-miterlimit="10"/>
</svg>
