<svg width="23" height="6" viewBox="0 0 23 6" fill="none" xmlns="http://www.w3.org/2000/svg">
<path d="M3.06135 5.91498C2.65313 5.91498 2.27614 5.84257 1.92623 5.69568C1.57633 5.54879 1.27433 5.34397 1.01606 5.08123C0.757796 4.81848 0.557843 4.51022 0.412049 4.15438C0.266254 3.8006 0.193359 3.41373 0.193359 2.99375C0.193359 2.57377 0.26418 2.18483 0.407892 1.82898C0.549521 1.47314 0.749456 1.16281 1.00772 0.902135C1.26599 0.641459 1.568 0.438711 1.91791 0.293891C2.26782 0.14907 2.64688 0.0766602 3.06135 0.0766602C3.47583 0.0766602 3.83614 0.144933 4.16522 0.281477C4.4943 0.418022 4.77131 0.600082 4.99834 0.827656C5.22536 1.05523 5.38782 1.30556 5.48363 1.57865L4.47556 2.05656C4.37975 1.77933 4.20688 1.54762 3.95903 1.36556C3.71118 1.1835 3.41334 1.09247 3.06135 1.09247C2.70936 1.09247 2.41153 1.17316 2.15118 1.33453C1.89083 1.4959 1.68879 1.71727 1.543 1.99863C1.3972 2.27999 1.32431 2.60894 1.32431 2.98961C1.32431 3.37028 1.3972 3.7013 1.543 3.98473C1.68879 4.26817 1.89083 4.4916 2.15118 4.65298C2.41153 4.81435 2.71353 4.89503 3.06135 4.89503C3.40918 4.89503 3.71118 4.804 3.95903 4.62194C4.20688 4.43988 4.37767 4.21024 4.47556 3.93094L5.48363 4.40885C5.38782 4.68194 5.22536 4.93227 4.99834 5.15984C4.77131 5.38742 4.4943 5.56948 4.16522 5.70602C3.83614 5.84257 3.46749 5.91084 3.06135 5.91084V5.91498Z" fill="#44464D"/>
<path d="M6.60059 5.82374L8.54174 0.16748H10.033L11.9742 5.82374H10.737L10.3475 4.64656H8.22307L7.82526 5.82374H6.60267H6.60059ZM8.5334 3.66799H10.0309L9.12908 0.943303H9.4415L8.53133 3.66799H8.5334Z" fill="#44464D"/>
<path d="M13.3398 5.82374V0.16748H15.4955C15.8871 0.16748 16.2349 0.235753 16.5348 0.372297C16.8348 0.508842 17.0722 0.711591 17.2451 0.980542C17.4179 1.24949 17.5054 1.57844 17.5054 1.96739C17.5054 2.35633 17.4138 2.68114 17.2305 2.95423C17.0472 3.22732 16.8014 3.43007 16.4973 3.56248L17.8032 5.82374H16.5265L15.1206 3.33283L15.8538 3.75695H14.4708V5.82167H13.3398V5.82374ZM14.4708 2.78045H15.5101C15.683 2.78045 15.8329 2.74735 15.96 2.67701C16.087 2.60873 16.187 2.51357 16.2578 2.3915C16.3286 2.26944 16.364 2.12876 16.364 1.96739C16.364 1.80602 16.3286 1.66327 16.2578 1.54327C16.187 1.42121 16.087 1.32604 15.96 1.25777C15.8329 1.1895 15.683 1.15433 15.5101 1.15433H14.4708V2.77838V2.78045Z" fill="#44464D"/>
<path d="M19.1865 5.82374V0.16748H23.0001V1.15433H20.3175V2.49702H22.846V3.47559H20.3175V4.83483H23.0001V5.82167H19.1865V5.82374Z" fill="#44464D"/>
</svg>
