<svg width="33" height="32" viewBox="0 0 33 32" fill="none" xmlns="http://www.w3.org/2000/svg">
<path d="M29.8589 0.0251465H2.63392C1.33196 0.0251465 0.275391 1.05687 0.275391 2.32732V29.6699C0.275391 30.9421 1.33196 31.9751 2.63392 31.9751H29.8589C31.1617 31.9751 32.2254 30.9421 32.2254 29.6699V2.32732C32.2254 1.05687 31.1617 0.0251465 29.8589 0.0251465ZM9.75123 27.251H5.0102V12.0042H9.75123V27.251ZM7.38072 9.91944C5.86176 9.91944 4.6339 8.68848 4.6339 7.17085C4.6339 5.65545 5.86176 4.42448 7.38072 4.42448C8.89612 4.42448 10.1271 5.65545 10.1271 7.17085C10.1271 8.68848 8.89612 9.91944 7.38072 9.91944ZM27.4995 27.251H22.766V19.8368C22.766 18.068 22.7314 15.7938 20.3027 15.7938C17.8364 15.7938 17.4605 17.7201 17.4605 19.7086V27.2514H12.7235V12.0042H17.2697V14.0863H17.3345C17.9673 12.8881 19.5133 11.6239 21.819 11.6239C26.6142 11.6239 27.4999 14.7807 27.4999 18.8876L27.4995 27.251Z" fill="#44464D"/>
</svg>
