<svg width="45" height="44" viewBox="0 0 45 44" fill="none" xmlns="http://www.w3.org/2000/svg">
<path d="M30.8894 19.8213V16.0814C30.8894 15.1415 31.0261 14.4904 31.3833 14.066C31.7244 13.661 32.3682 13.3486 33.6803 13.3486H33.6805L37.1968 13.3468L37.6966 13.3465V12.8468V6.90739V6.46972L37.2628 6.41179C36.6289 6.32714 34.5195 6.14583 32.0724 6.14583C29.4361 6.14583 27.1639 6.952 25.5493 8.54765C23.9332 10.1448 23.0315 12.4782 23.0315 15.4232V19.8207H17.7975H17.2975V20.3207V26.961V27.461H17.7975H23.0315V43.5H2.45859C1.39326 43.5 0.530029 42.6366 0.530029 41.5721V2.42856C0.530029 1.36331 1.39334 0.5 2.45859 0.5H41.6015C42.6667 0.5 43.53 1.36331 43.53 2.42856V41.5714C43.53 42.6368 42.6666 43.5 41.6021 43.5H30.8894V27.4616H36.1088H36.5485L36.6047 27.0255L37.4609 20.3852L37.5336 19.8213H36.965H30.8894Z" fill="#44464D" stroke="#44464D"/>
</svg>
