<svg width="49" height="48" viewBox="0 0 49 48" fill="none" xmlns="http://www.w3.org/2000/svg">
<path d="M24.03 0C10.7752 0 0.0300293 10.7451 0.0300293 24C0.0300293 37.2549 10.7752 48 24.03 48C37.2849 48 48.03 37.2549 48.03 24C48.03 10.7451 37.2849 0 24.03 0ZM34.4752 34.8306C34.17 35.3527 33.6208 35.6439 33.0567 35.644C32.7754 35.644 32.4905 35.5716 32.2301 35.4195C27.9173 32.899 22.9349 32.4939 19.5138 32.598C15.7242 32.7132 12.9451 33.4613 12.9175 33.469C12.0439 33.7076 11.1412 33.1935 10.9016 32.3201C10.662 31.4467 11.1743 30.5445 12.0474 30.304C12.1727 30.2695 15.1632 29.4573 19.3219 29.3201C21.7714 29.2393 24.1296 29.41 26.33 29.8274C29.1169 30.3561 31.6591 31.2841 33.8862 32.5856C34.6689 33.0429 34.9324 34.0481 34.4752 34.8306ZM37.5263 28.4936C37.1649 29.1121 36.5143 29.4569 35.8461 29.457C35.5129 29.457 35.1754 29.3714 34.867 29.1911C29.7585 26.2055 23.8565 25.7259 19.8043 25.8491C15.3153 25.9857 12.0234 26.8718 11.9907 26.8808C10.9562 27.1631 9.88668 26.5546 9.60282 25.52C9.31908 24.4853 9.92596 23.4168 10.9601 23.1318C11.1085 23.091 14.6509 22.1287 19.5769 21.9663C22.4786 21.8707 25.2719 22.0728 27.8782 22.5672C31.1794 23.1936 34.1907 24.2927 36.8287 25.8344C37.7558 26.376 38.0681 27.5667 37.5263 28.4936ZM39.402 22.7317C38.9933 22.7317 38.5794 22.6266 38.201 22.4055C26.0557 15.3076 10.3011 19.5273 10.1434 19.5709C8.87359 19.9207 7.56094 19.175 7.21119 17.9053C6.86134 16.6357 7.60707 15.3229 8.87674 14.9731C9.05868 14.923 13.4037 13.7428 19.446 13.5435C23.0055 13.4264 26.4315 13.6742 29.6285 14.2806C33.6778 15.0488 37.3716 16.397 40.6073 18.2881C41.7443 18.9525 42.1274 20.4129 41.4629 21.5499C41.0196 22.3086 40.2217 22.7317 39.402 22.7317Z" fill="#44464D"/>
</svg>
