<svg width="36" height="36" viewBox="0 0 36 36" fill="none" xmlns="http://www.w3.org/2000/svg">
<path d="M17.7496 0.693848C8.19162 0.693848 0.443359 8.44211 0.443359 18.0001C0.443359 27.5581 8.19162 35.3063 17.7496 35.3063C27.3076 35.3063 35.0559 27.5581 35.0559 18.0001C35.0559 8.44211 27.3076 0.693848 17.7496 0.693848ZM25.2815 25.8099C25.0615 26.1865 24.6654 26.3964 24.2587 26.3965C24.0558 26.3965 23.8504 26.3443 23.6626 26.2346C20.5527 24.4171 16.9599 24.125 14.493 24.2C11.7603 24.2832 9.75636 24.8226 9.73645 24.8281C9.10652 25.0002 8.45555 24.6295 8.28275 23.9997C8.11003 23.3699 8.47943 22.7193 9.10903 22.5459C9.19935 22.521 11.3558 21.9353 14.3546 21.8364C16.1209 21.7781 17.8214 21.9012 19.4081 22.2022C21.4177 22.5834 23.2509 23.2526 24.8569 24.1911C25.4212 24.5209 25.6113 25.2457 25.2815 25.8099ZM27.4817 21.2404C27.2211 21.6864 26.752 21.9351 26.2701 21.9351C26.0299 21.9351 25.7865 21.8734 25.5641 21.7434C21.8803 19.5905 17.6245 19.2447 14.7024 19.3334C11.4655 19.4319 9.09171 20.0709 9.06816 20.0774C8.32217 20.281 7.55093 19.8422 7.34624 19.0961C7.14163 18.3501 7.57926 17.5796 8.325 17.3741C8.432 17.3446 10.9863 16.6507 14.5385 16.5336C16.6309 16.4647 18.6451 16.6104 20.5245 16.9669C22.905 17.4186 25.0764 18.2112 26.9787 19.3228C27.6472 19.7134 27.8724 20.572 27.4817 21.2404ZM28.8342 17.0855C28.5395 17.0855 28.241 17.0098 27.9682 16.8503C19.2103 11.7321 7.84974 14.7749 7.73603 14.8063C6.8204 15.0586 5.87385 14.5208 5.62165 13.6053C5.36938 12.6897 5.90711 11.7431 6.82266 11.4909C6.95386 11.4547 10.0871 10.6037 14.4441 10.46C17.0108 10.3755 19.4813 10.5542 21.7866 10.9915C24.7066 11.5454 27.3702 12.5176 29.7034 13.8813C30.5233 14.3604 30.7995 15.4135 30.3204 16.2333C30.0007 16.7805 29.4253 17.0855 28.8342 17.0855Z" fill="#44464D"/>
</svg>
