<svg width="45" height="44" viewBox="0 0 45 44" fill="none" xmlns="http://www.w3.org/2000/svg">
<path d="M40.771 0H3.27809C1.48509 0 0.0300293 1.42083 0.0300293 3.17044V40.8253C0.0300293 42.5773 1.48509 44 3.27809 44H40.771C42.5652 44 44.03 42.5773 44.03 40.8253V3.17044C44.03 1.42083 42.5652 0 40.771 0ZM13.0797 37.4941H6.55058V16.4969H13.0797V37.4941ZM9.81514 13.6259C7.72331 13.6259 6.03236 11.9307 6.03236 9.84072C6.03236 7.75378 7.72331 6.05856 9.81514 6.05856C11.9021 6.05856 13.5973 7.75378 13.5973 9.84072C13.5973 11.9307 11.9021 13.6259 9.81514 13.6259ZM37.5217 37.4941H31.003V27.2837C31.003 24.8478 30.9553 21.7158 27.6107 21.7158C24.2141 21.7158 23.6965 24.3687 23.6965 27.1071V37.4947H17.1729V16.4969H23.4338V19.3643H23.523C24.3944 17.7143 26.5235 15.9732 29.6989 15.9732C36.3025 15.9732 37.5223 20.3207 37.5223 25.9765L37.5217 37.4941Z" fill="#44464D"/>
</svg>
