<svg width="122" height="122" viewBox="0 0 122 122" fill="none" xmlns="http://www.w3.org/2000/svg">
<path d="M61.0007 45.7503C70.8267 45.7503 78.7923 37.7847 78.7923 27.9587C78.7923 18.1326 70.8267 10.167 61.0007 10.167C51.1746 10.167 43.209 18.1326 43.209 27.9587C43.209 37.7847 51.1746 45.7503 61.0007 45.7503Z" stroke="black" stroke-width="5" stroke-linecap="round" stroke-linejoin="round"/>
<path d="M10.167 104.209C10.167 81.7479 30.6503 63.542 55.917 63.542M80.9524 71.167C75.5488 71.167 71.167 76.2732 71.167 82.5689C71.167 93.9734 82.7316 104.338 88.9587 106.75C95.1857 104.338 106.75 93.9734 106.75 82.5689C106.75 76.2757 102.368 71.167 96.9649 71.167C93.6557 71.167 90.7302 73.0809 88.9587 76.0114C87.1871 73.0809 84.2617 71.167 80.9524 71.167Z" stroke="black" stroke-width="5" stroke-linecap="round" stroke-linejoin="round"/>
</svg>
