<svg width="33" height="32" viewBox="0 0 33 32" fill="none" xmlns="http://www.w3.org/2000/svg">
<path d="M30.9619 0.0251465H2.53885C1.56482 0.0251465 0.775391 0.814578 0.775391 1.78861V30.2121C0.775391 31.1857 1.56482 31.9751 2.53885 31.9751H17.8407V19.6025H13.677V14.7807H17.8407V11.2245C17.8407 7.09763 20.3612 4.85093 24.0425 4.85093C25.806 4.85093 27.3214 4.98183 27.7634 5.04085V9.35366L25.21 9.35499C23.2078 9.35499 22.8204 10.3064 22.8204 11.7024V14.7812H27.5952L26.9735 19.603H22.8204V31.9751H30.9624C31.936 31.9751 32.7254 31.1857 32.7254 30.2117V1.78861C32.7254 0.814578 31.936 0.0251465 30.9619 0.0251465Z" fill="#44464D"/>
</svg>
