<svg width="33" height="33" viewBox="0 0 33 33" fill="none" xmlns="http://www.w3.org/2000/svg">
<path d="M16.744 0.188477C12.4054 0.188477 11.8623 0.207205 10.158 0.282117C8.45377 0.363271 7.29888 0.631706 6.28132 1.02499C5.23255 1.43077 4.33985 1.98012 3.44715 2.86658C2.55445 3.75304 2.01133 4.64574 1.60556 5.70076C1.21227 6.71831 0.943838 7.87945 0.862683 9.57746C0.781528 11.2817 0.769043 11.8248 0.769043 16.1635C0.769043 20.5021 0.787771 21.0452 0.862683 22.7495C0.943838 24.4475 1.21227 25.6086 1.60556 26.6262C2.01133 27.675 2.56069 28.5677 3.44715 29.4604C4.33361 30.3468 5.22631 30.8962 6.28132 31.302C7.29888 31.6952 8.46002 31.9637 10.158 32.0448C11.8623 32.126 12.4054 32.1385 16.744 32.1385C21.0827 32.1385 21.6258 32.1197 23.3301 32.0448C25.0281 31.9637 26.1892 31.6952 27.2068 31.302C28.2555 30.8962 29.1482 30.3468 30.0409 29.4604C30.9274 28.5739 31.4768 27.6812 31.8825 26.6262C32.2758 25.6086 32.5443 24.4475 32.6254 22.7495C32.7066 21.0452 32.719 20.5021 32.719 16.1635C32.719 11.8248 32.7003 11.2817 32.6254 9.57746C32.5443 7.87945 32.2758 6.71831 31.8825 5.70076C31.4768 4.65199 30.9274 3.75929 30.0409 2.86658C29.1545 1.98012 28.2618 1.43077 27.2068 1.02499C26.1892 0.631706 25.0281 0.363271 23.3301 0.282117C21.6258 0.207205 21.0827 0.188477 16.744 0.188477ZM16.744 3.06635C21.0078 3.06635 21.5197 3.08508 23.2052 3.15999C24.7659 3.2349 25.6086 3.49085 26.1705 3.71559C26.9196 4.00275 27.4502 4.35234 28.0121 4.90794C28.5677 5.46978 28.9173 6.00041 29.2044 6.74953C29.4229 7.31137 29.6851 8.15413 29.7538 9.7148C29.8287 11.4003 29.8474 11.906 29.8474 16.176C29.8474 20.4459 29.8287 20.9516 29.7475 22.6371C29.6664 24.1978 29.4042 25.0406 29.1857 25.6024C28.886 26.3515 28.5489 26.8821 27.9871 27.444C27.4315 27.9996 26.8884 28.3492 26.1518 28.6363C25.5899 28.8548 24.7347 29.117 23.174 29.1857C21.476 29.2606 20.9766 29.2793 16.7003 29.2793C12.4241 29.2793 11.9247 29.2606 10.2267 29.1795C8.66602 29.0983 7.81078 28.8361 7.24894 28.6176C6.49357 28.318 5.96919 27.9809 5.41359 27.419C4.85175 26.8634 4.49592 26.3203 4.215 25.5837C3.9965 25.0218 3.73431 24.1666 3.65316 22.6059C3.59073 20.9266 3.572 20.4085 3.572 16.1572C3.572 11.8997 3.59073 11.3816 3.65316 9.68358C3.73431 8.12291 3.99026 7.26767 4.215 6.70583C4.49592 5.94422 4.85175 5.42608 5.41359 4.86424C5.96919 4.30864 6.49357 3.94657 7.24894 3.66565C7.81078 3.44715 8.6473 3.18496 10.208 3.10381C11.906 3.04138 12.4054 3.02265 16.6816 3.02265L16.744 3.06635ZM16.744 7.9606C12.2119 7.9606 8.53493 11.6375 8.53493 16.1697C8.53493 20.7019 12.2119 24.3788 16.744 24.3788C21.2762 24.3788 24.9532 20.7019 24.9532 16.1697C24.9532 11.6375 21.2762 7.9606 16.744 7.9606ZM16.744 21.4947C13.8037 21.4947 11.419 19.11 11.419 16.1697C11.419 13.2294 13.8037 10.8447 16.744 10.8447C19.6843 10.8447 22.069 13.2294 22.069 16.1697C22.069 19.11 19.6843 21.4947 16.744 21.4947ZM27.1943 7.64223C27.1943 8.70348 26.3328 9.55873 25.2778 9.55873C24.2165 9.55873 23.3613 8.69724 23.3613 7.64223C23.3613 6.58722 24.2228 5.72573 25.2778 5.72573C26.3328 5.71949 27.1943 6.58097 27.1943 7.64223Z" fill="#44464D"/>
</svg>
