<svg width="33" height="33" viewBox="0 0 33 33" fill="none" xmlns="http://www.w3.org/2000/svg">
<path d="M30.9058 0.188477H2.4827C1.50867 0.188477 0.719238 0.977908 0.719238 1.95194V30.3755C0.719238 31.349 1.50867 32.1385 2.4827 32.1385H17.7845V19.7658H13.6208V14.9441H17.7845V11.3878C17.7845 7.26096 20.305 5.01426 23.9864 5.01426C25.7498 5.01426 27.2653 5.14516 27.7072 5.20418V9.51699L25.1539 9.51832C23.1517 9.51832 22.7643 10.4697 22.7643 11.8658V14.9445H27.539L26.9174 19.7663H22.7643V32.1385H30.9062C31.8798 32.1385 32.6692 31.349 32.6692 30.375V1.95194C32.6692 0.977908 31.8798 0.188477 30.9058 0.188477Z" fill="#44464D"/>
</svg>
