<svg width="33" height="32" viewBox="0 0 33 32" fill="none" xmlns="http://www.w3.org/2000/svg">
<path d="M16.2504 0.0251465C11.9117 0.0251465 11.3686 0.0438745 9.66437 0.118787C7.96012 0.199941 6.80523 0.468376 5.78767 0.861664C4.7389 1.26744 3.8462 1.81679 2.9535 2.70325C2.06079 3.58971 1.51768 4.48241 1.11191 5.53743C0.71862 6.55498 0.450185 7.71612 0.369031 9.41413C0.287876 11.1184 0.275391 11.6615 0.275391 16.0001C0.275391 20.3388 0.294119 20.8819 0.369031 22.5862C0.450185 24.2842 0.71862 25.4453 1.11191 26.4629C1.51768 27.5116 2.06704 28.4043 2.9535 29.297C3.83996 30.1835 4.73266 30.7329 5.78767 31.1386C6.80523 31.5319 7.96636 31.8004 9.66437 31.8815C11.3686 31.9627 11.9117 31.9751 16.2504 31.9751C20.589 31.9751 21.1322 31.9564 22.8364 31.8815C24.5344 31.8004 25.6956 31.5319 26.7131 31.1386C27.7619 30.7329 28.6546 30.1835 29.5473 29.297C30.4337 28.4106 30.9831 27.5179 31.3889 26.4629C31.7822 25.4453 32.0506 24.2842 32.1318 22.5862C32.2129 20.8819 32.2254 20.3388 32.2254 16.0001C32.2254 11.6615 32.2067 11.1184 32.1318 9.41413C32.0506 7.71612 31.7822 6.55498 31.3889 5.53743C30.9831 4.48866 30.4337 3.59596 29.5473 2.70325C28.6608 1.81679 27.7681 1.26744 26.7131 0.861664C25.6956 0.468376 24.5344 0.199941 22.8364 0.118787C21.1322 0.0438745 20.589 0.0251465 16.2504 0.0251465ZM16.2504 2.90302C20.5141 2.90302 21.026 2.92175 22.7116 2.99666C24.2722 3.07157 25.115 3.32752 25.6768 3.55226C26.4259 3.83942 26.9566 4.18901 27.5184 4.74461C28.074 5.30645 28.4236 5.83708 28.7108 6.5862C28.9293 7.14804 29.1915 7.9908 29.2601 9.55147C29.335 11.237 29.3538 11.7426 29.3538 16.0126C29.3538 20.2826 29.335 20.7883 29.2539 22.4738C29.1727 24.0345 28.9105 24.8772 28.692 25.4391C28.3924 26.1882 28.0553 26.7188 27.4934 27.2807C26.9378 27.8363 26.3947 28.1858 25.6581 28.473C25.0963 28.6915 24.241 28.9537 22.6803 29.0224C20.9823 29.0973 20.4829 29.116 16.2067 29.116C11.9305 29.116 11.431 29.0973 9.73304 29.0161C8.17237 28.935 7.31713 28.6728 6.75528 28.4543C5.99992 28.1546 5.47554 27.8175 4.91994 27.2557C4.3581 26.7001 4.00227 26.157 3.72135 25.4203C3.50285 24.8585 3.24066 24.0033 3.1595 22.4426C3.09708 20.7633 3.07835 20.2452 3.07835 15.9939C3.07835 11.7364 3.09708 11.2183 3.1595 9.52025C3.24066 7.95958 3.49661 7.10434 3.72135 6.5425C4.00227 5.78089 4.3581 5.26275 4.91994 4.70091C5.47554 4.14531 5.99992 3.78324 6.75528 3.50232C7.31713 3.28382 8.15364 3.02163 9.71431 2.94048C11.4123 2.87805 11.9117 2.85932 16.188 2.85932L16.2504 2.90302ZM16.2504 7.79727C11.7182 7.79727 8.04128 11.4742 8.04128 16.0064C8.04128 20.5386 11.7182 24.2155 16.2504 24.2155C20.7826 24.2155 24.4595 20.5386 24.4595 16.0064C24.4595 11.4742 20.7826 7.79727 16.2504 7.79727ZM16.2504 21.3314C13.3101 21.3314 10.9254 18.9467 10.9254 16.0064C10.9254 13.0661 13.3101 10.6814 16.2504 10.6814C19.1907 10.6814 21.5754 13.0661 21.5754 16.0064C21.5754 18.9467 19.1907 21.3314 16.2504 21.3314ZM26.7006 7.4789C26.7006 8.54015 25.8391 9.3954 24.7841 9.3954C23.7229 9.3954 22.8676 8.53391 22.8676 7.4789C22.8676 6.42389 23.7291 5.5624 24.7841 5.5624C25.8391 5.55616 26.7006 6.41764 26.7006 7.4789Z" fill="#44464D"/>
</svg>
