<svg width="122" height="122" viewBox="0 0 122 122" fill="none" xmlns="http://www.w3.org/2000/svg">
<g clip-path="url(#clip0_432_21146)">
<path d="M78.2491 98.6586C79.3184 98.6612 80.3775 98.4509 81.365 98.04C82.3524 97.6291 83.2485 97.0258 84.0011 96.2651L85.4391 94.8188C86.2546 93.9966 86.8865 93.0103 87.2929 91.9251C87.6993 90.84 87.8709 89.6809 87.7965 88.5243C88.9494 88.5962 90.1043 88.4213 91.1845 88.0115C92.2646 87.6016 93.2452 86.966 94.0611 86.1471L95.4991 84.7008C96.3146 83.8786 96.9465 82.8923 97.3528 81.8072C97.7592 80.722 97.9309 79.5629 97.8565 78.4063C99.0092 78.4745 100.163 78.2978 101.243 77.8877C102.323 77.4777 103.303 76.8436 104.121 76.0271L105.557 74.5808L111.305 68.7996C118.156 61.8818 122 52.5331 122 42.7897C122 33.0463 118.156 23.6975 111.305 16.7797C104.701 10.1252 95.793 6.2704 86.4281 6.01404C77.0631 5.75768 67.9587 9.11939 61.0011 15.4026C54.0432 9.11946 44.9387 5.75764 35.5735 6.01361C26.2084 6.26959 17.3005 10.1237 10.6951 16.7776C3.84413 23.6958 0 33.0449 0 42.7886C0 52.5324 3.84413 61.8814 10.6951 68.7996L23.6291 81.8102L25.0671 83.2545C25.8191 84.0155 26.7148 84.619 27.702 85.03C28.6891 85.4409 29.7481 85.651 30.8171 85.648C31.0042 85.648 31.1832 85.6053 31.3683 85.593C31.2809 86.7533 31.4426 87.9188 31.8426 89.0112C32.2425 90.1036 32.8715 91.0976 33.687 91.9262L35.125 93.3725C35.8775 94.1329 36.7732 94.7361 37.7603 95.147C38.7474 95.5579 39.8061 95.7683 40.8751 95.766C41.0622 95.766 41.2412 95.7253 41.4242 95.7131C41.3368 96.8727 41.4989 98.0377 41.8996 99.1292C42.3003 100.221 42.9303 101.213 43.747 102.04L45.183 103.486C45.9356 104.248 46.832 104.852 47.8198 105.263C48.8076 105.674 49.8673 105.885 50.9371 105.882C51.1222 105.882 51.3011 105.841 51.4862 105.829C51.4006 106.986 51.5631 108.149 51.9631 109.238C52.363 110.327 52.991 111.318 53.8049 112.144L55.247 113.594C55.9988 114.358 56.8947 114.963 57.8826 115.376C58.8705 115.789 59.9306 116.001 61.0011 116C62.0698 116.003 63.1283 115.792 64.1151 115.381C65.1019 114.97 65.9973 114.367 66.7491 113.606L75.367 104.939C76.1843 104.111 76.8146 103.118 77.2153 102.025C77.616 100.932 77.7778 99.7663 77.6898 98.6057C77.8748 98.6179 78.0559 98.6586 78.243 98.6586H78.2491ZM108.423 19.6478C114.517 25.8005 117.937 34.116 117.937 42.7825C117.937 51.4491 114.517 59.7645 108.423 65.9172L107.632 66.7137C107.278 65.3259 106.563 64.057 105.559 63.0369L73.9391 31.2345C72.7783 30.1191 71.2318 29.4962 69.6231 29.4962C68.0143 29.4962 66.4678 30.1191 65.307 31.2345L49.4991 47.1337C47.9546 48.6197 45.8959 49.4496 43.7541 49.4496C41.6124 49.4496 39.5537 48.6197 38.0092 47.1337C37.6264 46.7475 37.4116 46.2254 37.4116 45.6812C37.4116 45.1371 37.6264 44.615 38.0092 44.2288L62.4432 19.6478C65.4551 16.6136 69.0362 14.2057 72.9807 12.5627C76.9251 10.9196 81.1549 10.0737 85.4269 10.0737C89.6989 10.0737 93.9288 10.9196 97.8732 12.5627C101.818 14.2057 105.399 16.6136 108.411 19.6478H108.423ZM13.5793 19.6478C19.4098 13.7611 27.2724 10.3381 35.5476 10.0838C43.8227 9.82948 51.8801 12.7633 58.06 18.281L35.1291 41.3505C33.9882 42.5014 33.3479 44.0574 33.3479 45.6792C33.3479 47.301 33.9882 48.857 35.1291 50.0079C36.2603 51.1461 37.6048 52.0493 39.0854 52.6656C40.5661 53.2819 42.1537 53.5991 43.7572 53.5991C45.3606 53.5991 46.9483 53.2819 48.4289 52.6656C49.9096 52.0493 51.2541 51.1461 52.3852 50.0079L68.1912 34.1108C68.5751 33.7385 69.0886 33.5303 69.6231 33.5303C70.1575 33.5303 70.671 33.7385 71.055 34.1108L102.675 65.9091C103.439 66.6793 103.868 67.721 103.868 68.8068C103.868 69.8926 103.439 70.9343 102.675 71.7045L101.237 73.1508C100.466 73.8938 99.4379 74.3089 98.368 74.3089C97.2982 74.3089 96.2699 73.8938 95.4991 73.1508L72.5032 50.0222C72.3146 49.8325 72.0905 49.6819 71.8439 49.579C71.5972 49.476 71.3326 49.4227 71.0654 49.4222C70.7981 49.4216 70.5334 49.4737 70.2863 49.5756C70.0391 49.6776 69.8145 49.8272 69.6251 50.0161C69.4357 50.2049 69.2853 50.4293 69.1825 50.6764C69.0798 50.9234 69.0265 51.1884 69.026 51.456C69.0254 51.7237 69.0775 51.9888 69.1792 52.2363C69.281 52.4838 69.4304 52.7088 69.619 52.8985L92.615 76.0271C93.3788 76.7978 93.8075 77.8398 93.8075 78.9258C93.8075 80.0118 93.3788 81.0537 92.615 81.8245L91.179 83.2708C90.4074 84.0124 89.3795 84.4265 88.3101 84.4265C87.2407 84.4265 86.2127 84.0124 85.4412 83.2708L62.4432 60.1402C62.2546 59.9505 62.0306 59.7999 61.7839 59.697C61.5372 59.594 61.2727 59.5407 61.0054 59.5402C60.7382 59.5396 60.4734 59.5917 60.2263 59.6936C59.9792 59.7956 59.7545 59.9452 59.5651 60.1341C59.3758 60.3229 59.2254 60.5473 59.1226 60.7944C59.0198 61.0414 58.9666 61.3064 58.966 61.574C58.9654 61.8417 59.0175 62.1068 59.1193 62.3543C59.221 62.6018 59.3704 62.8268 59.559 63.0165L82.5611 86.1471C83.3236 86.9174 83.7514 87.9581 83.7514 89.0428C83.7514 90.1274 83.3236 91.1682 82.5611 91.9384L81.1231 93.3868C80.7472 93.766 80.3001 94.0671 79.8076 94.2725C79.315 94.4779 78.7867 94.5836 78.2532 94.5836C77.7196 94.5836 77.1913 94.4779 76.6988 94.2725C76.2062 94.0671 75.7591 93.766 75.3832 93.3868C75.3832 93.3766 75.3568 93.3725 75.3446 93.3623L73.9493 91.9364C73.1172 91.1352 72.1251 90.5197 71.0383 90.1303C69.9515 89.741 68.7947 89.5866 67.644 89.6773C67.7443 88.5053 67.5893 87.3254 67.1897 86.2193C66.79 85.1132 66.1553 84.1071 65.3294 83.2708L63.8934 81.8225C63.1405 81.0614 62.2441 80.4578 61.2563 80.0465C60.2685 79.6353 59.209 79.4247 58.1393 79.4269C57.9522 79.4269 57.7732 79.4676 57.5881 79.4799C57.6761 78.3202 57.5147 77.1551 57.1147 76.0633C56.7147 74.9714 56.0854 73.9782 55.2694 73.1508L53.8314 71.7024C53.0012 70.8983 52.0095 70.2803 50.9223 69.8898C49.8352 69.4992 48.6774 69.3449 47.5261 69.4372C47.6234 68.265 47.4654 67.0856 47.0629 65.9805C46.6605 64.8754 46.0232 63.8711 45.1952 63.0369L43.7592 61.5885C43.0051 60.8291 42.1085 60.2265 41.121 59.8152C40.1335 59.404 39.0746 59.1923 38.0051 59.1923C36.9357 59.1923 35.8768 59.404 34.8893 59.8152C33.9018 60.2265 33.0052 60.8291 32.2511 61.5885L23.6291 70.2602C22.6246 71.2843 21.91 72.5575 21.5585 73.9493L13.5793 65.9233C7.4836 59.7701 4.0631 51.4535 4.0631 42.7856C4.0631 34.1177 7.4836 25.8011 13.5793 19.6478ZM30.8192 81.5739C30.2859 81.5749 29.7577 81.4697 29.2653 81.2645C28.773 81.0592 28.3263 80.7579 27.9513 80.3782L26.5153 78.9339C25.7513 78.1628 25.3226 77.1205 25.3226 76.0342C25.3226 74.9479 25.7513 73.9056 26.5153 73.1345L35.1352 64.4628C35.5111 64.0835 35.9582 63.7825 36.4507 63.5771C36.9433 63.3716 37.4716 63.2659 38.0051 63.2659C38.5387 63.2659 39.067 63.3716 39.5595 63.5771C40.0521 63.7825 40.4992 64.0835 40.8751 64.4628L42.3131 65.9111C43.0769 66.6819 43.5056 67.7238 43.5056 68.8098C43.5056 69.8958 43.0769 70.9378 42.3131 71.7085L33.6891 80.3802C33.3137 80.7599 32.8666 81.061 32.3739 81.266C31.8812 81.4709 31.3527 81.5756 30.8192 81.5739ZM40.8791 91.6919C40.3458 91.6929 39.8176 91.5878 39.3253 91.3825C38.833 91.1772 38.3863 90.8759 38.0112 90.4962L36.5732 89.0519C35.8092 88.2808 35.3805 87.2385 35.3805 86.1522C35.3805 85.0659 35.8092 84.0236 36.5732 83.2525L45.1952 74.5808C45.5716 74.2022 46.019 73.9018 46.5117 73.6968C47.0044 73.4918 47.5326 73.3863 48.0661 73.3863C48.5996 73.3863 49.1279 73.4918 49.6205 73.6968C50.1132 73.9018 50.5606 74.2022 50.9371 74.5808L52.373 76.0291C53.137 76.8002 53.5657 77.8425 53.5657 78.9288C53.5657 80.0152 53.137 81.0574 52.373 81.8286L43.7511 90.4962C43.3757 90.8768 42.9285 91.1787 42.4354 91.3844C41.9423 91.59 41.4133 91.6932 40.8791 91.6919ZM48.0712 100.614L46.6332 99.1658C45.8685 98.3959 45.4392 97.3541 45.4392 96.2682C45.4392 95.1822 45.8685 94.1404 46.6332 93.3705L55.2552 84.6988C56.0268 83.9566 57.0552 83.5421 58.1251 83.5421C59.195 83.5421 60.2234 83.9566 60.995 84.6988L62.433 86.1471C63.1948 86.9169 63.6222 87.9569 63.6222 89.0407C63.6222 90.1245 63.1948 91.1645 62.433 91.9343L62.4208 91.9445L53.8029 100.612V100.622C53.0314 101.362 52.0041 101.775 50.9358 101.774C49.8676 101.773 48.8412 101.358 48.0712 100.616V100.614ZM72.4787 102.06L63.869 110.732C63.4934 111.111 63.0467 111.411 62.5547 111.616C62.0627 111.821 61.535 111.927 61.0021 111.927C60.4692 111.927 59.9416 111.821 59.4496 111.616C58.9575 111.411 58.5109 111.111 58.1353 110.732L56.6932 109.284C55.9314 108.514 55.504 107.474 55.504 106.39C55.504 105.306 55.9314 104.266 56.6932 103.497L65.3172 94.8147C65.6907 94.4396 66.1346 94.1422 66.6232 93.9394C67.1119 93.7367 67.6358 93.6326 68.1647 93.6332C69.2423 93.6313 70.2767 94.0577 71.0407 94.8188L72.4645 96.2773C73.2296 97.0436 73.6613 98.0816 73.6655 99.1653C73.6697 100.249 73.246 101.29 72.4869 102.063L72.4787 102.06Z" fill="black" stroke="#44464D" stroke-width="0.5"/>
</g>
<defs>
<clipPath id="clip0_432_21146">
<rect width="122" height="122" fill="white"/>
</clipPath>
</defs>
</svg>
