<svg width="80" height="83" viewBox="0 0 80 83" fill="none" xmlns="http://www.w3.org/2000/svg">
<path d="M50.9806 70.2485L58.4375 5.81989C58.6814 3.69434 57.0205 1.83594 54.8833 1.83594H5.84462C3.70745 1.83594 2.0465 3.69434 2.29042 5.81989L10.4209 76.1489C10.6881 78.4952 12.6743 80.2606 15.0321 80.2606H45.6726" stroke="#FF8F43" stroke-width="3.61311" stroke-miterlimit="10"/>
<path d="M3.20752 14.9956H58.4602" stroke="#FF8F43" stroke-width="3.61311" stroke-miterlimit="10"/>
<path d="M30.8291 27.3428V61.1193" stroke="#D86A8D" stroke-width="2.40874" stroke-miterlimit="10" stroke-linecap="round"/>
<path d="M44.7193 29.085L42.4893 59.377" stroke="#D86A8D" stroke-width="2.40874" stroke-miterlimit="10" stroke-linecap="round"/>
<path d="M16.9482 29.085L19.1667 59.377" stroke="#D86A8D" stroke-width="2.40874" stroke-miterlimit="10" stroke-linecap="round"/>
<path d="M20.5832 80.2139H63.3498C64.7482 80.2139 65.8818 79.0802 65.8818 77.6818V72.7802C65.8818 71.3818 64.7482 70.2482 63.3498 70.2482H20.5832C19.1848 70.2482 18.0511 71.3818 18.0511 72.7802V77.6818C18.0511 79.0802 19.1848 80.2139 20.5832 80.2139Z" stroke="#B68AD6" stroke-width="3.61311" stroke-miterlimit="10"/>
<path d="M30.8506 79.7844V70.6782" stroke="#B68AD6" stroke-width="3.61311" stroke-miterlimit="10"/>
<path d="M74.8953 73.5009C74.2913 71.9561 73.6873 70.3532 73.7221 68.6923C73.7802 66.3925 75.0811 64.3482 76.0684 62.2692C79.2161 55.637 79.2741 47.6226 76.2426 40.9556" stroke="#D86A8D" stroke-width="2.40874" stroke-miterlimit="10" stroke-linecap="round"/>
<path d="M71.0733 34.7183C68.9826 36.7857 68.2741 40.0379 68.971 42.8952C69.3659 44.5213 70.1673 46.0197 70.69 47.6226C71.445 49.934 71.596 52.4312 71.1314 54.8123" stroke="#D86A8D" stroke-width="2.40874" stroke-miterlimit="10" stroke-linecap="round"/>
</svg>
