<svg width="122" height="122" viewBox="0 0 122 122" fill="none" xmlns="http://www.w3.org/2000/svg">
<g clip-path="url(#clip0_432_21141)">
<path d="M24.7812 47.6562H1.90625C1.40068 47.6562 0.915819 47.4554 0.558328 47.0979C0.200837 46.7404 0 46.2556 0 45.75V22.875C0 22.3694 0.200837 21.8846 0.558328 21.5271C0.915819 21.1696 1.40068 20.9688 1.90625 20.9688C2.41182 20.9688 2.89668 21.1696 3.25417 21.5271C3.61166 21.8846 3.8125 22.3694 3.8125 22.875V39.588C6.15523 36.519 8.7487 33.6498 11.5662 31.0099C21.2785 21.9457 32.4396 17.1562 43.8438 17.1562C63.4686 17.1562 75.2016 28.6605 75.6924 29.1513C75.8695 29.3284 76.01 29.5387 76.1059 29.7701C76.2017 30.0015 76.2511 30.2495 76.2511 30.5C76.2511 30.7505 76.2017 30.9985 76.1059 31.2299C76.01 31.4613 75.8695 31.6716 75.6924 31.8487C75.5153 32.0258 75.3051 32.1663 75.0736 32.2621C74.8422 32.358 74.5942 32.4073 74.3438 32.4073C74.0933 32.4073 73.8453 32.358 73.6139 32.2621C73.3824 32.1663 73.1722 32.0258 72.9951 31.8487C72.7949 31.6485 61.753 20.9688 43.8438 20.9688C23.7328 20.9688 10.1889 37.1433 5.43758 43.8438H24.7812C25.2868 43.8438 25.7717 44.0446 26.1292 44.4021C26.4867 44.7596 26.6875 45.2444 26.6875 45.75C26.6875 46.2556 26.4867 46.7404 26.1292 47.0979C25.7717 47.4554 25.2868 47.6562 24.7812 47.6562ZM85.7812 74.3438H62.9062C62.4007 74.3438 61.9158 74.5446 61.5583 74.9021C61.2008 75.2596 61 75.7444 61 76.25C61 76.7556 61.2008 77.2404 61.5583 77.5979C61.9158 77.9554 62.4007 78.1562 62.9062 78.1562H82.2499C77.4843 84.8567 63.9547 101.031 43.8438 101.031C25.9345 101.031 14.8926 90.3515 14.6924 90.1513C14.3347 89.7936 13.8496 89.5927 13.3438 89.5927C12.8379 89.5927 12.3528 89.7936 11.9951 90.1513C11.6374 90.509 11.4364 90.9941 11.4364 91.5C11.4364 92.0059 11.6374 92.491 11.9951 92.8487C12.4716 93.3252 24.2189 104.844 43.8438 104.844C55.2479 104.844 66.409 100.054 76.1213 90.9853C78.9388 88.3454 81.5323 85.4762 83.875 82.4072V99.125C83.875 99.6306 84.0758 100.115 84.4333 100.473C84.7908 100.83 85.2757 101.031 85.7812 101.031C86.2868 101.031 86.7717 100.83 87.1292 100.473C87.4867 100.115 87.6875 99.6306 87.6875 99.125V76.25C87.6875 75.7444 87.4867 75.2596 87.1292 74.9021C86.7717 74.5446 86.2868 74.3438 85.7812 74.3438Z" fill="black" stroke="black"/>
</g>
<defs>
<clipPath id="clip0_432_21141">
<rect width="122" height="122" fill="white"/>
</clipPath>
</defs>
</svg>
