<svg width="36" height="36" viewBox="0 0 36 36" fill="none" xmlns="http://www.w3.org/2000/svg">
<path d="M17.9249 0.856934C8.36691 0.856934 0.618652 8.60519 0.618652 18.1632C0.618652 27.7212 8.36691 35.4694 17.9249 35.4694C27.4829 35.4694 35.2312 27.7212 35.2312 18.1632C35.2312 8.60519 27.4829 0.856934 17.9249 0.856934ZM25.4568 25.973C25.2368 26.3496 24.8407 26.5595 24.4339 26.5596C24.2311 26.5596 24.0257 26.5074 23.8379 26.3977C20.728 24.5802 17.1352 24.2881 14.6683 24.3631C11.9356 24.4463 9.93165 24.9857 9.91174 24.9912C9.28181 25.1633 8.63084 24.7926 8.45805 24.1627C8.28533 23.533 8.65472 22.8824 9.28432 22.709C9.37465 22.6841 11.5311 22.0984 14.5299 21.9995C16.2962 21.9412 17.9967 22.0643 19.5834 22.3653C21.593 22.7465 23.4262 23.4157 25.0321 24.3542C25.5965 24.684 25.7866 25.4088 25.4568 25.973ZM27.657 21.4035C27.3964 21.8495 26.9273 22.0981 26.4454 22.0982C26.2052 22.0982 25.9618 22.0365 25.7394 21.9065C22.0556 19.7536 17.7998 19.4077 14.8777 19.4965C11.6408 19.595 9.267 20.234 9.24345 20.2405C8.49746 20.444 7.72622 20.0053 7.52153 19.2592C7.31693 18.5132 7.75455 17.7426 8.50029 17.5371C8.60729 17.5077 11.1616 16.8138 14.7138 16.6967C16.8062 16.6277 18.8204 16.7735 20.6998 17.13C23.0803 17.5817 25.2517 18.3743 27.154 19.4859C27.8225 19.8765 28.0477 20.7351 27.657 21.4035ZM29.0095 17.2486C28.7148 17.2486 28.4163 17.1728 28.1435 17.0134C19.3856 11.8952 8.02504 14.938 7.91132 14.9694C6.99569 15.2216 6.04914 14.6839 5.79695 13.7684C5.54467 12.8528 6.08241 11.9062 6.99796 11.654C7.12916 11.6178 10.2624 10.7668 14.6194 10.6231C17.1861 10.5386 19.6566 10.7173 21.9619 11.1546C24.8818 11.7085 27.5455 12.6807 29.8787 14.0443C30.6986 14.5235 30.9748 15.5765 30.4957 16.3964C30.176 16.9436 29.6006 17.2486 29.0095 17.2486Z" fill="#44464D"/>
</svg>
