<svg width="47" height="46" viewBox="0 0 47 46" fill="none" xmlns="http://www.w3.org/2000/svg">
<path d="M23.03 0C16.7834 0 16.0015 0.0269637 13.5478 0.134818C11.0941 0.251661 9.43136 0.638139 7.96633 1.20438C6.45637 1.78859 5.1711 2.57952 3.88583 3.8558C2.60056 5.13208 1.81862 6.41735 1.23441 7.9363C0.668169 9.40133 0.28169 11.0731 0.164848 13.5178C0.0480051 15.9715 0.0300293 16.7534 0.0300293 23C0.0300293 29.2466 0.0569929 30.0285 0.164848 32.4822C0.28169 34.9269 0.668169 36.5987 1.23441 38.0637C1.81862 39.5737 2.60955 40.8589 3.88583 42.1442C5.16211 43.4205 6.44738 44.2114 7.96633 44.7956C9.43136 45.3619 11.1031 45.7483 13.5478 45.8652C16.0015 45.982 16.7834 46 23.03 46C29.2766 46 30.0586 45.973 32.5122 45.8652C34.957 45.7483 36.6287 45.3619 38.0937 44.7956C39.6037 44.2114 40.889 43.4205 42.1742 42.1442C43.4505 40.8679 44.2414 39.5827 44.8256 38.0637C45.3919 36.5987 45.7784 34.9269 45.8952 32.4822C46.0121 30.0285 46.03 29.2466 46.03 23C46.03 16.7534 46.0031 15.9715 45.8952 13.5178C45.7784 11.0731 45.3919 9.40133 44.8256 7.9363C44.2414 6.42634 43.4505 5.14107 42.1742 3.8558C40.8979 2.57952 39.6127 1.78859 38.0937 1.20438C36.6287 0.638139 34.957 0.251661 32.5122 0.134818C30.0586 0.0269637 29.2766 0 23.03 0ZM23.03 4.14342C29.1688 4.14342 29.9058 4.17038 32.3325 4.27823C34.5795 4.38609 35.7928 4.75459 36.6017 5.07816C37.6803 5.4916 38.4443 5.99492 39.2532 6.79484C40.0531 7.60375 40.5564 8.36772 40.9698 9.44627C41.2844 10.2552 41.6619 11.4685 41.7608 13.7155C41.8686 16.1422 41.8956 16.8703 41.8956 23.018C41.8956 29.1657 41.8686 29.8937 41.7518 32.3204C41.6349 34.5674 41.2575 35.7808 40.9429 36.5897C40.5115 37.6682 40.0261 38.4322 39.2172 39.2411C38.4173 40.041 37.6353 40.5444 36.5748 40.9578C35.7659 41.2724 34.5345 41.6499 32.2876 41.7487C29.8428 41.8566 29.1238 41.8836 22.9671 41.8836C16.8104 41.8836 16.0914 41.8566 13.6467 41.7397C11.3997 41.6229 10.1684 41.2454 9.35945 40.9308C8.27192 40.4994 7.51694 40.0141 6.71702 39.2052C5.90811 38.4052 5.3958 37.6233 4.99134 36.5627C4.67676 35.7538 4.29927 34.5225 4.18243 32.2755C4.09255 29.8578 4.06559 29.1118 4.06559 22.991C4.06559 16.8613 4.09255 16.1153 4.18243 13.6706C4.29927 11.4236 4.66778 10.1923 4.99134 9.38335C5.3958 8.28683 5.90811 7.54084 6.71702 6.73193C7.51694 5.932 8.27192 5.41071 9.35945 5.00625C10.1684 4.69168 11.3727 4.31419 13.6197 4.19734C16.0644 4.10747 16.7834 4.0805 22.9401 4.0805L23.03 4.14342ZM23.03 11.1899C16.5048 11.1899 11.211 16.4838 11.211 23.009C11.211 29.5342 16.5048 34.8281 23.03 34.8281C29.5552 34.8281 34.8491 29.5342 34.8491 23.009C34.8491 16.4838 29.5552 11.1899 23.03 11.1899ZM23.03 30.6757C18.7967 30.6757 15.3634 27.2423 15.3634 23.009C15.3634 18.7757 18.7967 15.3423 23.03 15.3423C27.2633 15.3423 30.6967 18.7757 30.6967 23.009C30.6967 27.2423 27.2633 30.6757 23.03 30.6757ZM38.0758 10.7315C38.0758 12.2595 36.8354 13.4908 35.3165 13.4908C33.7885 13.4908 32.5572 12.2505 32.5572 10.7315C32.5572 9.21258 33.7975 7.97226 35.3165 7.97226C36.8354 7.96327 38.0758 9.2036 38.0758 10.7315Z" fill="#44464D"/>
</svg>
