<svg width="33" height="33" viewBox="0 0 33 33" fill="none" xmlns="http://www.w3.org/2000/svg">
<path d="M30.2524 0.188477H3.02748C1.72551 0.188477 0.668945 1.2202 0.668945 2.49065V29.8332C0.668945 31.1054 1.72551 32.1385 3.02748 32.1385H30.2524C31.5553 32.1385 32.6189 31.1054 32.6189 29.8332V2.49065C32.6189 1.2202 31.5553 0.188477 30.2524 0.188477ZM10.1448 27.4143H5.40376V12.1675H10.1448V27.4143ZM7.77427 10.0828C6.25531 10.0828 5.02746 8.85181 5.02746 7.33418C5.02746 5.81878 6.25531 4.58781 7.77427 4.58781C9.28968 4.58781 10.5206 5.81878 10.5206 7.33418C10.5206 8.85181 9.28968 10.0828 7.77427 10.0828ZM27.893 27.4143H23.1595V20.0001C23.1595 18.2314 23.1249 15.9571 20.6963 15.9571C18.2299 15.9571 17.8541 17.8835 17.8541 19.8719V27.4148H13.117V12.1675H17.6632V14.2496H17.728C18.3608 13.0515 19.9068 11.7872 22.2126 11.7872C27.0077 11.7872 27.8935 14.9441 27.8935 19.051L27.893 27.4143Z" fill="#44464D"/>
</svg>
