<svg width="130" height="18" viewBox="0 0 130 18" fill="none" xmlns="http://www.w3.org/2000/svg">
<path d="M110.161 12.648C109.765 12.648 109.4 12.5736 109.06 12.4228C108.721 12.2719 108.428 12.0616 108.177 11.7917C107.927 11.5219 107.733 11.2053 107.592 10.8398C107.45 10.4765 107.379 10.0792 107.379 9.64787C107.379 9.21655 107.448 8.8171 107.588 8.45165C107.725 8.08619 107.919 7.76748 108.169 7.49976C108.42 7.23205 108.713 7.02382 109.052 6.87509C109.392 6.72636 109.759 6.652 110.161 6.652C110.563 6.652 110.913 6.72211 111.232 6.86234C111.551 7.00258 111.82 7.18955 112.04 7.42327C112.26 7.65699 112.418 7.91409 112.511 8.19455L111.533 8.68537C111.44 8.40065 111.272 8.16268 111.032 7.9757C110.792 7.78873 110.503 7.69524 110.161 7.69524C109.82 7.69524 109.531 7.7781 109.278 7.94383C109.026 8.10956 108.83 8.33691 108.689 8.62587C108.547 8.91484 108.476 9.25267 108.476 9.64362C108.476 10.0346 108.547 10.3745 108.689 10.6656C108.83 10.9567 109.026 11.1862 109.278 11.3519C109.531 11.5176 109.824 11.6005 110.161 11.6005C110.499 11.6005 110.792 11.507 111.032 11.32C111.272 11.1331 111.438 10.8972 111.533 10.6104L112.511 11.1012C112.418 11.3817 112.26 11.6387 112.04 11.8725C111.82 12.1062 111.551 12.2932 111.232 12.4334C110.913 12.5736 110.555 12.6437 110.161 12.6437V12.648Z" fill="#44464D"/>
<path d="M113.593 12.5545L115.476 6.74548H116.923L118.805 12.5545H117.605L117.228 11.3455H115.167L114.781 12.5545H113.593ZM116.921 10.3405L116.046 7.54226H116.349L115.466 10.3405H116.921Z" fill="#44464D"/>
<path d="M120.131 12.5545V6.74548H122.221C122.601 6.74548 122.939 6.8156 123.229 6.95583C123.52 7.09607 123.751 7.30429 123.918 7.5805C124.086 7.85672 124.171 8.19455 124.171 8.594C124.171 8.99345 124.082 9.32704 123.904 9.6075C123.726 9.88797 123.488 10.0962 123.193 10.2322L124.46 12.5545H123.221L121.858 9.99633L122.569 10.4319H121.228V12.5524H120.131V12.5545ZM121.228 9.42902H122.236C122.403 9.42902 122.549 9.39503 122.672 9.32279C122.795 9.25267 122.892 9.15493 122.961 9.02957C123.029 8.90421 123.064 8.75973 123.064 8.594C123.064 8.42827 123.029 8.28167 122.961 8.15843C122.892 8.03307 122.795 7.93533 122.672 7.86522C122.549 7.7951 122.403 7.75898 122.236 7.75898H121.228V9.42902Z" fill="#44464D"/>
<path d="M125.801 12.5545V6.74548H129.5V7.75898H126.898V9.13793H129.351V10.1429H126.898V11.5389H129.5V12.5524H125.801V12.5545Z" fill="#44464D"/>
<path d="M12.8935 13.4915C12.3037 16.7211 9.05528 17.1248 6.89778 17.1248C5.24732 17.1248 2.91811 16.5979 0.5 15.9159C1.24341 15.3995 1.8939 14.7473 2.41509 13.9547C4.0413 16.4067 5.28167 16.719 6.45537 16.8146C7.90179 16.94 9.46739 16.6893 9.73405 14.7642C10.0876 12.2486 7.10585 11.1926 4.74431 9.76262C2.35045 8.36667 0.875746 6.78162 1.17069 4.20432C1.6434 0.352175 5.33419 0.135452 6.92808 0.135452C8.40278 0.135452 10.5239 0.75375 12.4713 1.31255C11.9299 1.74813 11.4451 2.26444 11.037 2.86574C9.62092 0.968348 8.29975 0.477534 6.78061 0.477534C5.65943 0.477534 4.33018 1.09796 4.12211 2.99322C3.88575 5.13708 6.51395 6.34818 8.9361 7.74625C12.0673 9.48641 13.3663 10.7591 12.8935 13.4915ZM43.5128 0.126953C40.7795 0.126953 38.5695 0.836615 36.9312 3.08458C36.5696 3.51378 36.1373 4.09171 35.6221 4.86511C35.612 4.87998 35.5999 4.89698 35.5898 4.91186C33.206 8.48353 29.9556 13.2408 29.9556 13.2408C29.3658 13.9845 28.3052 14.8641 26.7012 15.1913C26.2951 15.2742 25.8548 15.3231 25.378 15.3231C24.7901 15.3231 24.2124 15.2551 23.6568 15.117C23.6265 15.1106 23.5983 15.1 23.568 15.0936C23.5053 15.0766 23.4427 15.0617 23.3821 15.0426C21.1074 14.3648 19.2873 12.4525 18.9479 9.1167C19.4105 9.36955 19.8974 9.5884 20.4125 9.76262C20.7054 9.86036 21.0105 9.9411 21.3216 10.007C21.3761 10.0197 21.4307 10.0346 21.4872 10.0452C21.7579 10.0983 22.0387 10.1323 22.3256 10.1599C22.6306 10.1876 22.9397 10.2067 23.2629 10.2024C25.2447 10.1791 27.0204 9.85824 28.3395 9.30368C29.8344 8.67688 30.7415 7.75262 30.693 6.62439C30.6809 6.33118 30.6607 6.1442 30.5778 5.82549C30.1435 4.15332 29.388 2.85511 28.3698 1.92448C27.0608 0.724003 25.3154 0.135452 23.2528 0.135452C18.7944 0.135452 14.8369 2.83811 14.8369 8.64501C14.8369 9.24206 14.8915 9.80724 14.9884 10.3448C15.0591 10.7358 15.15 11.1118 15.2672 11.4709C15.2733 11.4879 15.2793 11.507 15.2854 11.524C15.4167 11.915 15.5743 12.2889 15.7541 12.6395C15.7985 12.7266 15.847 12.8116 15.8955 12.8966C15.9945 13.0708 16.0955 13.2408 16.2046 13.4044C16.2227 13.432 16.245 13.4597 16.2631 13.4873C16.5157 13.8527 16.7985 14.1927 17.1035 14.505C17.2288 14.6325 17.3581 14.7579 17.4914 14.8769C17.6187 14.9916 17.75 15.1021 17.8853 15.2083C17.9116 15.2274 17.9378 15.2466 17.9641 15.2678C18.154 15.4144 18.352 15.5525 18.554 15.6821C18.7176 15.7862 18.8873 15.884 19.059 15.9775C19.1923 16.0497 19.3277 16.1198 19.4651 16.1857C20.2367 16.5554 21.067 16.8189 21.9236 16.9718C21.9539 16.9761 21.9842 16.9846 22.0145 16.9888C22.37 17.0483 22.7316 17.0866 23.0952 17.1078C23.2932 17.1185 23.4932 17.127 23.6912 17.127C23.875 17.127 24.0548 17.1206 24.2306 17.11C24.3599 17.1036 24.4851 17.0908 24.6103 17.0781C24.6225 17.0781 24.6346 17.076 24.6447 17.0738C27.5598 16.7679 29.2647 15.0978 30.192 13.7231C30.5677 13.1643 31.1031 12.3973 31.6849 11.5814C32.1576 10.9504 32.6384 10.2917 33.1151 9.5884V16.9039H36.7473V6.05921C36.7473 4.47416 38.8139 2.30056 40.8826 2.02222C42.7613 1.78 44.4845 2.02222 46.6905 4.92248C46.9692 3.9366 47.3955 3.08458 47.9369 2.36217C47.0339 0.947101 45.3713 0.126953 43.5108 0.126953H43.5128ZM18.8812 7.96297C18.7903 4.63564 20.0145 2.03072 21.6751 1.00872C22.17 0.704881 22.7033 0.539152 23.2508 0.539152C25.8325 0.539152 26.8648 2.9826 26.9618 6.33755C26.9618 7.46154 25.2831 8.21582 23.5983 8.53453C23.3013 8.58977 23.0043 8.63227 22.7175 8.66201C21.6448 8.76825 20.3681 8.65989 18.8873 8.15845L18.8792 7.96297H18.8812ZM101.911 15.083C101.723 15.2062 101.511 15.2848 101.277 15.2848C100.45 15.2848 100.036 14.7876 100.036 12.9242V5.37717C100.038 1.21482 97.5272 0.126953 93.6001 0.126953C91.8587 0.126953 89.8224 0.685758 87.5801 1.39967C88.2164 2.02859 88.6103 2.85511 88.8285 3.80274C91.0527 1.21269 91.9517 0.63264 93.4526 0.532777C95.4606 0.532777 96.4061 1.52715 96.4061 3.63914V6.62014C92.9799 6.68176 85.7458 6.15482 85.7458 12.3654C85.7458 15.8139 88.2265 17.1185 90.885 17.1185C93.9274 17.1185 95.7879 15.4102 96.4667 13.7019C96.4081 15.6906 97.8545 17.1185 99.5676 17.1185C101.022 17.1185 101.891 16.3493 102.434 15.5249L101.917 15.083H101.911ZM96.404 13.3301C94.1597 17.1822 89.2285 16.9336 89.2285 11.9638C89.2285 8.01822 92.5355 6.87086 96.404 6.99409V13.3301ZM77.6067 0.126953C74.8734 0.126953 72.6634 0.836615 71.025 3.08458C70.6634 3.51378 70.2311 4.09171 69.716 4.86511C67.3343 8.43466 64.8091 12.2592 64.0495 13.2429C63.3122 14.1736 61.8354 15.3231 59.4719 15.3231C56.3366 15.3231 53.4761 13.3832 53.0418 9.11458C54.272 9.79237 55.6841 10.2173 57.3568 10.1982C61.5829 10.1472 64.8778 8.74275 64.7869 6.62014C64.7747 6.32693 64.7545 6.13995 64.6717 5.82124C63.6798 1.99884 61.0112 0.135452 57.3467 0.135452C52.8882 0.135452 48.9308 2.83811 48.9308 8.64501C48.9308 14.1438 53.2721 17.1248 57.7891 17.1248C61.2981 17.1248 63.2657 15.2402 64.2899 13.7189C64.9687 12.7096 66.1666 11.0268 67.211 9.58202V16.8975H70.8432V6.05921C70.8432 4.47416 72.9098 2.30056 74.9785 2.02222C78.1097 1.61852 79.1723 3.26519 79.1723 5.749V16.8996H82.8045V6.02734C82.8045 2.79774 81.6833 0.126953 77.6067 0.126953ZM52.9771 7.96085C52.86 3.64339 54.9569 0.537027 57.3487 0.537027C59.9304 0.537027 60.9627 2.98047 61.0597 6.33543C61.0597 7.65701 58.7386 8.46866 56.8154 8.65989C55.7427 8.76612 54.466 8.65776 52.9852 8.15633L52.9771 7.96085Z" fill="#44464D"/>
</svg>
