<svg width="182" height="25" viewBox="0 0 182 25" fill="none" xmlns="http://www.w3.org/2000/svg">
<path d="M154.366 18.3037C153.81 18.3037 153.297 18.1987 152.821 17.9858C152.345 17.7728 151.934 17.4758 151.582 17.0949C151.231 16.7139 150.959 16.267 150.76 15.751C150.562 15.2381 150.463 14.6772 150.463 14.0682C150.463 13.4593 150.559 12.8954 150.755 12.3795C150.947 11.8635 151.219 11.4136 151.571 11.0356C151.922 10.6577 152.333 10.3637 152.81 10.1537C153.286 9.94376 153.802 9.83878 154.366 9.83878C154.93 9.83878 155.42 9.93777 155.868 10.1357C156.316 10.3337 156.693 10.5977 157.002 10.9276C157.311 11.2576 157.532 11.6206 157.662 12.0165L156.29 12.7094C156.16 12.3075 155.925 11.9715 155.587 11.7075C155.25 11.4436 154.845 11.3116 154.366 11.3116C153.887 11.3116 153.481 11.4286 153.127 11.6625C152.773 11.8965 152.498 12.2175 152.299 12.6254C152.101 13.0334 152.002 13.5103 152.002 14.0622C152.002 14.6142 152.101 15.0941 152.299 15.5051C152.498 15.916 152.773 16.24 153.127 16.4739C153.481 16.7079 153.892 16.8249 154.366 16.8249C154.839 16.8249 155.25 16.6929 155.587 16.429C155.925 16.165 156.157 15.832 156.29 15.4271L157.662 16.12C157.532 16.5159 157.311 16.8789 157.002 17.2089C156.693 17.5388 156.316 17.8028 155.868 18.0008C155.42 18.1987 154.918 18.2977 154.366 18.2977V18.3037Z" fill="#44464D"/>
<path d="M159.181 18.1717L161.823 9.97076H163.853L166.494 18.1717H164.811L164.281 16.4649H161.389L160.848 18.1717H159.181ZM163.85 15.0461L162.622 11.0956H163.048L161.809 15.0461H163.85Z" fill="#44464D"/>
<path d="M168.354 18.1717V9.97076H171.287C171.82 9.97076 172.294 10.0697 172.702 10.2677C173.11 10.4657 173.433 10.7597 173.668 11.1496C173.904 11.5396 174.023 12.0165 174.023 12.5804C174.023 13.1444 173.898 13.6153 173.648 14.0113C173.399 14.4072 173.065 14.7012 172.651 14.8931L174.428 18.1717H172.69L170.777 14.5602L171.775 15.1751H169.893V18.1687H168.354V18.1717ZM169.893 13.7593H171.307C171.543 13.7593 171.747 13.7113 171.919 13.6093C172.092 13.5103 172.228 13.3723 172.325 13.1954C172.421 13.0184 172.469 12.8144 172.469 12.5804C172.469 12.3465 172.421 12.1395 172.325 11.9655C172.228 11.7885 172.092 11.6505 171.919 11.5516C171.747 11.4526 171.543 11.4016 171.307 11.4016H169.893V13.7593Z" fill="#44464D"/>
<path d="M176.31 18.1717V9.97076H181.5V11.4016H177.849V13.3483H181.29V14.7672H177.849V16.7379H181.5V18.1687H176.31V18.1717Z" fill="#44464D"/>
<path d="M17.8894 19.4946C17.0617 24.054 12.5039 24.624 9.47673 24.624C7.16097 24.624 3.89285 23.88 0.5 22.9172C1.54308 22.1883 2.45578 21.2674 3.18707 20.1485C5.4688 23.6101 7.20916 24.051 8.85598 24.186C10.8855 24.363 13.0822 24.009 13.4563 21.2914C13.9523 17.7398 9.76868 16.249 6.45519 14.2303C3.09636 12.2595 1.02721 10.0218 1.44104 6.38323C2.1043 0.944914 7.28286 0.638952 9.51924 0.638952C11.5884 0.638952 14.5646 1.51184 17.297 2.30074C16.5374 2.91567 15.8571 3.64458 15.2845 4.49347C13.2976 1.8148 11.4438 1.12189 9.31233 1.12189C7.7392 1.12189 5.87413 1.99778 5.58218 4.67345C5.25055 7.70007 8.93818 9.40986 12.3367 11.3836C16.7301 13.8403 18.5527 15.6371 17.8894 19.4946ZM60.8513 0.626953C57.0162 0.626953 53.9153 1.62883 51.6166 4.80243C51.1092 5.40836 50.5027 6.22425 49.7799 7.31612C49.7657 7.33711 49.7487 7.36111 49.7345 7.38211C46.3899 12.4245 41.8292 19.1406 41.8292 19.1406C41.0016 20.1905 39.5135 21.4324 37.2629 21.8943C36.6932 22.0113 36.0753 22.0803 35.4063 22.0803C34.5815 22.0803 33.7709 21.9843 32.9914 21.7893C32.9489 21.7803 32.9092 21.7653 32.8667 21.7563C32.7788 21.7323 32.6909 21.7113 32.6059 21.6843C29.4143 20.7274 26.8605 18.0278 26.3843 13.3184C27.0334 13.6753 27.7165 13.9843 28.4392 14.2303C28.8502 14.3682 29.2782 14.4822 29.7148 14.5752C29.7913 14.5932 29.8678 14.6142 29.9472 14.6292C30.327 14.7042 30.721 14.7522 31.1235 14.7912C31.5515 14.8302 31.9852 14.8572 32.4387 14.8512C35.2193 14.8182 37.7108 14.3652 39.5617 13.5823C41.6592 12.6974 42.9318 11.3926 42.8638 9.79981C42.8468 9.38586 42.8184 9.12189 42.7022 8.67195C42.0928 6.31124 41.0327 4.47847 39.6042 3.16464C37.7674 1.46985 35.3185 0.638952 32.4245 0.638952C26.1688 0.638952 20.6161 4.45447 20.6161 12.6524C20.6161 13.4953 20.6927 14.2932 20.8287 15.0521C20.9279 15.6041 21.0555 16.135 21.2199 16.642C21.2284 16.6659 21.2369 16.6929 21.2454 16.7169C21.4296 17.2689 21.6507 17.7968 21.903 18.2917C21.9653 18.4147 22.0334 18.5347 22.1014 18.6547C22.2403 18.9007 22.382 19.1406 22.5351 19.3716C22.5606 19.4106 22.5918 19.4496 22.6173 19.4886C22.9716 20.0045 23.3684 20.4845 23.7964 20.9254C23.9721 21.1054 24.1535 21.2824 24.3406 21.4504C24.5192 21.6123 24.7034 21.7683 24.8933 21.9183C24.9302 21.9453 24.967 21.9723 25.0039 22.0023C25.2703 22.2093 25.5481 22.4042 25.8315 22.5872C26.0611 22.7342 26.2992 22.8722 26.5402 23.0042C26.7272 23.1061 26.9171 23.2051 27.1099 23.2981C28.1926 23.8201 29.3576 24.192 30.5594 24.408C30.6019 24.414 30.6445 24.426 30.687 24.432C31.1858 24.516 31.6932 24.57 32.2034 24.6C32.4812 24.615 32.7618 24.627 33.0396 24.627C33.2975 24.627 33.5498 24.618 33.7964 24.603C33.9778 24.594 34.1535 24.576 34.3292 24.558C34.3463 24.558 34.3633 24.555 34.3774 24.552C38.4676 24.12 40.8598 21.7623 42.1609 19.8216C42.6881 19.0327 43.4392 17.9498 44.2555 16.7979C44.9188 15.907 45.5934 14.9772 46.2623 13.9843V24.312H51.3587V9.00191C51.3587 6.76419 54.2583 3.69557 57.1608 3.30262C59.7968 2.96066 62.2146 3.30262 65.3099 7.39711C65.701 6.00528 66.2991 4.80243 67.0587 3.78256C65.7917 1.78481 63.459 0.626953 60.8484 0.626953H60.8513ZM26.2907 11.6896C26.1632 6.99216 27.8809 3.31462 30.2108 1.8718C30.9052 1.44285 31.6535 1.20888 32.4217 1.20888C36.0441 1.20888 37.4925 4.65845 37.6286 9.39486C37.6286 10.9817 35.2731 12.0465 32.9092 12.4965C32.4925 12.5745 32.0759 12.6345 31.6734 12.6764C30.1683 12.8264 28.3769 12.6734 26.2992 11.9655L26.2879 11.6896H26.2907ZM142.79 21.7413C142.526 21.9153 142.229 22.0263 141.9 22.0263C140.74 22.0263 140.159 21.3244 140.159 18.6937V8.03903C140.162 2.16276 136.639 0.626953 131.129 0.626953C128.686 0.626953 125.828 1.41585 122.682 2.42373C123.575 3.31162 124.128 4.47847 124.434 5.8163C127.555 2.15976 128.816 1.34086 130.922 1.19988C133.739 1.19988 135.066 2.60371 135.066 5.58533V9.79381C130.259 9.8808 120.108 9.13689 120.108 17.9048C120.108 22.7732 123.589 24.615 127.319 24.615C131.588 24.615 134.199 22.2033 135.151 19.7916C135.069 22.5992 137.098 24.615 139.502 24.615C141.543 24.615 142.761 23.5291 143.524 22.3652L142.798 21.7413H142.79ZM135.063 19.2666C131.914 24.7049 124.995 24.354 124.995 17.3379C124.995 11.7676 129.635 10.1478 135.063 10.3217V19.2666ZM108.688 0.626953C104.853 0.626953 101.752 1.62883 99.4537 4.80243C98.9464 5.40836 98.3398 6.22425 97.617 7.31612C94.2752 12.3555 90.7321 17.7548 89.6664 19.1436C88.6318 20.4575 86.5598 22.0803 83.2435 22.0803C78.8444 22.0803 74.8308 19.3416 74.2214 13.3154C75.9476 14.2722 77.9289 14.8722 80.2758 14.8452C86.2055 14.7732 90.8285 12.7904 90.7009 9.79381C90.6839 9.37986 90.6556 9.11589 90.5394 8.66595C89.1477 3.26962 85.4033 0.638952 80.2616 0.638952C74.006 0.638952 68.4533 4.45447 68.4533 12.6524C68.4533 20.4155 74.5445 24.624 80.8824 24.624C85.8058 24.624 88.5666 21.9633 90.0037 19.8156C90.956 18.3907 92.6369 16.015 94.1023 13.9753V24.303H99.1986V9.00191C99.1986 6.76419 102.098 3.69557 105.001 3.30262C109.394 2.73269 110.885 5.0574 110.885 8.56396V24.306H115.981V8.95691C115.981 4.39748 114.408 0.626953 108.688 0.626953ZM74.1307 11.6866C73.9663 5.59133 76.9085 1.20588 80.2645 1.20588C83.8869 1.20588 85.3353 4.65545 85.4714 9.39186C85.4714 11.2576 82.2146 12.4035 79.5162 12.6734C78.0111 12.8234 76.2197 12.6704 74.142 11.9625L74.1307 11.6866Z" fill="#44464D"/>
</svg>
