<svg width="182" height="25" viewBox="0 0 182 25" fill="none" xmlns="http://www.w3.org/2000/svg">
<path d="M154.381 18.3037C153.825 18.3037 153.312 18.1987 152.836 17.9858C152.36 17.7728 151.949 17.4758 151.597 17.0949C151.246 16.7139 150.974 16.267 150.775 15.751C150.577 15.2381 150.478 14.6772 150.478 14.0682C150.478 13.4593 150.574 12.8954 150.77 12.3795C150.963 11.8635 151.235 11.4136 151.586 11.0356C151.938 10.6577 152.349 10.3637 152.825 10.1537C153.301 9.94376 153.817 9.83878 154.381 9.83878C154.945 9.83878 155.435 9.93777 155.883 10.1357C156.331 10.3337 156.708 10.5977 157.017 10.9276C157.326 11.2576 157.547 11.6206 157.677 12.0165L156.305 12.7094C156.175 12.3075 155.94 11.9715 155.603 11.7075C155.265 11.4436 154.86 11.3116 154.381 11.3116C153.902 11.3116 153.497 11.4286 153.142 11.6625C152.788 11.8965 152.513 12.2175 152.315 12.6254C152.116 13.0334 152.017 13.5103 152.017 14.0622C152.017 14.6142 152.116 15.0941 152.315 15.5051C152.513 15.916 152.788 16.24 153.142 16.4739C153.497 16.7079 153.908 16.8249 154.381 16.8249C154.854 16.8249 155.265 16.6929 155.603 16.429C155.94 16.165 156.172 15.832 156.305 15.4271L157.677 16.12C157.547 16.5159 157.326 16.8789 157.017 17.2089C156.708 17.5388 156.331 17.8028 155.883 18.0008C155.435 18.1987 154.934 18.2977 154.381 18.2977V18.3037Z" fill="#44464D"/>
<path d="M159.197 18.1717L161.838 9.97076H163.868L166.509 18.1717H164.826L164.296 16.4649H161.405L160.863 18.1717H159.197ZM163.865 15.0461L162.638 11.0956H163.063L161.824 15.0461H163.865Z" fill="#44464D"/>
<path d="M168.369 18.1717V9.97076H171.303C171.835 9.97076 172.309 10.0697 172.717 10.2677C173.125 10.4657 173.448 10.7597 173.683 11.1496C173.919 11.5396 174.038 12.0165 174.038 12.5804C174.038 13.1444 173.913 13.6153 173.664 14.0113C173.414 14.4072 173.08 14.7012 172.666 14.8931L174.443 18.1717H172.706L170.792 14.5602L171.79 15.1751H169.908V18.1687H168.369V18.1717ZM169.908 13.7593H171.322C171.558 13.7593 171.762 13.7113 171.935 13.6093C172.108 13.5103 172.244 13.3723 172.34 13.1954C172.436 13.0184 172.485 12.8144 172.485 12.5804C172.485 12.3465 172.436 12.1395 172.34 11.9655C172.244 11.7885 172.108 11.6505 171.935 11.5516C171.762 11.4526 171.558 11.4016 171.322 11.4016H169.908V13.7593Z" fill="#44464D"/>
<path d="M176.325 18.1717V9.97076H181.515V11.4016H177.864V13.3483H181.305V14.7672H177.864V16.7379H181.515V18.1687H176.325V18.1717Z" fill="#44464D"/>
<path d="M17.9045 19.4946C17.0769 24.054 12.5191 24.624 9.49186 24.624C7.17611 24.624 3.90798 23.88 0.515137 22.9172C1.55822 22.1883 2.47091 21.2674 3.2022 20.1485C5.48394 23.6101 7.2243 24.051 8.87112 24.186C10.9006 24.363 13.0973 24.009 13.4714 21.2914C13.9675 17.7398 9.78381 16.249 6.47033 14.2303C3.1115 12.2595 1.04235 10.0218 1.45618 6.38323C2.11944 0.944914 7.29799 0.638952 9.53438 0.638952C11.6035 0.638952 14.5797 1.51184 17.3121 2.30074C16.5525 2.91567 15.8722 3.64458 15.2997 4.49347C13.3127 1.8148 11.459 1.12189 9.32746 1.12189C7.75434 1.12189 5.88927 1.99778 5.59732 4.67345C5.26569 7.70007 8.95332 9.40986 12.3518 11.3836C16.7452 13.8403 18.5678 15.6371 17.9045 19.4946ZM60.8664 0.626953C57.0314 0.626953 53.9305 1.62883 51.6317 4.80243C51.1244 5.40836 50.5178 6.22425 49.795 7.31612C49.7808 7.33711 49.7638 7.36111 49.7497 7.38211C46.405 12.4245 41.8444 19.1406 41.8444 19.1406C41.0167 20.1905 39.5286 21.4324 37.278 21.8943C36.7083 22.0113 36.0904 22.0803 35.4215 22.0803C34.5967 22.0803 33.786 21.9843 33.0065 21.7893C32.964 21.7803 32.9243 21.7653 32.8818 21.7563C32.7939 21.7323 32.7061 21.7113 32.621 21.6843C29.4294 20.7274 26.8756 18.0278 26.3994 13.3184C27.0485 13.6753 27.7316 13.9843 28.4544 14.2303C28.8654 14.3682 29.2934 14.4822 29.7299 14.5752C29.8064 14.5932 29.8829 14.6142 29.9623 14.6292C30.3421 14.7042 30.7361 14.7522 31.1386 14.7912C31.5666 14.8302 32.0003 14.8572 32.4538 14.8512C35.2344 14.8182 37.7259 14.3652 39.5768 13.5823C41.6743 12.6974 42.947 11.3926 42.8789 9.79981C42.8619 9.38586 42.8336 9.12189 42.7174 8.67195C42.108 6.31124 41.0479 4.47847 39.6193 3.16464C37.7826 1.46985 35.3336 0.638952 32.4396 0.638952C26.184 0.638952 20.6313 4.45447 20.6313 12.6524C20.6313 13.4953 20.7078 14.2932 20.8439 15.0521C20.9431 15.6041 21.0706 16.135 21.235 16.642C21.2435 16.6659 21.252 16.6929 21.2605 16.7169C21.4448 17.2689 21.6659 17.7968 21.9181 18.2917C21.9805 18.4147 22.0485 18.5347 22.1165 18.6547C22.2554 18.9007 22.3971 19.1406 22.5502 19.3716C22.5757 19.4106 22.6069 19.4496 22.6324 19.4886C22.9867 20.0045 23.3835 20.4845 23.8115 20.9254C23.9873 21.1054 24.1687 21.2824 24.3558 21.4504C24.5343 21.6123 24.7186 21.7683 24.9085 21.9183C24.9453 21.9453 24.9822 21.9723 25.019 22.0023C25.2855 22.2093 25.5632 22.4042 25.8467 22.5872C26.0763 22.7342 26.3144 22.8722 26.5553 23.0042C26.7424 23.1061 26.9323 23.2051 27.125 23.2981C28.2078 23.8201 29.3727 24.192 30.5746 24.408C30.6171 24.414 30.6596 24.426 30.7021 24.432C31.201 24.516 31.7083 24.57 32.2185 24.6C32.4963 24.615 32.7769 24.627 33.0547 24.627C33.3126 24.627 33.5649 24.618 33.8115 24.603C33.9929 24.594 34.1686 24.576 34.3444 24.558C34.3614 24.558 34.3784 24.555 34.3926 24.552C38.4827 24.12 40.875 21.7623 42.176 19.8216C42.7032 19.0327 43.4543 17.9498 44.2707 16.7979C44.9339 15.907 45.6085 14.9772 46.2775 13.9843V24.312H51.3738V9.00191C51.3738 6.76419 54.2735 3.69557 57.1759 3.30262C59.812 2.96066 62.2298 3.30262 65.325 7.39711C65.7162 6.00528 66.3142 4.80243 67.0739 3.78256C65.8069 1.78481 63.4741 0.626953 60.8636 0.626953H60.8664ZM26.3059 11.6896C26.1783 6.99216 27.896 3.31462 30.2259 1.8718C30.9204 1.44285 31.6687 1.20888 32.4368 1.20888C36.0592 1.20888 37.5076 4.65845 37.6437 9.39486C37.6437 10.9817 35.2883 12.0465 32.9243 12.4965C32.5077 12.5745 32.091 12.6345 31.6885 12.6764C30.1834 12.8264 28.392 12.6734 26.3144 11.9655L26.303 11.6896H26.3059ZM142.805 21.7413C142.541 21.9153 142.244 22.0263 141.915 22.0263C140.756 22.0263 140.175 21.3244 140.175 18.6937V8.03903C140.177 2.16276 136.654 0.626953 131.144 0.626953C128.701 0.626953 125.844 1.41585 122.697 2.42373C123.59 3.31162 124.143 4.47847 124.449 5.8163C127.57 2.15976 128.831 1.34086 130.937 1.19988C133.754 1.19988 135.081 2.60371 135.081 5.58533V9.79381C130.274 9.8808 120.124 9.13689 120.124 17.9048C120.124 22.7732 123.604 24.615 127.334 24.615C131.603 24.615 134.214 22.2033 135.166 19.7916C135.084 22.5992 137.113 24.615 139.517 24.615C141.558 24.615 142.777 23.5291 143.539 22.3652L142.813 21.7413H142.805ZM135.078 19.2666C131.929 24.7049 125.01 24.354 125.01 17.3379C125.01 11.7676 129.65 10.1478 135.078 10.3217V19.2666ZM108.704 0.626953C104.869 0.626953 101.768 1.62883 99.4689 4.80243C98.9615 5.40836 98.3549 6.22425 97.6321 7.31612C94.2903 12.3555 90.7473 17.7548 89.6815 19.1436C88.6469 20.4575 86.5749 22.0803 83.2586 22.0803C78.8595 22.0803 74.8459 19.3416 74.2365 13.3154C75.9627 14.2722 77.944 14.8722 80.2909 14.8452C86.2206 14.7732 90.8436 12.7904 90.7161 9.79381C90.6991 9.37986 90.6707 9.11589 90.5545 8.66595C89.1628 3.26962 85.4185 0.638952 80.2768 0.638952C74.0211 0.638952 68.4684 4.45447 68.4684 12.6524C68.4684 20.4155 74.5597 24.624 80.8975 24.624C85.821 24.624 88.5817 21.9633 90.0188 19.8156C90.9712 18.3907 92.652 16.015 94.1174 13.9753V24.303H99.2138V9.00191C99.2138 6.76419 102.113 3.69557 105.016 3.30262C109.409 2.73269 110.9 5.0574 110.9 8.56396V24.306H115.997V8.95691C115.997 4.39748 114.423 0.626953 108.704 0.626953ZM74.1458 11.6866C73.9814 5.59133 76.9236 1.20588 80.2796 1.20588C83.902 1.20588 85.3504 4.65545 85.4865 9.39186C85.4865 11.2576 82.2297 12.4035 79.5313 12.6734C78.0262 12.8234 76.2348 12.6704 74.1572 11.9625L74.1458 11.6866Z" fill="#44464D"/>
</svg>
