<svg width="225" height="30" viewBox="0 0 225 30" fill="none" xmlns="http://www.w3.org/2000/svg">
<path d="M190.434 21.9194C189.747 21.9194 189.112 21.7914 188.523 21.5318C187.933 21.2722 187.425 20.9102 186.99 20.4459C186.555 19.9815 186.218 19.4368 185.973 18.8079C185.727 18.1827 185.604 17.4989 185.604 16.7567C185.604 16.0145 185.723 15.3271 185.965 14.6982C186.204 14.0694 186.541 13.5209 186.976 13.0602C187.411 12.5995 187.919 12.2412 188.509 11.9853C189.098 11.7294 189.736 11.6014 190.434 11.6014C191.133 11.6014 191.739 11.722 192.294 11.9634C192.848 12.2047 193.314 12.5264 193.697 12.9286C194.079 13.3308 194.353 13.7732 194.514 14.2558L192.816 15.1004C192.655 14.6105 192.364 14.201 191.946 13.8792C191.529 13.5575 191.027 13.3966 190.434 13.3966C189.842 13.3966 189.34 13.5392 188.902 13.8244C188.463 14.1096 188.123 14.5008 187.877 14.9981C187.632 15.4953 187.509 16.0766 187.509 16.7494C187.509 17.4222 187.632 18.0072 187.877 18.5081C188.123 19.009 188.463 19.4038 188.902 19.689C189.34 19.9742 189.849 20.1168 190.434 20.1168C191.02 20.1168 191.529 19.9559 191.946 19.6342C192.364 19.3124 192.651 18.9066 192.816 18.413L194.514 19.2576C194.353 19.7402 194.079 20.1826 193.697 20.5848C193.314 20.987 192.848 21.3088 192.294 21.5501C191.739 21.7914 191.119 21.912 190.434 21.912V21.9194Z" fill="#44464D"/>
<path d="M196.394 21.7585L199.664 11.7623H202.175L205.444 21.7585H203.361L202.705 19.6781H199.127L198.457 21.7585H196.394ZM202.172 17.9487L200.653 13.1334H201.179L199.646 17.9487H202.172Z" fill="#44464D"/>
<path d="M207.746 21.7585V11.7623H211.376C212.036 11.7623 212.622 11.8829 213.127 12.1242C213.632 12.3655 214.032 12.7239 214.323 13.1992C214.614 13.6745 214.761 14.2558 214.761 14.9432C214.761 15.6306 214.607 16.2046 214.298 16.6872C213.99 17.1699 213.576 17.5282 213.064 17.7622L215.263 21.7585H213.113L210.745 17.3563L211.98 18.1059H209.65V21.7548H207.746V21.7585ZM209.65 16.3801H211.401C211.692 16.3801 211.944 16.3216 212.158 16.1973C212.372 16.0767 212.541 15.9085 212.66 15.6927C212.779 15.477 212.839 15.2284 212.839 14.9432C212.839 14.658 212.779 14.4057 212.66 14.1937C212.541 13.978 212.372 13.8098 212.158 13.6891C211.944 13.5685 211.692 13.5063 211.401 13.5063H209.65V16.3801Z" fill="#44464D"/>
<path d="M217.592 21.7585V11.7623H224.015V13.5063H219.497V15.8792H223.755V17.6086H219.497V20.0108H224.015V21.7548H217.592V21.7585Z" fill="#44464D"/>
<path d="M21.5356 23.3709C20.5113 28.9284 14.8707 29.6231 11.1243 29.6231C8.25843 29.6231 4.21389 28.7164 0.0150146 27.5427C1.3059 26.6542 2.43542 25.5318 3.34044 24.168C6.16425 28.3873 8.31806 28.9248 10.3561 29.0893C12.8677 29.305 15.5863 28.8736 16.0493 25.561C16.6632 21.232 11.4856 19.4148 7.38498 16.9542C3.22819 14.552 0.667472 11.8245 1.17962 7.38941C2.00045 0.76061 8.40927 0.387672 11.1769 0.387672C13.7377 0.387672 17.4209 1.45164 20.8025 2.41324C19.8624 3.16277 19.0205 4.05124 18.3119 5.08597C15.8529 1.82093 13.5588 0.97633 10.9209 0.97633C8.97403 0.97633 6.66587 2.04396 6.30457 5.30534C5.89415 8.99451 10.4578 11.0786 14.6637 13.4844C20.1009 16.4789 22.3564 18.669 21.5356 23.3709ZM74.7039 0.373047C69.9578 0.373047 66.1202 1.59424 63.2753 5.46256C62.6474 6.20112 61.8968 7.19563 61.0023 8.52651C60.9847 8.5521 60.9637 8.58135 60.9461 8.60694C56.8069 14.7531 51.1628 22.9395 51.1628 22.9395C50.1385 24.2192 48.2969 25.7329 45.5117 26.2959C44.8066 26.4385 44.0419 26.5226 43.214 26.5226C42.1932 26.5226 41.19 26.4056 40.2253 26.168C40.1727 26.157 40.1236 26.1387 40.071 26.1277C39.9623 26.0985 39.8535 26.0729 39.7483 26.04C35.7985 24.8736 32.6379 21.583 32.0486 15.8427C32.8519 16.2778 33.6973 16.6544 34.5918 16.9542C35.1004 17.1224 35.6301 17.2613 36.1703 17.3747C36.265 17.3966 36.3597 17.4222 36.4579 17.4405C36.928 17.5319 37.4156 17.5904 37.9137 17.6379C38.4434 17.6854 38.9801 17.7183 39.5413 17.711C42.9825 17.6708 46.0659 17.1187 48.3565 16.1644C50.9523 15.0858 52.5273 13.4954 52.4431 11.5539C52.4221 11.0493 52.387 10.7276 52.2432 10.1791C51.489 7.30166 50.1771 5.06768 48.4091 3.46624C46.136 1.40046 43.1053 0.387672 39.5238 0.387672C31.782 0.387672 24.9101 5.03843 24.9101 15.031C24.9101 16.0584 25.0048 17.031 25.1732 17.956C25.296 18.6287 25.4538 19.2759 25.6573 19.8938C25.6678 19.9231 25.6783 19.956 25.6889 19.9852C25.9169 20.658 26.1905 21.3015 26.5027 21.9048C26.5799 22.0547 26.664 22.2009 26.7482 22.3472C26.9201 22.647 27.0955 22.9395 27.2849 23.221C27.3165 23.2685 27.3551 23.3161 27.3867 23.3636C27.8251 23.9925 28.3162 24.5775 28.8459 25.115C29.0634 25.3343 29.2879 25.55 29.5194 25.7548C29.7404 25.9522 29.9684 26.1424 30.2035 26.3252C30.2491 26.3581 30.2947 26.391 30.3403 26.4276C30.67 26.6798 31.0138 26.9175 31.3646 27.1405C31.6487 27.3197 31.9433 27.4879 32.2415 27.6487C32.473 27.7731 32.7081 27.8937 32.9466 28.0071C34.2866 28.6432 35.7283 29.0966 37.2156 29.3599C37.2682 29.3672 37.3209 29.3818 37.3735 29.3891C37.9909 29.4915 38.6188 29.5573 39.2502 29.5939C39.5939 29.6122 39.9412 29.6268 40.285 29.6268C40.6042 29.6268 40.9164 29.6158 41.2216 29.5975C41.4461 29.5866 41.6636 29.5646 41.881 29.5427C41.9021 29.5427 41.9231 29.539 41.9407 29.5354C47.0025 29.0089 49.9631 26.135 51.5732 23.7695C52.2257 22.8079 53.1552 21.4879 54.1655 20.0839C54.9863 18.998 55.8212 17.8646 56.649 16.6544V29.2429H62.9561V10.5813C62.9561 7.85375 66.5446 4.1134 70.1367 3.63443C73.399 3.21762 76.3911 3.63443 80.2217 8.62522C80.7058 6.92872 81.4459 5.46256 82.386 4.21943C80.818 1.78436 77.9311 0.373047 74.7004 0.373047H74.7039ZM31.9328 13.8573C31.775 8.13163 33.9007 3.64906 36.7842 1.89039C37.6436 1.36755 38.5696 1.08236 39.5203 1.08236C44.0033 1.08236 45.7958 5.28706 45.9642 11.0603C45.9642 12.9945 43.0492 14.2924 40.1236 14.8409C39.608 14.9359 39.0923 15.0091 38.5942 15.0602C36.7315 15.2431 34.5146 15.0566 31.9433 14.1937L31.9293 13.8573H31.9328ZM176.108 26.1095C175.782 26.3215 175.414 26.4568 175.007 26.4568C173.572 26.4568 172.853 25.6012 172.853 22.3947V9.40766C172.857 2.24505 168.496 0.373047 161.677 0.373047C158.653 0.373047 155.118 1.33464 151.224 2.56315C152.329 3.6454 153.013 5.06768 153.392 6.69837C157.254 2.2414 158.815 1.24324 161.421 1.07139C164.908 1.07139 166.55 2.78252 166.55 6.41684V11.5466C160.6 11.6526 148.039 10.7459 148.039 21.4331C148.039 27.3672 152.346 29.6122 156.963 29.6122C162.245 29.6122 165.476 26.6725 166.655 23.7329C166.553 27.1551 169.065 29.6122 172.039 29.6122C174.565 29.6122 176.073 28.2886 177.017 26.87L176.119 26.1095H176.108ZM166.546 23.093C162.649 29.7218 154.086 29.2941 154.086 20.7421C154.086 13.9524 159.829 11.978 166.546 12.1901V23.093ZM133.906 0.373047C129.16 0.373047 125.322 1.59424 122.477 5.46256C121.849 6.20112 121.099 7.19563 120.204 8.52651C116.068 14.669 111.683 21.2503 110.365 22.9431C109.084 24.5446 106.52 26.5226 102.416 26.5226C96.9716 26.5226 92.0045 23.1844 91.2503 15.839C93.3866 17.0054 95.8386 17.7366 98.7431 17.7037C106.081 17.616 111.803 15.1992 111.645 11.5466C111.624 11.042 111.589 10.7203 111.445 10.1718C109.723 3.59421 105.089 0.387672 98.7255 0.387672C90.9837 0.387672 84.1119 5.03843 84.1119 15.031C84.1119 24.4934 91.6502 29.6231 99.4938 29.6231C105.587 29.6231 109.004 26.38 110.782 23.7621C111.961 22.0254 114.041 19.1297 115.854 16.6434V29.2319H122.161V10.5813C122.161 7.85375 125.75 4.1134 129.342 3.63443C134.779 2.93974 136.624 5.77334 136.624 10.0475V29.2356H142.931V10.5265C142.931 4.96897 140.984 0.373047 133.906 0.373047ZM91.1381 13.8537C90.9346 6.42416 94.5758 1.0787 98.729 1.0787C103.212 1.0787 105.005 5.2834 105.173 11.0566C105.173 13.3308 101.142 14.7275 97.803 15.0566C95.9403 15.2394 93.7234 15.0529 91.1521 14.1901L91.1381 13.8537Z" fill="#44464D"/>
</svg>
