<svg width="130" height="18" viewBox="0 0 130 18" fill="none" xmlns="http://www.w3.org/2000/svg">
<path d="M110.176 12.648C109.78 12.648 109.415 12.5736 109.075 12.4228C108.736 12.2719 108.443 12.0616 108.193 11.7917C107.942 11.5219 107.748 11.2053 107.607 10.8398C107.465 10.4765 107.395 10.0792 107.395 9.64787C107.395 9.21655 107.463 8.8171 107.603 8.45165C107.74 8.08619 107.934 7.76748 108.184 7.49976C108.435 7.23205 108.728 7.02382 109.067 6.87509C109.407 6.72636 109.774 6.652 110.176 6.652C110.578 6.652 110.928 6.72211 111.247 6.86234C111.566 7.00258 111.835 7.18955 112.055 7.42327C112.275 7.65699 112.433 7.91409 112.526 8.19455L111.548 8.68537C111.455 8.40065 111.287 8.16268 111.047 7.9757C110.807 7.78873 110.518 7.69524 110.176 7.69524C109.835 7.69524 109.546 7.7781 109.294 7.94383C109.041 8.10956 108.845 8.33691 108.704 8.62587C108.562 8.91484 108.492 9.25267 108.492 9.64362C108.492 10.0346 108.562 10.3745 108.704 10.6656C108.845 10.9567 109.041 11.1862 109.294 11.3519C109.546 11.5176 109.839 11.6005 110.176 11.6005C110.514 11.6005 110.807 11.507 111.047 11.32C111.287 11.1331 111.453 10.8972 111.548 10.6104L112.526 11.1012C112.433 11.3817 112.275 11.6387 112.055 11.8725C111.835 12.1062 111.566 12.2932 111.247 12.4334C110.928 12.5736 110.57 12.6437 110.176 12.6437V12.648Z" fill="#44464D"/>
<path d="M113.609 12.5545L115.491 6.74548H116.938L118.821 12.5545H117.621L117.243 11.3455H115.182L114.796 12.5545H113.609ZM116.936 10.3405L116.061 7.54226H116.364L115.481 10.3405H116.936Z" fill="#44464D"/>
<path d="M120.146 12.5545V6.74548H122.237C122.616 6.74548 122.954 6.8156 123.245 6.95583C123.535 7.09607 123.766 7.30429 123.933 7.5805C124.101 7.85672 124.186 8.19455 124.186 8.594C124.186 8.99345 124.097 9.32704 123.919 9.6075C123.742 9.88797 123.503 10.0962 123.208 10.2322L124.475 12.5545H123.237L121.873 9.99633L122.584 10.4319H121.243V12.5524H120.146V12.5545ZM121.243 9.42902H122.251C122.418 9.42902 122.564 9.39503 122.687 9.32279C122.81 9.25267 122.907 9.15493 122.976 9.02957C123.045 8.90421 123.079 8.75973 123.079 8.594C123.079 8.42827 123.045 8.28167 122.976 8.15843C122.907 8.03307 122.81 7.93533 122.687 7.86522C122.564 7.7951 122.418 7.75898 122.251 7.75898H121.243V9.42902Z" fill="#44464D"/>
<path d="M125.816 12.5545V6.74548H129.515V7.75898H126.913V9.13793H129.366V10.1429H126.913V11.5389H129.515V12.5524H125.816V12.5545Z" fill="#44464D"/>
<path d="M12.9087 13.4915C12.3188 16.7211 9.07042 17.1248 6.91291 17.1248C5.26246 17.1248 2.93324 16.5979 0.515137 15.9159C1.25855 15.3995 1.90903 14.7473 2.43023 13.9547C4.05644 16.4067 5.2968 16.719 6.4705 16.8146C7.91692 16.94 9.48253 16.6893 9.74919 14.7642C10.1027 12.2486 7.12099 11.1926 4.75945 9.76262C2.36558 8.36667 0.890882 6.78162 1.18582 4.20432C1.65853 0.352175 5.34933 0.135452 6.94322 0.135452C8.41792 0.135452 10.5391 0.75375 12.4865 1.31255C11.9451 1.74813 11.4602 2.26444 11.0522 2.86574C9.63606 0.968348 8.31489 0.477534 6.79575 0.477534C5.67457 0.477534 4.34532 1.09796 4.13724 2.99322C3.90089 5.13708 6.52909 6.34818 8.95123 7.74625C12.0824 9.48641 13.3814 10.7591 12.9087 13.4915ZM43.5279 0.126953C40.7947 0.126953 38.5846 0.836615 36.9463 3.08458C36.5847 3.51378 36.1524 4.09171 35.6373 4.86511C35.6272 4.87998 35.615 4.89698 35.6049 4.91186C33.2212 8.48353 29.9708 13.2408 29.9708 13.2408C29.3809 13.9845 28.3203 14.8641 26.7163 15.1913C26.3103 15.2742 25.8699 15.3231 25.3931 15.3231C24.8053 15.3231 24.2275 15.2551 23.672 15.117C23.6417 15.1106 23.6134 15.1 23.5831 15.0936C23.5205 15.0766 23.4578 15.0617 23.3972 15.0426C21.1226 14.3648 19.3024 12.4525 18.963 9.1167C19.4256 9.36955 19.9125 9.5884 20.4276 9.76262C20.7206 9.86036 21.0256 9.9411 21.3367 10.007C21.3912 10.0197 21.4458 10.0346 21.5024 10.0452C21.7731 10.0983 22.0539 10.1323 22.3407 10.1599C22.6458 10.1876 22.9548 10.2067 23.2781 10.2024C25.2598 10.1791 27.0355 9.85824 28.3547 9.30368C29.8496 8.67688 30.7566 7.75262 30.7081 6.62439C30.696 6.33118 30.6758 6.1442 30.593 5.82549C30.1586 4.15332 29.4031 2.85511 28.385 1.92448C27.0759 0.724003 25.3305 0.135452 23.268 0.135452C18.8095 0.135452 14.8521 2.83811 14.8521 8.64501C14.8521 9.24206 14.9066 9.80724 15.0036 10.3448C15.0743 10.7358 15.1652 11.1118 15.2823 11.4709C15.2884 11.4879 15.2945 11.507 15.3005 11.524C15.4318 11.915 15.5894 12.2889 15.7692 12.6395C15.8136 12.7266 15.8621 12.8116 15.9106 12.8966C16.0096 13.0708 16.1106 13.2408 16.2197 13.4044C16.2379 13.432 16.2601 13.4597 16.2783 13.4873C16.5308 13.8527 16.8136 14.1927 17.1187 14.505C17.2439 14.6325 17.3732 14.7579 17.5065 14.8769C17.6338 14.9916 17.7651 15.1021 17.9004 15.2083C17.9267 15.2274 17.953 15.2466 17.9792 15.2678C18.1691 15.4144 18.3671 15.5525 18.5691 15.6821C18.7327 15.7862 18.9024 15.884 19.0741 15.9775C19.2075 16.0497 19.3428 16.1198 19.4802 16.1857C20.2519 16.5554 21.0822 16.8189 21.9387 16.9718C21.969 16.9761 21.9993 16.9846 22.0296 16.9888C22.3852 17.0483 22.7468 17.0866 23.1104 17.1078C23.3084 17.1185 23.5084 17.127 23.7063 17.127C23.8902 17.127 24.0699 17.1206 24.2457 17.11C24.375 17.1036 24.5002 17.0908 24.6255 17.0781C24.6376 17.0781 24.6497 17.076 24.6598 17.0738C27.5749 16.7679 29.2799 15.0978 30.2071 13.7231C30.5829 13.1643 31.1182 12.3973 31.7 11.5814C32.1727 10.9504 32.6535 10.2917 33.1303 9.5884V16.9039H36.7625V6.05921C36.7625 4.47416 38.8291 2.30056 40.8977 2.02222C42.7764 1.78 44.4996 2.02222 46.7056 4.92248C46.9844 3.9366 47.4106 3.08458 47.952 2.36217C47.049 0.947101 45.3864 0.126953 43.5259 0.126953H43.5279ZM18.8964 7.96297C18.8055 4.63564 20.0297 2.03072 21.6902 1.00872C22.1852 0.704881 22.7185 0.539152 23.2659 0.539152C25.8477 0.539152 26.88 2.9826 26.9769 6.33755C26.9769 7.46154 25.2982 8.21582 23.6134 8.53453C23.3164 8.58977 23.0195 8.63227 22.7326 8.66201C21.6599 8.76825 20.3832 8.65989 18.9024 8.15845L18.8944 7.96297H18.8964ZM101.926 15.083C101.738 15.2062 101.526 15.2848 101.292 15.2848C100.466 15.2848 100.051 14.7876 100.051 12.9242V5.37717C100.053 1.21482 97.5424 0.126953 93.6152 0.126953C91.8739 0.126953 89.8376 0.685758 87.5952 1.39967C88.2316 2.02859 88.6255 2.85511 88.8437 3.80274C91.0678 1.21269 91.9668 0.63264 93.4678 0.532777C95.4758 0.532777 96.4212 1.52715 96.4212 3.63914V6.62014C92.995 6.68176 85.7609 6.15482 85.7609 12.3654C85.7609 15.8139 88.2417 17.1185 90.9002 17.1185C93.9425 17.1185 95.803 15.4102 96.4818 13.7019C96.4232 15.6906 97.8696 17.1185 99.5827 17.1185C101.037 17.1185 101.906 16.3493 102.449 15.5249L101.932 15.083H101.926ZM96.4192 13.3301C94.1748 17.1822 89.2436 16.9336 89.2436 11.9638C89.2436 8.01822 92.5506 6.87086 96.4192 6.99409V13.3301ZM77.6218 0.126953C74.8885 0.126953 72.6785 0.836615 71.0402 3.08458C70.6786 3.51378 70.2463 4.09171 69.7311 4.86511C67.3494 8.43466 64.8242 12.2592 64.0646 13.2429C63.3273 14.1736 61.8506 15.3231 59.487 15.3231C56.3518 15.3231 53.4912 13.3832 53.0569 9.11458C54.2872 9.79237 55.6993 10.2173 57.3719 10.1982C61.5981 10.1472 64.8929 8.74275 64.802 6.62014C64.7899 6.32693 64.7697 6.13995 64.6868 5.82124C63.695 1.99884 61.0264 0.135452 57.3618 0.135452C52.9034 0.135452 48.9459 2.83811 48.9459 8.64501C48.9459 14.1438 53.2872 17.1248 57.8042 17.1248C61.3132 17.1248 63.2808 15.2402 64.305 13.7189C64.9838 12.7096 66.1817 11.0268 67.2262 9.58202V16.8975H70.8584V6.05921C70.8584 4.47416 72.925 2.30056 74.9936 2.02222C78.1248 1.61852 79.1874 3.26519 79.1874 5.749V16.8996H82.8196V6.02734C82.8196 2.79774 81.6984 0.126953 77.6218 0.126953ZM52.9923 7.96085C52.8751 3.64339 54.972 0.537027 57.3638 0.537027C59.9456 0.537027 60.9779 2.98047 61.0748 6.33543C61.0748 7.65701 58.7537 8.46866 56.8305 8.65989C55.7578 8.76612 54.4811 8.65776 53.0003 8.15633L52.9923 7.96085Z" fill="#44464D"/>
</svg>
