<svg width="224" height="30" viewBox="0 0 224 30" fill="none" xmlns="http://www.w3.org/2000/svg">
<path d="M190.419 21.9194C189.732 21.9194 189.097 21.7914 188.508 21.5318C187.918 21.2722 187.41 20.9102 186.975 20.4459C186.54 19.9815 186.203 19.4368 185.958 18.8079C185.712 18.1827 185.589 17.4989 185.589 16.7567C185.589 16.0145 185.708 15.3271 185.95 14.6982C186.189 14.0694 186.526 13.5209 186.961 13.0602C187.396 12.5995 187.904 12.2412 188.494 11.9853C189.083 11.7294 189.721 11.6014 190.419 11.6014C191.118 11.6014 191.724 11.722 192.279 11.9634C192.833 12.2047 193.299 12.5264 193.682 12.9286C194.064 13.3308 194.338 13.7732 194.499 14.2558L192.801 15.1004C192.64 14.6105 192.349 14.201 191.931 13.8792C191.514 13.5575 191.012 13.3966 190.419 13.3966C189.827 13.3966 189.325 13.5392 188.887 13.8244C188.448 14.1096 188.108 14.5008 187.862 14.9981C187.617 15.4953 187.494 16.0766 187.494 16.7494C187.494 17.4222 187.617 18.0072 187.862 18.5081C188.108 19.009 188.448 19.4038 188.887 19.689C189.325 19.9742 189.834 20.1168 190.419 20.1168C191.005 20.1168 191.514 19.9559 191.931 19.6342C192.349 19.3124 192.636 18.9066 192.801 18.413L194.499 19.2576C194.338 19.7402 194.064 20.1826 193.682 20.5848C193.299 20.987 192.833 21.3088 192.279 21.5501C191.724 21.7914 191.104 21.912 190.419 21.912V21.9194Z" fill="#44464D"/>
<path d="M196.379 21.7585L199.649 11.7623H202.16L205.429 21.7585H203.346L202.69 19.6781H199.112L198.442 21.7585H196.379ZM202.157 17.9487L200.638 13.1334H201.164L199.631 17.9487H202.157Z" fill="#44464D"/>
<path d="M207.731 21.7585V11.7623H211.361C212.021 11.7623 212.606 11.8829 213.112 12.1242C213.617 12.3655 214.017 12.7239 214.308 13.1992C214.599 13.6745 214.746 14.2558 214.746 14.9432C214.746 15.6306 214.592 16.2046 214.283 16.6872C213.975 17.1699 213.561 17.5282 213.048 17.7622L215.248 21.7585H213.098L210.73 17.3563L211.965 18.1059H209.635V21.7548H207.731V21.7585ZM209.635 16.3801H211.386C211.677 16.3801 211.929 16.3216 212.143 16.1973C212.357 16.0767 212.526 15.9085 212.645 15.6927C212.764 15.477 212.824 15.2284 212.824 14.9432C212.824 14.658 212.764 14.4057 212.645 14.1937C212.526 13.978 212.357 13.8098 212.143 13.6891C211.929 13.5685 211.677 13.5063 211.386 13.5063H209.635V16.3801Z" fill="#44464D"/>
<path d="M217.577 21.7585V11.7623H224V13.5063H219.482V15.8792H223.74V17.6086H219.482V20.0108H224V21.7548H217.577V21.7585Z" fill="#44464D"/>
<path d="M21.5206 23.3709C20.4963 28.9284 14.8557 29.6231 11.1093 29.6231C8.24342 29.6231 4.19888 28.7164 0 27.5427C1.29088 26.6542 2.42041 25.5318 3.32543 24.168C6.14924 28.3873 8.30305 28.9248 10.3411 29.0893C12.8527 29.305 15.5713 28.8736 16.0343 25.561C16.6482 21.232 11.4706 19.4148 7.36996 16.9542C3.21318 14.552 0.652458 11.8245 1.1646 7.38941C1.98544 0.76061 8.39425 0.387672 11.1619 0.387672C13.7227 0.387672 17.4059 1.45164 20.7874 2.41324C19.8473 3.16277 19.0055 4.05124 18.2969 5.08597C15.8379 1.82093 13.5438 0.97633 10.9059 0.97633C8.95901 0.97633 6.65086 2.04396 6.28955 5.30534C5.87913 8.99451 10.4428 11.0786 14.6487 13.4844C20.0859 16.4789 22.3414 18.669 21.5206 23.3709ZM74.6889 0.373047C69.9428 0.373047 66.1052 1.59424 63.2603 5.46256C62.6324 6.20112 61.8817 7.19563 60.9872 8.52651C60.9697 8.5521 60.9487 8.58135 60.9311 8.60694C56.7919 14.7531 51.1478 22.9395 51.1478 22.9395C50.1235 24.2192 48.2819 25.7329 45.4966 26.2959C44.7916 26.4385 44.0269 26.5226 43.199 26.5226C42.1782 26.5226 41.175 26.4056 40.2103 26.168C40.1577 26.157 40.1086 26.1387 40.056 26.1277C39.9472 26.0985 39.8385 26.0729 39.7333 26.04C35.7834 24.8736 32.6229 21.583 32.0336 15.8427C32.8369 16.2778 33.6822 16.6544 34.5767 16.9542C35.0854 17.1224 35.6151 17.2613 36.1553 17.3747C36.25 17.3966 36.3447 17.4222 36.4429 17.4405C36.913 17.5319 37.4006 17.5904 37.8987 17.6379C38.4283 17.6854 38.965 17.7183 39.5263 17.711C42.9675 17.6708 46.0509 17.1187 48.3415 16.1644C50.9373 15.0858 52.5123 13.4954 52.4281 11.5539C52.4071 11.0493 52.372 10.7276 52.2282 10.1791C51.474 7.30166 50.1621 5.06768 48.3941 3.46624C46.121 1.40046 43.0903 0.387672 39.5088 0.387672C31.767 0.387672 24.8951 5.03843 24.8951 15.031C24.8951 16.0584 24.9898 17.031 25.1582 17.956C25.281 18.6287 25.4388 19.2759 25.6423 19.8938C25.6528 19.9231 25.6633 19.956 25.6739 19.9852C25.9019 20.658 26.1755 21.3015 26.4877 21.9048C26.5648 22.0547 26.649 22.2009 26.7332 22.3472C26.9051 22.647 27.0805 22.9395 27.2699 23.221C27.3015 23.2685 27.3401 23.3161 27.3716 23.3636C27.8101 23.9925 28.3012 24.5775 28.8309 25.115C29.0484 25.3343 29.2729 25.55 29.5044 25.7548C29.7254 25.9522 29.9534 26.1424 30.1884 26.3252C30.234 26.3581 30.2796 26.391 30.3252 26.4276C30.655 26.6798 30.9988 26.9175 31.3495 27.1405C31.6337 27.3197 31.9283 27.4879 32.2265 27.6487C32.458 27.7731 32.693 27.8937 32.9316 28.0071C34.2716 28.6432 35.7133 29.0966 37.2006 29.3599C37.2532 29.3672 37.3058 29.3818 37.3585 29.3891C37.9758 29.4915 38.6037 29.5573 39.2352 29.5939C39.5789 29.6122 39.9262 29.6268 40.27 29.6268C40.5892 29.6268 40.9014 29.6158 41.2066 29.5975C41.4311 29.5866 41.6485 29.5646 41.866 29.5427C41.8871 29.5427 41.9081 29.539 41.9257 29.5354C46.9875 29.0089 49.9481 26.135 51.5582 23.7695C52.2106 22.8079 53.1402 21.4879 54.1505 20.0839C54.9713 18.998 55.8062 17.8646 56.634 16.6544V29.2429H62.9411V10.5813C62.9411 7.85375 66.5296 4.1134 70.1217 3.63443C73.3839 3.21762 76.3761 3.63443 80.2067 8.62522C80.6908 6.92872 81.4309 5.46256 82.371 4.21943C80.803 1.78436 77.9161 0.373047 74.6853 0.373047H74.6889ZM31.9178 13.8573C31.76 8.13163 33.8857 3.64906 36.7691 1.89039C37.6286 1.36755 38.5546 1.08236 39.5053 1.08236C43.9883 1.08236 45.7808 5.28706 45.9491 11.0603C45.9491 12.9945 43.0341 14.2924 40.1086 14.8409C39.593 14.9359 39.0773 15.0091 38.5792 15.0602C36.7165 15.2431 34.4996 15.0566 31.9283 14.1937L31.9143 13.8573H31.9178ZM176.093 26.1095C175.767 26.3215 175.399 26.4568 174.992 26.4568C173.557 26.4568 172.838 25.6012 172.838 22.3947V9.40766C172.842 2.24505 168.481 0.373047 161.662 0.373047C158.638 0.373047 155.103 1.33464 151.209 2.56315C152.314 3.6454 152.998 5.06768 153.377 6.69837C157.239 2.2414 158.8 1.24324 161.406 1.07139C164.893 1.07139 166.535 2.78252 166.535 6.41684V11.5466C160.585 11.6526 148.024 10.7459 148.024 21.4331C148.024 27.3672 152.331 29.6122 156.948 29.6122C162.23 29.6122 165.461 26.6725 166.64 23.7329C166.538 27.1551 169.05 29.6122 172.024 29.6122C174.55 29.6122 176.058 28.2886 177.002 26.87L176.104 26.1095H176.093ZM166.531 23.093C162.634 29.7218 154.071 29.2941 154.071 20.7421C154.071 13.9524 159.814 11.978 166.531 12.1901V23.093ZM133.891 0.373047C129.145 0.373047 125.307 1.59424 122.462 5.46256C121.834 6.20112 121.084 7.19563 120.189 8.52651C116.053 14.669 111.668 21.2503 110.35 22.9431C109.069 24.5446 106.505 26.5226 102.401 26.5226C96.9566 26.5226 91.9895 23.1844 91.2353 15.839C93.3716 17.0054 95.8236 17.7366 98.7281 17.7037C106.066 17.616 111.788 15.1992 111.63 11.5466C111.609 11.042 111.574 10.7203 111.43 10.1718C109.708 3.59421 105.074 0.387672 98.7105 0.387672C90.9687 0.387672 84.0969 5.03843 84.0969 15.031C84.0969 24.4934 91.6352 29.6231 99.4787 29.6231C105.572 29.6231 108.988 26.38 110.767 23.7621C111.946 22.0254 114.026 19.1297 115.839 16.6434V29.2319H122.146V10.5813C122.146 7.85375 125.735 4.1134 129.327 3.63443C134.764 2.93974 136.609 5.77334 136.609 10.0475V29.2356H142.916V10.5265C142.916 4.96896 140.969 0.373047 133.891 0.373047ZM91.1231 13.8537C90.9196 6.42416 94.5607 1.0787 98.714 1.0787C103.197 1.0787 104.99 5.2834 105.158 11.0566C105.158 13.3308 101.127 14.7275 97.788 15.0566C95.9253 15.2394 93.7083 15.0529 91.1371 14.1901L91.1231 13.8537Z" fill="#44464D"/>
</svg>
