<svg width="48" height="254" viewBox="0 0 48 254" fill="none" xmlns="http://www.w3.org/2000/svg">
<path d="M42.7409 138H5.24806C3.45506 138 2 139.421 2 141.17V178.825C2 180.577 3.45506 182 5.24806 182H42.7409C44.5352 182 46 180.577 46 178.825V141.17C46 139.421 44.5352 138 42.7409 138ZM15.0497 175.494H8.52056V154.497H15.0497V175.494ZM11.7851 151.626C9.69328 151.626 8.00233 149.931 8.00233 147.841C8.00233 145.754 9.69328 144.059 11.7851 144.059C13.8721 144.059 15.5673 145.754 15.5673 147.841C15.5673 149.931 13.8721 151.626 11.7851 151.626ZM39.4917 175.494H32.9729V165.284C32.9729 162.848 32.9253 159.716 29.5807 159.716C26.1841 159.716 25.6665 162.369 25.6665 165.107V175.495H19.1429V154.497H25.4037V157.364H25.4929C26.3644 155.714 28.4935 153.973 31.6688 153.973C38.2725 153.973 39.4923 158.321 39.4923 163.976L39.4917 175.494Z" fill="#44464D"/>
<path d="M24 206C10.7451 206 0 216.745 0 230C0 243.255 10.7451 254 24 254C37.2549 254 48 243.255 48 230C48 216.745 37.2549 206 24 206ZM34.4451 240.831C34.1399 241.353 33.5907 241.644 33.0266 241.644C32.7454 241.644 32.4605 241.572 32.2001 241.419C27.8872 238.899 22.9049 238.494 19.4838 238.598C15.6942 238.713 12.9151 239.461 12.8875 239.469C12.0139 239.708 11.1112 239.194 10.8715 238.32C10.632 237.447 11.1443 236.545 12.0174 236.304C12.1427 236.27 15.1332 235.457 19.2918 235.32C21.7414 235.239 24.0996 235.41 26.2999 235.827C29.0869 236.356 31.6291 237.284 33.8562 238.586C34.6389 239.043 34.9024 240.048 34.4451 240.831ZM37.4963 234.494C37.1349 235.112 36.4843 235.457 35.816 235.457C35.4829 235.457 35.1454 235.371 34.837 235.191C29.7284 232.206 23.8265 231.726 19.7742 231.849C15.2853 231.986 11.9934 232.872 11.9607 232.881C10.9262 233.163 9.85665 232.555 9.57279 231.52C9.28905 230.485 9.89593 229.417 10.9301 229.132C11.0785 229.091 14.6208 228.129 19.5468 227.966C22.4486 227.871 25.2418 228.073 27.8482 228.567C31.1494 229.194 34.1607 230.293 36.7987 231.834C37.7258 232.376 38.0381 233.567 37.4963 234.494ZM39.3719 228.732C38.9633 228.732 38.5493 228.627 38.171 228.406C26.0257 221.308 10.271 225.527 10.1133 225.571C8.84356 225.921 7.53091 225.175 7.18117 223.905C6.83131 222.636 7.57704 221.323 8.84671 220.973C9.02865 220.923 13.3737 219.743 19.416 219.544C22.9755 219.426 26.4015 219.674 29.5985 220.281C33.6478 221.049 37.3416 222.397 40.5773 224.288C41.7143 224.953 42.0974 226.413 41.4329 227.55C40.9896 228.309 40.1916 228.732 39.3719 228.732Z" fill="#44464D"/>
<path d="M24 0C17.7534 0 16.9715 0.0269637 14.5178 0.134818C12.0641 0.251661 10.4013 0.638139 8.9363 1.20438C7.42634 1.78859 6.14107 2.57952 4.8558 3.8558C3.57053 5.13208 2.78859 6.41735 2.20438 7.9363C1.63814 9.40133 1.25166 11.0731 1.13482 13.5178C1.01798 15.9715 1 16.7534 1 23C1 29.2466 1.02696 30.0285 1.13482 32.4822C1.25166 34.9269 1.63814 36.5987 2.20438 38.0637C2.78859 39.5737 3.57952 40.8589 4.8558 42.1442C6.13208 43.4205 7.41735 44.2114 8.9363 44.7956C10.4013 45.3619 12.0731 45.7483 14.5178 45.8652C16.9715 45.982 17.7534 46 24 46C30.2466 46 31.0285 45.973 33.4822 45.8652C35.9269 45.7483 37.5987 45.3619 39.0637 44.7956C40.5737 44.2114 41.8589 43.4205 43.1442 42.1442C44.4205 40.8679 45.2114 39.5827 45.7956 38.0637C46.3619 36.5987 46.7483 34.9269 46.8652 32.4822C46.982 30.0285 47 29.2466 47 23C47 16.7534 46.973 15.9715 46.8652 13.5178C46.7483 11.0731 46.3619 9.40133 45.7956 7.9363C45.2114 6.42634 44.4205 5.14107 43.1442 3.8558C41.8679 2.57952 40.5826 1.78859 39.0637 1.20438C37.5987 0.638139 35.9269 0.251661 33.4822 0.134818C31.0285 0.0269637 30.2466 0 24 0ZM24 4.14342C30.1387 4.14342 30.8757 4.17038 33.3025 4.27823C35.5494 4.38609 36.7628 4.75459 37.5717 5.07816C38.6503 5.4916 39.4142 5.99492 40.2231 6.79484C41.0231 7.60375 41.5264 8.36772 41.9398 9.44627C42.2544 10.2552 42.6319 11.4685 42.7308 13.7155C42.8386 16.1422 42.8656 16.8703 42.8656 23.018C42.8656 29.1657 42.8386 29.8937 42.7218 32.3204C42.6049 34.5674 42.2274 35.7808 41.9129 36.5897C41.4814 37.6682 40.9961 38.4322 40.1872 39.2411C39.3873 40.041 38.6053 40.5444 37.5447 40.9578C36.7358 41.2724 35.5045 41.6499 33.2575 41.7487C30.8128 41.8566 30.0938 41.8836 23.9371 41.8836C17.7804 41.8836 17.0614 41.8566 14.6166 41.7397C12.3697 41.6229 11.1383 41.2454 10.3294 40.9308C9.24189 40.4994 8.48691 40.0141 7.68699 39.2052C6.87808 38.4052 6.36577 37.6233 5.96131 36.5627C5.64674 35.7538 5.26924 34.5225 5.1524 32.2755C5.06252 29.8578 5.03556 29.1118 5.03556 22.991C5.03556 16.8613 5.06252 16.1153 5.1524 13.6706C5.26924 11.4236 5.63775 10.1923 5.96131 9.38335C6.36577 8.28683 6.87808 7.54084 7.68699 6.73193C8.48691 5.932 9.24189 5.41071 10.3294 5.00625C11.1383 4.69168 12.3427 4.31419 14.5897 4.19734C17.0344 4.10747 17.7534 4.0805 23.9101 4.0805L24 4.14342ZM24 11.1899C17.4748 11.1899 12.1809 16.4838 12.1809 23.009C12.1809 29.5342 17.4748 34.8281 24 34.8281C30.5252 34.8281 35.8191 29.5342 35.8191 23.009C35.8191 16.4838 30.5252 11.1899 24 11.1899ZM24 30.6757C19.7667 30.6757 16.3333 27.2423 16.3333 23.009C16.3333 18.7757 19.7667 15.3423 24 15.3423C28.2333 15.3423 31.6667 18.7757 31.6667 23.009C31.6667 27.2423 28.2333 30.6757 24 30.6757ZM39.0457 10.7315C39.0457 12.2595 37.8054 13.4908 36.2864 13.4908C34.7585 13.4908 33.5272 12.2505 33.5272 10.7315C33.5272 9.21258 34.7675 7.97226 36.2864 7.97226C37.8054 7.96327 39.0457 9.2036 39.0457 10.7315Z" fill="#44464D"/>
<path d="M32.8594 89.8213V86.0814C32.8594 85.1415 32.9961 84.4904 33.3533 84.066C33.6943 83.661 34.3382 83.3486 35.6502 83.3486H35.6505L39.1668 83.3468L39.6666 83.3465V82.8468V76.9074V76.4697L39.2327 76.4118C38.5988 76.3271 36.4895 76.1458 34.0424 76.1458C31.406 76.1458 29.1339 76.952 27.5193 78.5476C25.9032 80.1448 25.0015 82.4782 25.0015 85.4232V89.8207H19.7674H19.2674V90.3207V96.961V97.461H19.7674H25.0015V113.5H4.42856C3.36323 113.5 2.5 112.637 2.5 111.572V72.4286C2.5 71.3633 3.36331 70.5 4.42856 70.5H43.5714C44.6367 70.5 45.5 71.3633 45.5 72.4286V111.571C45.5 112.637 44.6366 113.5 43.5721 113.5H32.8594V97.4616H38.0788H38.5185L38.5747 97.0255L39.4308 90.3852L39.5036 89.8213H38.9349H32.8594Z" fill="#44464D" stroke="#44464D"/>
</svg>
