<svg width="522" height="350" viewBox="0 0 522 350" fill="none" xmlns="http://www.w3.org/2000/svg">
<path fill-rule="evenodd" clip-rule="evenodd" d="M521.5 22.2725C470.934 8.08805 412.606 0 350.5 0C179.506 0 37.1523 61.311 6.57536 142.365C4.87509 146.872 3.52044 151.44 2.5257 156.062C2.16702 157.728 1.85514 159.402 1.59072 161.082C1.35708 162.567 1.1605 164.057 1.00143 165.552C0.668726 168.346 0.5 171.163 0.5 174C0.5 174.157 0.50052 174.315 0.501558 174.472C0.50052 174.648 0.5 174.824 0.5 175C0.5 179.685 0.868131 184.326 1.59071 188.918C1.85513 190.598 2.16702 192.272 2.5257 193.938C2.77811 195.111 3.05371 196.28 3.35224 197.446C25.3874 283.495 172.411 350 350.5 350C412.606 350 470.934 341.912 521.5 327.728V326.689C470.972 340.892 412.64 349 350.5 349C253.972 349 166.631 329.435 103.46 297.849C55.5542 273.896 21.713 243.127 8.12277 208.857C20.8142 233.968 46.88 256.298 82.0629 273.889C132.899 299.307 203.059 315 280.5 315C357.941 315 428.101 299.307 478.937 273.889C495.218 265.749 509.546 256.594 521.5 246.619V244.007C509.458 254.265 494.835 263.704 478.043 272.101C427.539 297.352 357.698 313 280.5 313C203.302 313 133.461 297.352 82.9573 272.101C53.138 257.191 30.1598 238.991 16.3246 218.758C27.8226 233.046 44.7612 245.845 65.7222 256.502C106.467 277.217 162.687 290 224.73 290C286.773 290 342.992 277.217 383.738 256.502C424.428 235.814 449.96 207.054 449.96 175C449.96 142.946 424.428 114.186 383.738 93.4984C342.992 72.7833 286.773 60 224.73 60C162.687 60 106.467 72.7833 65.7222 93.4984C39.9649 106.594 20.2814 122.924 9.30323 141.277C21.4756 116.217 47.3351 93.7106 82.9573 75.8995C133.461 50.6475 203.302 35 280.5 35C357.698 35 427.539 50.6475 478.043 75.8995C494.835 84.2956 509.458 93.735 521.5 103.993V101.381C509.546 91.4058 495.218 82.2509 478.937 74.1106C428.101 48.6925 357.941 33 280.5 33C203.059 33 132.899 48.6925 82.0629 74.1106C50.8175 89.7333 26.7627 109.094 12.8804 130.82C28.7277 100.697 60.4166 73.6724 103.46 52.1507C166.631 20.565 253.972 1 350.5 1C412.64 1 470.972 9.10793 521.5 23.3112V22.2725ZM447.96 175C447.96 205.906 423.296 234.146 382.831 254.719C342.421 275.264 286.525 288 224.73 288C162.934 288 107.039 275.264 66.6286 254.719C39.6134 240.984 19.6412 223.832 9.34898 204.751C18.4735 218.062 33.5276 229.911 52.7736 239.534C85.5133 255.904 130.673 266 180.5 266C230.327 266 275.487 255.904 308.226 239.534C340.906 223.194 361.5 200.436 361.5 175C361.5 149.564 340.906 126.806 308.226 110.466C275.487 94.0961 230.327 84 180.5 84C130.673 84 85.5133 94.0961 52.7736 110.466C33.5276 120.089 18.4735 131.938 9.34898 145.249C19.6412 126.168 39.6134 109.016 66.6286 95.2812C107.039 74.7365 162.934 62 224.73 62C286.525 62 342.421 74.7365 382.831 95.2812C423.296 115.854 447.96 144.094 447.96 175ZM53.668 112.255C21.3987 128.389 1.74081 150.459 1.5022 174.556C1.51381 176.026 1.57146 177.491 1.67448 178.95C3.68569 201.677 22.9705 222.396 53.668 237.745C86.0755 253.949 130.916 264 180.5 264C230.084 264 274.925 253.949 307.332 237.745C339.799 221.512 359.5 199.27 359.5 175C359.5 150.73 339.799 128.488 307.332 112.255C274.925 96.0511 230.084 86 180.5 86C130.916 86 86.0755 96.0511 53.668 112.255Z" fill="url(#paint0_linear_434_883)"/>
<defs>
<linearGradient id="paint0_linear_434_883" x1="-178.5" y1="175" x2="521.5" y2="175" gradientUnits="userSpaceOnUse">
<stop stop-color="#85E0E5"/>
<stop offset="1" stop-color="#85E5E1" stop-opacity="0.2"/>
</linearGradient>
</defs>
</svg>
