<svg width="153" height="24" viewBox="0 0 153 24" fill="none" xmlns="http://www.w3.org/2000/svg">
<path d="M19.2484 18.87C18.3724 23.43 13.5485 24 10.3445 24C7.8936 24 4.43467 23.256 0.84375 22.293C1.94773 21.564 2.91371 20.643 3.68769 19.524C6.10264 22.986 7.9446 23.427 9.68756 23.562C11.8355 23.739 14.1605 23.385 14.5565 20.667C15.0814 17.115 10.6535 15.624 7.14661 13.605C3.59169 11.634 1.40174 9.396 1.83973 5.757C2.54171 0.318 8.02259 0.012 10.3895 0.012C12.5795 0.012 15.7294 0.885 18.6214 1.674C17.8174 2.289 17.0974 3.018 16.4914 3.867C14.3885 1.188 12.4265 0.495 10.1705 0.495C8.50558 0.495 6.53163 1.371 6.22263 4.047C5.87164 7.074 9.77456 8.784 13.3715 10.758C18.0214 13.215 19.9503 15.012 19.2484 18.87ZM64.7184 0C60.6595 0 57.3775 1.002 54.9446 4.176C54.4076 4.782 53.7656 5.598 53.0006 6.69C52.9856 6.711 52.9676 6.735 52.9526 6.756C49.4127 11.799 44.5858 18.516 44.5858 18.516C43.7098 19.566 42.1349 20.808 39.7529 21.27C39.1499 21.387 38.4959 21.456 37.7879 21.456C36.915 21.456 36.057 21.36 35.232 21.165C35.187 21.156 35.145 21.141 35.1 21.132C35.007 21.108 34.914 21.087 34.824 21.06C31.4461 20.103 28.7431 17.403 28.2392 12.693C28.9261 13.05 29.6491 13.359 30.4141 13.605C30.8491 13.743 31.3021 13.857 31.7641 13.95C31.8451 13.968 31.9261 13.989 32.0101 14.004C32.4121 14.079 32.8291 14.127 33.255 14.166C33.708 14.205 34.167 14.232 34.647 14.226C37.59 14.193 40.2269 13.74 42.1859 12.957C44.4058 12.072 45.7528 10.767 45.6808 9.174C45.6628 8.76 45.6328 8.496 45.5098 8.046C44.8648 5.685 43.7428 3.852 42.2309 2.538C40.2869 0.843 37.695 0.012 34.632 0.012C28.0112 0.012 22.1343 3.828 22.1343 12.027C22.1343 12.87 22.2153 13.668 22.3593 14.427C22.4643 14.979 22.5993 15.51 22.7733 16.017C22.7823 16.041 22.7913 16.068 22.8003 16.092C22.9953 16.644 23.2293 17.172 23.4963 17.667C23.5623 17.79 23.6343 17.91 23.7063 18.03C23.8533 18.276 24.0032 18.516 24.1652 18.747C24.1922 18.786 24.2252 18.825 24.2522 18.864C24.6272 19.38 25.0472 19.86 25.5002 20.301C25.6862 20.481 25.8782 20.658 26.0762 20.826C26.2652 20.988 26.4602 21.144 26.6612 21.294C26.7002 21.321 26.7392 21.348 26.7782 21.378C27.0602 21.585 27.3542 21.78 27.6542 21.963C27.8972 22.11 28.1492 22.248 28.4042 22.38C28.6021 22.482 28.8031 22.581 29.0071 22.674C30.1531 23.196 31.3861 23.568 32.6581 23.784C32.7031 23.79 32.7481 23.802 32.7931 23.808C33.321 23.892 33.858 23.946 34.398 23.976C34.692 23.991 34.989 24.003 35.283 24.003C35.556 24.003 35.823 23.994 36.084 23.979C36.276 23.97 36.462 23.952 36.648 23.934C36.666 23.934 36.684 23.931 36.699 23.928C41.0279 23.496 43.5598 21.138 44.9368 19.197C45.4948 18.408 46.2898 17.325 47.1537 16.173C47.8557 15.282 48.5697 14.352 49.2777 13.359V23.688H54.6716V8.376C54.6716 6.138 57.7405 3.069 60.8124 2.676C63.6024 2.334 66.1613 2.676 69.4373 6.771C69.8512 5.379 70.4842 4.176 71.2882 3.156C69.9473 1.158 67.4783 0 64.7154 0H64.7184ZM28.1402 11.064C28.0052 6.366 29.8231 2.688 32.2891 1.245C33.0241 0.816 33.816 0.582 34.629 0.582C38.4629 0.582 39.9959 4.032 40.1399 8.769C40.1399 10.356 37.647 11.421 35.145 11.871C34.704 11.949 34.263 12.009 33.837 12.051C32.2441 12.201 30.3481 12.048 28.1492 11.34L28.1372 11.064H28.1402ZM151.44 21.117C151.161 21.291 150.846 21.402 150.499 21.402C149.272 21.402 148.657 20.7 148.657 18.069V7.413C148.66 1.536 144.931 0 139.099 0C136.513 0 133.489 0.789 130.159 1.797C131.104 2.685 131.689 3.852 132.013 5.19C135.316 1.533 136.651 0.714 138.88 0.573C141.862 0.573 143.266 1.977 143.266 4.959V9.168C138.178 9.255 127.435 8.511 127.435 17.28C127.435 22.149 131.119 23.991 135.067 23.991C139.585 23.991 142.348 21.579 143.356 19.167C143.269 21.975 145.417 23.991 147.961 23.991C150.121 23.991 151.41 22.905 152.217 21.741L151.449 21.117H151.44ZM143.263 18.642C139.93 24.081 132.607 23.73 132.607 16.713C132.607 11.142 137.518 9.522 143.263 9.696V18.642ZM115.348 0C111.289 0 108.007 1.002 105.574 4.176C105.037 4.782 104.396 5.598 103.631 6.69C100.094 11.73 96.3437 17.13 95.2157 18.519C94.1207 19.833 91.9278 21.456 88.4179 21.456C83.762 21.456 79.514 18.717 78.8691 12.69C80.696 13.647 82.793 14.247 85.2769 14.22C91.5528 14.148 96.4457 12.165 96.3107 9.168C96.2927 8.754 96.2627 8.49 96.1397 8.04C94.6667 2.643 90.7038 0.012 85.2619 0.012C78.6411 0.012 72.7642 3.828 72.7642 12.027C72.7642 19.791 79.211 24 85.9189 24C91.1298 24 94.0517 21.339 95.5727 19.191C96.5807 17.766 98.3596 15.39 99.9106 13.35V23.679H105.304V8.376C105.304 6.138 108.373 3.069 111.445 2.676C116.095 2.106 117.673 4.431 117.673 7.938V23.682H123.067V8.331C123.067 3.771 121.402 0 115.348 0ZM78.7731 11.061C78.5991 4.965 81.713 0.579 85.2649 0.579C89.0988 0.579 90.6318 4.029 90.7758 8.766C90.7758 10.632 87.3289 11.778 84.4729 12.048C82.88 12.198 80.984 12.045 78.7851 11.337L78.7731 11.061Z" fill="#FAFAFA"/>
</svg>
