<svg width="33" height="34" viewBox="0 0 33 34" fill="none" xmlns="http://www.w3.org/2000/svg">
<path d="M13.0461 3.03495C15.2149 3.03297 17.3355 3.67428 19.1398 4.87777C20.9441 6.08125 22.3508 7.79282 23.1822 9.79596C24.0135 11.7991 24.232 14.0038 23.8102 16.1312C23.3883 18.2586 22.3449 20.213 20.812 21.7473C19.2791 23.2816 17.3256 24.3267 15.1986 24.7506C13.0717 25.1744 10.8667 24.9579 8.86285 24.1284C6.85894 23.2989 5.14609 21.8937 3.94096 20.0905C2.73583 18.2873 2.09258 16.1673 2.09258 13.9985C2.10572 11.0965 3.26365 8.31707 5.31471 6.26415C7.36576 4.21122 10.1442 3.05075 13.0461 3.03495ZM13.0461 0.982422C10.4717 0.982422 7.95523 1.7458 5.81475 3.17602C3.67427 4.60624 2.00598 6.63907 1.02082 9.01744C0.0356691 11.3958 -0.222092 14.0129 0.280135 16.5378C0.782361 19.0626 2.02202 21.3819 3.84234 23.2022C5.66267 25.0225 7.98191 26.2622 10.5068 26.7644C13.0316 27.2666 15.6487 27.0089 18.0271 26.0237C20.4055 25.0386 22.4383 23.3703 23.8685 21.2298C25.2987 19.0893 26.0621 16.5728 26.0621 13.9985C26.0621 10.5464 24.6908 7.23571 22.2498 4.79473C19.8088 2.35375 16.4981 0.982422 13.0461 0.982422Z" fill="#44464D"/>
<path d="M31.7391 31.3098L24.36 23.8806L22.9383 25.2924L30.3174 32.7215C30.41 32.8149 30.5202 32.8891 30.6416 32.9398C30.763 32.9906 30.8931 33.017 31.0247 33.0174C31.1562 33.0179 31.2866 32.9925 31.4083 32.9425C31.53 32.8926 31.6407 32.8192 31.7341 32.7265C31.8275 32.6338 31.9016 32.5237 31.9524 32.4023C32.0032 32.2809 32.0296 32.1508 32.03 32.0192C32.0305 31.8876 32.005 31.7573 31.9551 31.6356C31.9052 31.5138 31.8318 31.4031 31.7391 31.3098Z" fill="#44464D"/>
</svg>
