<svg width="106" height="18" viewBox="0 0 106 18" fill="none" xmlns="http://www.w3.org/2000/svg">
<path d="M12.7779 13.7368C12.1697 16.8814 8.82058 17.2745 6.59617 17.2745C4.89454 17.2745 2.49309 16.7614 0 16.0973C0.766463 15.5946 1.43712 14.9594 1.97448 14.1878C3.65111 16.5752 4.92994 16.8793 6.14004 16.9724C7.63131 17.0945 9.24546 16.8504 9.52039 14.976C9.88488 12.5265 6.81069 11.4982 4.37592 10.1059C1.90783 8.74667 0.387397 7.2033 0.691483 4.69377C1.17885 0.942932 4.98409 0.731908 6.62741 0.731908C8.14784 0.731908 10.3348 1.33395 12.3426 1.87806C11.7844 2.30217 11.2845 2.8049 10.8638 3.39039C9.40376 1.5429 8.04162 1.06499 6.47537 1.06499C5.31942 1.06499 3.94895 1.6691 3.73443 3.51452C3.49074 5.602 6.20044 6.78125 8.69769 8.14256C11.926 9.83695 13.2652 11.0762 12.7779 13.7368ZM44.3466 0.723633C41.5286 0.723633 39.25 1.41463 37.5609 3.60348C37.1881 4.02139 36.7423 4.58412 36.2112 5.33719C36.2008 5.35167 36.1883 5.36822 36.1779 5.3827C33.7202 8.86045 30.369 13.4926 30.369 13.4926C29.7609 14.2167 28.6674 15.0732 27.0137 15.3918C26.595 15.4725 26.141 15.5201 25.6494 15.5201C25.0434 15.5201 24.4477 15.4539 23.8749 15.3194C23.8437 15.3132 23.8145 15.3029 23.7833 15.2967C23.7187 15.2801 23.6541 15.2656 23.5917 15.247C21.2464 14.5871 19.3699 12.7251 19.02 9.47697C19.4969 9.72317 19.9989 9.93626 20.53 10.1059C20.832 10.2011 21.1465 10.2797 21.4672 10.3438C21.5235 10.3562 21.5797 10.3707 21.638 10.3811C21.9171 10.4328 22.2066 10.4659 22.5024 10.4928C22.8169 10.5197 23.1355 10.5383 23.4688 10.5342C25.512 10.5114 27.3427 10.199 28.7028 9.65903C30.2441 9.04872 31.1792 8.14877 31.1292 7.0502C31.1167 6.7647 31.0959 6.58264 31.0105 6.27231C30.5627 4.64412 29.7838 3.38005 28.734 2.47389C27.3844 1.30498 25.5849 0.731908 23.4584 0.731908C18.8617 0.731908 14.7815 3.3635 14.7815 9.01769C14.7815 9.59904 14.8377 10.1494 14.9377 10.6728C15.0106 11.0534 15.1043 11.4196 15.2251 11.7693C15.2314 11.7858 15.2376 11.8044 15.2439 11.821C15.3793 12.2017 15.5417 12.5658 15.7271 12.9071C15.7729 12.992 15.8229 13.0747 15.8729 13.1575C15.9749 13.3271 16.0791 13.4926 16.1915 13.6519C16.2103 13.6788 16.2332 13.7057 16.2519 13.7326C16.5123 14.0885 16.8039 14.4195 17.1184 14.7236C17.2475 14.8477 17.3808 14.9698 17.5183 15.0856C17.6495 15.1974 17.7849 15.3049 17.9244 15.4084C17.9515 15.427 17.9786 15.4456 18.0056 15.4663C18.2014 15.6091 18.4055 15.7435 18.6138 15.8697C18.7825 15.9711 18.9575 16.0663 19.1345 16.1573C19.272 16.2277 19.4115 16.2959 19.5531 16.3601C20.3488 16.72 21.2048 16.9766 22.0879 17.1255C22.1191 17.1297 22.1504 17.138 22.1816 17.1421C22.5482 17.2 22.921 17.2373 23.2959 17.2579C23.5 17.2683 23.7062 17.2766 23.9103 17.2766C24.0999 17.2766 24.2852 17.2704 24.4664 17.26C24.5997 17.2538 24.7289 17.2414 24.858 17.229C24.8705 17.229 24.883 17.2269 24.8934 17.2248C27.8989 16.9269 29.6567 15.3008 30.6127 13.9623C31.0001 13.4181 31.552 12.6713 32.1519 11.8768C32.6393 11.2624 33.135 10.6211 33.6265 9.93626V17.0593H37.3713V6.49989C37.3713 4.95652 39.502 2.84008 41.6348 2.56905C43.5718 2.3332 45.3484 2.56905 47.6228 5.39305C47.9102 4.4331 48.3497 3.60348 48.9079 2.90007C47.9769 1.52221 46.2627 0.723633 44.3445 0.723633H44.3466ZM18.9512 8.35358C18.8575 5.11375 20.1197 2.57733 21.8317 1.58221C22.342 1.28636 22.8918 1.12499 23.4563 1.12499C26.1181 1.12499 27.1824 3.50418 27.2823 6.77091C27.2823 7.86533 25.5516 8.59978 23.8145 8.91011C23.5083 8.9639 23.2022 9.00527 22.9064 9.03424C21.8005 9.13768 20.4842 9.03217 18.9575 8.54392L18.9491 8.35358H18.9512ZM104.556 15.2863C104.362 15.4063 104.143 15.4829 103.902 15.4829C103.05 15.4829 102.623 14.9988 102.623 13.1844V5.83578C102.625 1.78289 100.036 0.723633 95.987 0.723633C94.1917 0.723633 92.0922 1.26774 89.7803 1.96288C90.4364 2.57526 90.8426 3.38005 91.0675 4.30276C93.3607 1.78082 94.2875 1.21602 95.835 1.11878C97.9053 1.11878 98.88 2.08701 98.88 4.14346V7.04606C95.3476 7.10606 87.8892 6.59298 87.8892 12.6403C87.8892 15.998 90.4468 17.2683 93.1878 17.2683C96.3245 17.2683 98.2427 15.6049 98.9425 13.9416C98.8821 15.878 100.373 17.2683 102.14 17.2683C103.639 17.2683 104.535 16.5194 105.095 15.7167L104.562 15.2863H104.556ZM98.8779 13.5795C96.564 17.3304 91.4799 17.0883 91.4799 12.2492C91.4799 8.40737 94.8894 7.29019 98.8779 7.41018V13.5795ZM79.4977 0.723633C76.6797 0.723633 74.4011 1.41463 72.712 3.60348C72.3391 4.02139 71.8934 4.58412 71.3623 5.33719C68.9067 8.81287 66.3033 12.5368 65.5201 13.4947C64.7599 14.4009 63.2374 15.5201 60.8005 15.5201C57.5681 15.5201 54.6188 13.6312 54.171 9.4749C55.4395 10.1349 56.8953 10.5486 58.6199 10.53C62.977 10.4804 66.3741 9.11285 66.2803 7.04606C66.2678 6.76056 66.247 6.5785 66.1616 6.26817C65.139 2.5463 62.3876 0.731908 58.6095 0.731908C54.0128 0.731908 49.9326 3.3635 49.9326 9.01769C49.9326 14.3719 54.4085 17.2745 59.0656 17.2745C62.6834 17.2745 64.712 15.4394 65.768 13.9581C66.4678 12.9754 67.7029 11.3369 68.7797 9.93005V17.0531H72.5245V6.49989C72.5245 4.95652 74.6552 2.84008 76.788 2.56905C80.0163 2.17597 81.1118 3.77934 81.1118 6.19783V17.0552H84.8567V6.46885C84.8567 3.32419 83.7007 0.723633 79.4977 0.723633ZM54.1044 8.35151C53.9836 4.14759 56.1455 1.12292 58.6115 1.12292C61.2733 1.12292 62.3376 3.50211 62.4376 6.76884C62.4376 8.05567 60.0445 8.84597 58.0617 9.03217C56.9557 9.13561 55.6394 9.0301 54.1127 8.54185L54.1044 8.35151Z" fill="#44464D"/>
</svg>
