<svg width="32" height="34" viewBox="0 0 32 34" fill="none" xmlns="http://www.w3.org/2000/svg">
<path d="M13.016 3.03495C15.1848 3.03297 17.3055 3.67428 19.1098 4.87777C20.914 6.08125 22.3208 7.79282 23.1521 9.79596C23.9835 11.7991 24.202 14.0038 23.7801 16.1312C23.3582 18.2586 22.3148 20.213 20.782 21.7473C19.2491 23.2816 17.2956 24.3267 15.1686 24.7506C13.0416 25.1744 10.8367 24.9579 8.83282 24.1284C6.82892 23.2989 5.11606 21.8937 3.91093 20.0905C2.7058 18.2873 2.06255 16.1673 2.06255 13.9985C2.07569 11.0965 3.23363 8.31707 5.28468 6.26415C7.33573 4.21122 10.1141 3.05075 13.016 3.03495ZM13.016 0.982422C10.4417 0.982422 7.9252 1.7458 5.78472 3.17602C3.64424 4.60624 1.97595 6.63907 0.990793 9.01744C0.0056398 11.3958 -0.252121 14.0129 0.250105 16.5378C0.752332 19.0626 1.99199 21.3819 3.81231 23.2022C5.63264 25.0225 7.95188 26.2622 10.4767 26.7644C13.0016 27.2666 15.6187 27.0089 17.9971 26.0237C20.3754 25.0386 22.4083 23.3703 23.8385 21.2298C25.2687 19.0893 26.0321 16.5728 26.0321 13.9985C26.0321 10.5464 24.6608 7.23571 22.2198 4.79473C19.7788 2.35375 16.4681 0.982422 13.016 0.982422Z" fill="#44464D"/>
<path d="M31.7091 31.3098L24.33 23.8806L22.9082 25.2924L30.2873 32.7215C30.38 32.8149 30.4902 32.8891 30.6116 32.9398C30.7329 32.9906 30.8631 33.017 30.9947 33.0174C31.1262 33.0179 31.2566 32.9925 31.3783 32.9425C31.5 32.8926 31.6107 32.8192 31.7041 32.7265C31.7974 32.6338 31.8716 32.5237 31.9224 32.4023C31.9732 32.2809 31.9995 32.1508 32 32.0192C32.0005 31.8876 31.975 31.7573 31.9251 31.6356C31.8752 31.5138 31.8018 31.4031 31.7091 31.3098Z" fill="#44464D"/>
</svg>
