<svg width="1914" height="386" viewBox="0 0 1914 386" fill="none" xmlns="http://www.w3.org/2000/svg">
  <path d="M1913.98 193.532C1835.55 196.475 1802.89 93.9217 1783.88 151.131C1765.04 207.829 1769.26 279.746 1733.12 272.958C1642.01 255.857 1704.95 135.041 1620.37 89.6065C1575.14 65.3072 1530.79 113.225 1474.7 123.157C1439.96 129.304 1379.86 118.251 1336.84 133.209C1297.79 146.785 1275.52 183.99 1246.99 186.503C1190.72 191.459 1074.35 303.845 1034.32 350.591C1011.31 377.453 946.991 399.59 897.597 376.022C854.004 355.227 850.585 276.932 812.644 221.736C733.952 107.248 622.452 92.8403 548.226 113.555C470.71 135.181 480.688 46.074 361.852 7.16706C269.642 -23.0293 217.945 66.5186 216.659 110.291C214.874 170.914 206.67 268.372 170.235 272.657C130.5 277.333 125.914 169.603 0 132.158" stroke="#838383" stroke-width="0.5" stroke-miterlimit="10"/>
  <path d="M0.0598145 137.014C62.2143 155.506 97.0747 189.267 121.269 220.074C141.954 246.416 152.61 268.682 171.521 266.8C208.255 263.166 218.742 172.717 224.025 117.63C224.903 108.449 227.943 96.8452 234.054 85.2012C254.5 46.1942 302.03 3.06216 370.425 24.9986C389.724 31.1861 405.564 38.1845 418.922 45.9038C486.729 85.0911 492.302 139.527 555.662 119.923C588.629 109.681 628.703 106.487 670.072 114.627C720.424 124.519 771.404 152.793 814.767 209.321C826.78 224.97 836.07 242.691 843.926 260.883C861.112 300.931 872.605 341.761 902.133 357.019C949.673 381.599 1011.54 363.056 1035.28 339.328C1051.65 322.858 1079.67 296.186 1111.51 269.103C1160.15 228.033 1212.79 185.052 1245.91 180.306C1261.62 178.053 1275.61 165.708 1292.08 153.333C1304.72 143.882 1318.47 134.531 1335.09 129.565C1377.36 116.889 1435.15 130.055 1468.8 126.111C1472.28 125.69 1475.71 125.129 1479.1 124.408C1528.28 113.946 1568.5 77.8623 1611.6 98.8677C1634.34 109.951 1646.69 126.681 1654.71 144.723C1676.04 192.781 1664.15 255.807 1729.02 268.102C1765.05 274.95 1763.61 208.56 1783.83 156.277C1804.22 103.543 1837.25 200.42 1914 198.278" stroke="#838383" stroke-width="0.5" stroke-miterlimit="10"/>
  <path d="M0.109619 141.869C58.1271 159.12 94.9912 187.344 121.697 217.06C143.2 240.979 153.786 262.505 172.787 260.953C209.81 257.979 222.59 174.559 231.372 124.979C232.838 116.699 235.978 105.956 242.637 95.6136C265.206 60.5614 313.165 22.1951 378.978 42.83C398.257 48.8773 414.038 55.235 427.306 62.3736C493.637 98.0866 501.263 147.366 563.069 126.281C595.288 115.197 634.116 110.952 674.269 116.078C723.973 122.426 773.188 146.395 816.871 196.876C829.072 210.973 839.181 226.862 847.465 243.973C865.637 281.548 877.57 321.736 906.638 337.986C952.335 363.527 1011.81 348.719 1036.21 328.034C1053.07 313.747 1080.97 289.207 1113.25 263.626C1162.71 224.429 1212.41 180.606 1244.79 174.078C1260.03 171.015 1273.8 158.86 1290.42 147.246C1303.2 138.315 1316.97 129.945 1333.31 125.88C1374.82 115.498 1430.29 130.866 1462.86 129.024C1466.22 128.834 1469.54 128.493 1472.8 127.973C1520.02 120.474 1558.84 88.8355 1602.79 108.089C1625.13 117.87 1637.78 133.259 1646.56 149.348C1669.96 192.19 1661.34 251.041 1724.88 263.206C1760.79 270.124 1762.15 209.281 1783.75 161.383C1805.5 113.145 1838.94 204.325 1913.99 202.973" stroke="#838383" stroke-width="0.5" stroke-miterlimit="10"/>
  <path d="M0.169434 146.735C54.04 162.755 92.7183 185.372 122.126 214.047C144.236 235.603 154.963 256.328 174.053 255.116C211.365 252.813 226.438 176.471 238.719 132.338C240.773 124.969 244.072 115.047 251.23 106.036C276.102 74.7386 324.33 41.3083 387.541 60.6816C406.8 66.5887 422.501 72.3056 435.7 78.8736C500.506 111.132 510.245 155.236 570.486 132.658C601.957 120.734 639.598 115.378 678.476 117.56C727.611 120.324 775.122 140.087 818.974 184.461C831.405 197.046 842.271 211.063 851.003 227.092C870.123 262.225 882.534 301.712 911.154 318.973C955.006 345.425 1012.05 334.362 1037.16 316.76C1054.46 304.626 1082.35 282.309 1115 258.17C1165.38 220.935 1212.04 176.191 1243.7 167.871C1258.44 163.996 1272.05 152.052 1288.79 141.189C1301.72 132.789 1315.48 125.39 1331.53 122.236C1372.29 114.136 1425.45 131.667 1456.93 131.988C1460.17 132.018 1463.36 131.908 1466.51 131.587C1511.75 127.042 1549.12 99.8789 1594 117.36C1615.89 125.89 1628.88 139.867 1638.45 154.034C1663.87 191.62 1658.57 246.345 1720.78 258.37C1756.57 265.358 1760.69 210.092 1783.69 166.559C1806.79 122.847 1840.63 208.29 1913.99 207.739" stroke="#838383" stroke-width="0.5" stroke-miterlimit="10"/>
  <path d="M0.21936 151.591C49.943 166.379 90.2562 183.38 122.555 211.023C145.084 230.306 156.139 250.15 175.319 249.259C212.92 247.617 230.256 178.424 246.066 139.677C248.698 133.219 252.237 124.088 259.813 116.449C287.257 88.7354 335.485 60.3912 396.084 78.5231C415.334 84.28 430.935 89.3661 444.083 95.3634C507.324 124.208 519.267 163.235 577.892 139.036C608.656 126.341 645.36 123.247 682.673 119.042C731.041 113.595 777.245 133.82 821.078 172.056C833.808 183.159 845.361 195.274 854.542 210.222C874.599 242.901 887.499 281.678 915.66 299.98C957.688 327.293 1012.26 320.024 1038.09 305.507C1055.84 295.535 1083.71 275.44 1116.75 252.733C1168.05 217.461 1211.65 171.816 1242.59 161.683C1256.85 157.008 1270.27 145.264 1287.14 135.141C1300.23 127.282 1313.99 120.844 1329.76 118.601C1369.76 112.784 1420.58 132.468 1450.99 134.951C1454.11 135.201 1457.18 135.322 1460.21 135.201C1503.44 133.599 1539.32 110.962 1585.18 126.631C1606.6 133.95 1619.92 146.475 1630.31 158.71C1657.72 191.009 1655.78 241.63 1716.64 253.524C1752.32 260.583 1759.17 210.923 1783.61 171.715C1808.02 132.548 1842.32 212.244 1913.98 212.485" stroke="#838383" stroke-width="0.5" stroke-miterlimit="10"/>
  <path d="M0.279175 156.457C45.8658 170.013 87.6145 181.437 122.993 208.009C145.772 225.12 157.335 243.973 176.595 243.412C214.485 242.431 234.034 180.446 253.423 147.036C256.633 141.509 260.511 133.169 268.406 126.871C298.73 102.662 346.65 79.4642 404.647 96.3745C423.887 101.981 439.388 106.447 452.477 111.853C514.103 137.334 528.259 171.115 585.309 145.414C615.335 131.887 650.733 123.988 686.88 120.524C735.148 115.898 779.628 127.542 823.181 159.641C836.27 169.282 848.442 179.485 858.071 193.351C879.065 223.578 892.463 261.614 920.166 280.987C960.389 309.111 1012.45 305.687 1039.02 294.253C1057.21 286.424 1085.1 268.582 1118.49 247.297C1170.73 214.006 1211.26 167.47 1241.49 155.486C1255.25 150.029 1268.51 138.465 1285.5 129.084C1298.75 121.765 1312.49 116.289 1327.98 114.947C1367.23 111.423 1415.73 133.239 1445.06 137.895C1448.06 138.375 1451.01 138.706 1453.91 138.796C1495.11 140.107 1529.45 122.086 1576.37 135.882C1597.28 142.03 1610.95 153.043 1622.18 163.365C1651.5 190.358 1652.99 236.894 1712.51 248.658C1748.07 255.787 1757.61 211.764 1783.53 176.852C1809.21 142.26 1843.99 216.179 1913.97 217.21" stroke="#838383" stroke-width="0.5" stroke-miterlimit="10"/>
  <path d="M0.328979 161.313C41.7686 173.638 84.7933 179.575 123.422 204.986C146.32 220.044 158.511 237.785 177.861 237.565C216.05 237.244 237.712 182.518 260.77 154.385C264.528 149.799 268.874 142.29 276.999 137.284C310.543 116.619 357.835 98.5072 413.2 114.206C432.43 119.663 447.822 123.507 460.861 128.333C520.832 150.49 537.24 178.984 592.726 151.771C622.014 137.414 656.366 128.133 691.086 121.986C739.006 113.495 782.29 121.155 825.294 147.206C838.822 155.406 851.532 163.666 861.62 176.451C883.531 204.215 897.457 241.49 924.682 261.954C963.111 290.839 1012.65 291.3 1039.97 282.96C1058.59 277.283 1086.49 261.684 1120.25 241.82C1173.43 210.522 1210.88 163.105 1240.4 149.258C1253.68 143.031 1266.77 131.647 1283.86 122.997C1297.26 116.219 1311.01 111.703 1326.22 111.273C1364.72 110.031 1410.86 133.97 1439.13 140.828C1442.01 141.529 1444.84 142.09 1447.63 142.38C1486.77 146.575 1519.54 133.259 1567.58 145.123C1587.95 150.149 1601.97 159.601 1614.06 168.021C1645.21 189.707 1650.23 232.158 1708.4 243.792C1743.85 250.991 1756.02 212.635 1783.46 181.998C1810.9 151.361 1845.68 220.114 1913.96 221.946" stroke="#838383" stroke-width="0.5" stroke-miterlimit="10"/>
  <path d="M0.388794 166.169C37.6815 177.262 81.8326 177.863 123.86 201.962C146.758 215.088 159.698 231.598 179.137 231.708C217.616 232.048 241.271 184.581 268.127 161.723C272.423 158.069 277.338 151.461 285.592 147.686C322.665 130.766 369.019 117.51 421.763 132.038C440.983 137.334 456.245 140.588 469.264 144.813C527.541 163.716 546.232 186.844 600.152 158.139C628.693 142.941 662.018 132.178 695.303 123.457C742.903 110.982 785.26 114.617 827.408 134.791C841.473 141.519 854.622 147.877 865.169 159.571C887.997 184.891 902.462 221.365 929.207 242.951C965.872 272.547 1012.83 276.922 1040.92 271.696C1059.96 268.152 1087.9 254.826 1122 236.373C1176.14 207.078 1210.51 158.79 1239.3 143.061C1252.1 136.072 1265.02 124.849 1282.23 116.939C1295.78 110.702 1309.53 107.188 1324.44 107.628C1362.19 108.749 1406 134.731 1433.2 143.782C1435.95 144.693 1438.67 145.484 1441.34 145.994C1478.41 153.033 1509.57 144.553 1558.78 154.394C1578.58 158.359 1592.94 166.209 1605.93 172.697C1638.81 189.126 1647.44 227.453 1704.27 238.946C1739.6 246.215 1754.33 213.516 1783.39 187.154C1812.45 160.792 1847.37 224.068 1913.96 226.702" stroke="#D86A8D" stroke-miterlimit="10"/>
  <path d="M0.438599 171.035C33.5843 180.897 78.7224 176.361 124.289 198.958C147.107 210.272 160.874 225.43 180.403 225.881C219.171 226.882 244.7 186.583 275.474 169.092C280.288 166.359 285.831 160.742 294.185 158.119C335.006 145.294 380.224 136.523 430.317 149.899C449.526 155.025 464.668 157.709 477.648 161.313C534.19 177.022 555.214 194.713 607.559 164.527C635.362 148.487 667.64 136.133 699.5 124.949C746.761 108.349 788.5 107.838 829.501 122.386C844.185 127.592 857.682 132.088 868.698 142.701C892.433 165.568 907.466 201.211 933.703 223.958C968.633 254.235 1012.99 262.545 1041.84 260.442C1061.3 259.031 1089.29 247.987 1123.74 230.937C1178.84 203.664 1210.12 154.515 1238.19 136.873C1250.5 129.134 1263.25 118.071 1280.57 110.892C1294.3 105.205 1308.03 102.642 1322.66 103.994C1359.64 107.408 1401.11 135.492 1427.26 146.745C1429.89 147.877 1432.47 148.888 1435.04 149.609C1470.04 159.441 1499.56 155.956 1549.97 163.666C1569.19 166.609 1583.89 172.847 1597.8 177.382C1632.35 188.636 1644.66 222.747 1700.14 234.121C1735.36 241.46 1752.56 214.407 1783.31 192.33C1812.38 171.465 1849.05 228.033 1913.95 231.468" stroke="#838383" stroke-width="0.5" stroke-miterlimit="10"/>
  <path d="M0.498413 175.89C29.5072 184.521 75.5224 175.09 124.728 195.935C147.426 205.546 162.06 219.253 181.679 220.024C220.736 221.686 248.08 188.436 282.83 176.431C288.144 174.599 294.354 170.093 302.778 168.532C347.447 160.242 391.419 155.496 438.88 167.741C458.089 172.697 473.082 174.819 486.041 177.803C540.819 190.388 564.195 202.573 614.976 170.894C642.041 154.014 673.232 139.987 703.707 126.411C750.569 105.546 791.959 100.69 831.614 109.951C846.986 113.545 860.763 116.279 872.246 125.8C896.879 146.225 912.51 181.007 938.229 204.925C971.454 235.843 1013.18 248.108 1042.8 249.149C1062.68 249.85 1090.72 241.119 1125.5 225.46C1181.58 200.22 1209.78 150.21 1237.1 130.646C1248.94 122.156 1261.51 111.263 1278.95 104.805C1292.83 99.6686 1306.54 98.0566 1320.91 100.309C1357.12 106.006 1396.27 136.183 1421.35 149.669C1423.86 151.02 1426.31 152.242 1428.77 153.183C1461.69 165.758 1489.54 167.44 1541.19 172.897C1559.82 174.869 1574.85 179.485 1589.7 182.018C1625.9 188.195 1641.9 217.991 1696.05 229.235C1731.15 236.644 1750.74 215.168 1783.27 197.456C1813.31 181.097 1850.77 231.958 1913.98 236.183" stroke="#838383" stroke-width="0.5" stroke-miterlimit="10"/>
  <path d="M0.548218 180.746C25.41 188.145 72.2427 174.098 125.156 192.911C147.715 200.931 163.237 213.065 182.945 214.167C222.291 216.489 251.459 190.138 290.177 183.77C339.93 175.587 409.831 178.602 447.433 185.562C466.642 190.338 481.486 191.94 494.435 194.263C547.428 203.804 573.167 210.392 622.392 177.242C648.71 159.521 678.775 143.732 707.913 127.862C754.307 102.602 796.126 105.626 833.718 97.5059C849.558 94.0817 863.823 100.459 875.775 108.89C901.295 126.881 917.574 160.762 942.725 185.892C974.276 217.41 1013.35 233.66 1043.72 237.855C1064.01 240.658 1092.11 234.261 1127.23 219.984C1184.3 196.786 1209.44 145.934 1235.98 124.408C1247.36 115.187 1259.75 104.444 1277.29 98.7073C1291.34 94.1218 1305.04 93.461 1319.12 96.6248C1354.58 104.604 1391.4 136.863 1415.41 152.582C1417.8 154.144 1420.13 155.586 1422.47 156.747C1453.33 172.016 1480.47 171.495 1532.38 182.118C1550.08 185.742 1565.84 185.142 1581.57 186.643C1619.27 190.258 1639.1 213.225 1691.92 224.339C1726.9 231.818 1748.83 215.829 1783.19 202.563C1814.14 190.608 1852.45 235.863 1913.96 240.879" stroke="#838383" stroke-width="0.5" stroke-miterlimit="10"/>
  <path d="M0.608032 185.612C21.3229 191.78 68.9232 173.418 125.595 189.897C148.014 196.415 164.423 206.888 184.221 208.33C223.856 211.313 254.998 194.022 297.534 191.139C303.864 190.708 311.67 186.904 319.964 189.367C369.936 204.205 413.848 193.372 455.996 203.424C475.205 208.009 489.889 209.111 502.828 210.773C554.017 217.361 582.149 218.262 629.809 183.64C655.379 165.067 684.258 147.476 712.12 129.364C757.926 99.5985 800.731 96.1944 835.831 85.1211C851.881 80.0549 866.903 84.7106 879.324 92.0394C905.731 107.608 922.678 140.558 947.251 166.92C977.166 199.018 1013.55 219.263 1044.67 226.622C1065.4 231.528 1093.55 227.473 1129 214.567C1187.06 193.442 1209.14 141.729 1234.9 118.241C1245.81 108.289 1258.01 97.6962 1275.67 92.6802C1289.88 88.6453 1303.57 88.9056 1317.36 93.0106C1352.08 103.203 1386.57 137.604 1409.49 155.576C1411.76 157.358 1413.96 159.01 1416.19 160.392C1445.02 178.303 1470.03 183.69 1523.59 191.419C1540.86 193.912 1556.75 192.921 1573.45 191.359C1613.03 187.645 1636.33 208.56 1687.8 219.533C1722.67 227.082 1746.92 216.459 1783.13 207.759C1814.98 200.11 1854.15 239.848 1913.97 245.665" stroke="#838383" stroke-width="0.5" stroke-miterlimit="10"/>
  <path d="M0.657959 190.468C17.2358 195.394 65.6037 173.067 126.024 186.874C148.324 191.97 165.599 200.7 185.487 202.473C225.421 206.117 258.427 193.301 304.881 198.478C311.759 199.239 319.734 198.508 328.547 199.769C383.972 207.719 425.063 212.254 464.539 221.255C483.749 225.63 498.283 226.281 511.202 227.252C560.597 230.967 591.091 226.091 637.206 189.998C662.028 170.574 689.641 151.151 716.317 130.826C761.405 96.4747 804.669 86.0221 837.925 72.6861C854.283 66.1282 869.954 68.9215 882.853 75.139C910.137 88.3049 927.792 120.273 951.747 147.887C980.067 180.536 1013.74 204.795 1045.6 215.328C1066.76 222.326 1094.96 220.634 1130.73 209.091C1189.78 190.048 1208.83 137.474 1233.78 112.013C1244.25 101.341 1256.25 90.898 1274.01 86.6028C1288.39 83.1287 1302.06 84.3301 1315.57 89.3361C1349.55 101.811 1381.72 138.275 1403.55 158.5C1405.7 160.492 1407.78 162.354 1409.89 163.966C1436.75 184.491 1459.59 196.325 1514.79 200.65C1531.62 201.972 1547.74 199.649 1565.32 195.995C1606.67 187.394 1633.55 203.804 1683.67 214.647C1718.43 222.266 1745 216.89 1783.05 212.885C1815.82 209.431 1855.83 243.772 1913.96 250.38" stroke="#838383" stroke-width="0.5" stroke-miterlimit="10"/>
  <path d="M0.717773 195.324C13.1487 199.018 62.334 173.037 126.462 183.86C148.692 187.615 166.785 194.523 186.763 196.626C226.986 200.931 262.036 194.853 312.238 205.827C319.655 207.449 328.098 208.039 337.15 210.192C395.656 224.109 436.298 231.137 473.112 239.107C492.332 243.262 506.746 242.711 519.616 243.742C567.086 247.557 600.073 233.93 644.652 196.375C668.717 176.101 695.004 154.825 720.554 132.308C764.785 93.321 805.517 68.8314 840.058 60.2711C858.071 55.8057 873.044 53.1525 886.422 58.2687C914.583 69.0317 932.996 99.999 956.292 128.894C983.058 162.084 1013.98 190.368 1046.57 204.075C1068.17 213.165 1096.4 213.846 1132.51 203.664C1192.54 186.724 1208.58 133.279 1232.71 105.836C1242.73 94.4423 1254.53 84.1399 1272.41 80.5656C1286.95 77.6521 1300.62 79.7947 1313.84 85.7118C1347.05 100.47 1376.94 139.006 1397.65 161.473C1399.69 163.676 1401.66 165.758 1403.64 167.591C1428.57 190.718 1449.56 214.998 1506.02 209.932C1522.33 208.47 1538.79 206.437 1557.23 200.68C1600.41 187.224 1630.81 199.098 1679.59 209.811C1714.23 217.501 1743.22 219.503 1783.01 218.051C1816.75 216.82 1857.55 247.727 1913.98 255.136" stroke="#838383" stroke-width="0.5" stroke-miterlimit="10"/>
  <path d="M0.777588 200.19C9.06153 202.653 59.154 173.348 126.901 180.847C149.121 183.31 167.972 188.346 188.039 190.789C228.551 195.755 265.694 196.415 319.595 213.186C327.56 215.669 336.412 217.571 345.743 220.615C407.07 240.599 447.522 250 481.665 256.948C500.895 260.863 515.12 260.723 527.999 260.232C573.865 258.47 608.965 241.7 652.059 202.753C675.336 181.577 700.248 158.5 724.751 133.79C768.004 90.1472 808.288 60.4214 842.161 47.8562C860.563 41.028 876.105 37.3836 889.961 41.3884C919.01 49.7685 938.209 79.7046 960.798 109.891C986.039 143.612 1014.19 175.921 1047.51 192.811C1069.56 203.995 1097.82 207.068 1134.25 198.218C1195.27 183.4 1208.32 129.064 1231.61 99.6287C1241.2 87.504 1252.78 77.3718 1270.76 74.4984C1285.47 72.1455 1299.12 75.2292 1312.06 82.0575C1344.53 99.098 1372.13 139.697 1391.72 164.427C1393.64 166.85 1395.5 169.132 1397.35 171.195C1420.4 196.916 1439.69 227.333 1497.22 219.193C1513 216.96 1529.83 213.196 1549.11 205.356C1594.17 187.034 1628.03 194.383 1675.47 204.966C1709.99 212.725 1741.45 217.561 1782.95 223.208C1817.76 227.943 1859.25 251.682 1913.99 259.892" stroke="#838383" stroke-width="0.5" stroke-miterlimit="10"/>
  <path d="M0.827393 205.046C4.97435 206.277 56.0637 173.938 127.33 177.823C149.599 179.034 169.148 182.168 189.315 184.931C230.116 190.558 269.393 197.987 326.952 220.524C335.475 223.868 344.676 227.082 354.345 231.017C418.284 257.068 458.767 268.803 490.238 274.78C509.478 278.434 523.563 277.984 536.403 276.702C580.574 272.317 617.956 249.539 659.486 209.101C682.025 187.094 705.461 162.174 728.967 135.242C771.125 86.9333 810.77 52.0012 844.275 35.4212C862.926 26.19 879.175 21.6045 893.5 24.488C923.436 30.4952 943.463 59.3701 965.314 90.858C989.079 125.099 1014.45 161.413 1048.45 181.517C1070.97 194.763 1099.25 200.33 1136.01 192.741C1198.04 180.186 1208.09 124.819 1230.51 93.4011C1239.67 80.5556 1251.04 70.6036 1269.13 68.411C1284 66.6488 1297.64 70.6436 1310.3 78.383C1342.01 97.7163 1367.39 140.338 1385.8 167.35C1387.61 169.983 1389.35 172.476 1391.06 174.769C1412.29 203.093 1429.93 239.818 1488.43 228.424C1503.7 225.45 1520.88 219.924 1540.99 209.992C1587.98 186.794 1625.26 189.637 1671.35 200.08C1705.76 207.909 1739.79 217.791 1782.88 228.334C1818.83 237.124 1860.94 255.607 1913.99 264.608" stroke="#838383" stroke-width="0.5" stroke-miterlimit="10"/>
  <path d="M0.887207 209.901C0.887207 209.901 53.1229 174.799 127.768 174.799C202.413 174.799 252.167 187.885 362.938 241.429C473.71 294.974 512.887 298.388 544.796 293.192C610.55 282.479 669.195 219.423 733.174 136.723C797.133 54.0335 855.898 2.74169 897.039 7.60756C982.141 17.6697 991.521 211.724 1137.75 187.294C1226.33 172.496 1204.45 67.4297 1267.48 62.3536C1323.78 57.8181 1360.48 139.697 1384.77 178.373C1409.06 217.05 1428.1 274.82 1532.87 214.667C1650.51 147.116 1720.49 232.429 1913.99 269.353" stroke="#838383" stroke-width="0.5" stroke-miterlimit="10"/>
</svg>
