<svg width="1920" height="380" viewBox="0 0 1920 380" fill="none" xmlns="http://www.w3.org/2000/svg">
  <path d="M1919.96 136.403C1841.28 139.35 1808.52 126.699 1789.45 183.981C1770.55 240.751 1774.78 312.758 1738.53 305.961C1647.14 288.839 1710.27 128.724 1625.44 83.2321C1580.06 58.902 1539.82 134.298 1483.56 144.243C1448.71 150.398 1384.17 111.913 1341.02 126.89C1301.85 140.483 1279.51 177.735 1250.89 180.251C1194.45 185.214 1169.11 93.0763 1113.28 122.739C1045.88 158.538 1077.73 297.751 1037.57 344.547C1014.49 371.443 949.97 393.608 900.421 370.009C856.692 349.188 840.362 257.863 802.293 202.586C723.355 87.9537 624.417 155.781 549.948 176.522C472.19 198.176 482.2 210.366 362.992 171.41C270.494 141.175 207.326 262.224 170.766 266.514C130.907 271.206 126.307 163.34 0 125.837" stroke="#838383" stroke-width="0.5" stroke-miterlimit="10"/>
  <path d="M0.0605469 130.709C118.478 165.866 126.118 264.078 168.107 258.915C207.276 254.063 268.585 141.536 359.643 172.061C389.132 181.875 410.852 188.692 428.272 192.993C477.68 205.173 487.89 194.567 543.979 181.414C578.248 173.384 616.168 157.074 654.557 149.896C702.046 141.045 750.405 147.07 793.534 203.439C817.403 234.625 833.643 278.614 852.783 311.234C864.102 330.522 876.312 346.05 892.182 352.496C940.771 372.165 1003.18 349.549 1026.62 323.575C1035.69 313.53 1041.45 299.586 1045.67 283.686C1060.72 226.947 1055.3 146.127 1106.68 122.469C1160.93 97.4872 1186.46 185.113 1242.59 180.422C1251.3 179.69 1259.45 175.81 1267.74 170.467C1286.84 158.187 1305.85 138.168 1331.98 128.233C1374.28 112.153 1434.85 144.714 1470.3 138.709C1525.72 129.175 1565.42 61.3782 1609.42 86.6605C1623.74 94.8708 1633.79 106.299 1641.09 119.562C1675.49 182.066 1648.57 290.984 1725.96 299.846C1763.96 304.197 1763.5 235.548 1784.92 182.176C1806.43 128.584 1840.71 140.944 1919.94 139.22" stroke="#838383" stroke-width="0.5" stroke-miterlimit="10"/>
  <path d="M0.111206 135.571C110.629 168.382 121.329 256.95 165.438 251.307C207.217 245.903 266.606 142.087 356.294 172.713C384.863 182.467 406.333 189.434 423.992 194.055C472.571 206.777 483.891 196.632 538.03 186.296C573.009 179.62 610.118 165.966 647.358 159.039C694.367 150.338 741.816 154.408 784.795 204.281C808.564 231.869 825.684 270.684 844.973 299.175C856.433 316.106 868.433 329.8 883.963 334.983C931.592 350.722 991.9 327.665 1015.69 302.613C1025.03 292.779 1031.21 279.586 1035.96 264.85C1052.93 212.18 1049.89 141.586 1100.1 122.208C1152.7 101.918 1178.46 185.023 1234.32 180.602C1242.93 179.91 1251.02 176.211 1259.33 171.169C1278.88 159.32 1297.84 140.022 1322.97 129.586C1364.42 112.374 1421.04 139.12 1457.06 133.195C1511.67 124.203 1550.79 63.8843 1593.42 90.119C1607.28 98.62 1617.1 110.078 1624.31 123.07C1658.04 183.991 1634.2 290.052 1713.44 293.761C1753.23 295.626 1756.45 230.405 1780.44 180.402C1804.35 130.539 1840.19 142.568 1919.98 142.067" stroke="#838383" stroke-width="0.5" stroke-miterlimit="10"/>
  <path d="M0.171753 140.433C102.8 170.898 116.549 249.823 162.788 243.698C207.177 237.743 264.676 142.518 352.954 173.364C380.614 183.028 401.813 190.156 419.713 195.118C467.462 208.35 480.002 198.877 532.071 191.178C567.84 185.895 604.059 174.858 640.148 168.181C686.677 159.63 733.246 161.766 776.035 205.132C799.725 229.142 817.684 262.725 837.144 287.125C848.734 301.661 860.514 313.59 875.723 317.48C922.372 329.409 980.621 305.791 1004.73 281.661C1014.35 272.037 1020.95 259.577 1026.22 246.023C1045.13 197.403 1044.34 137.065 1093.49 121.967C1144.33 106.349 1170.44 184.943 1226.01 180.802C1234.53 180.161 1242.59 176.632 1250.9 171.901C1270.9 160.492 1289.8 141.886 1313.93 130.97C1354.54 112.594 1407.19 133.506 1443.79 127.702C1497.57 119.17 1536.14 66.4103 1577.4 93.5874C1590.8 102.379 1600.39 113.867 1607.5 126.599C1640.56 185.925 1619.96 292.017 1700.87 287.696C1742.43 285.481 1749.32 225.322 1775.91 178.647C1802.17 132.533 1839.62 144.202 1919.96 144.934" stroke="#838383" stroke-width="0.5" stroke-miterlimit="10"/>
  <path d="M0.218506 145.305C94.9565 173.424 111.756 242.705 160.115 236.099C207.104 229.593 262.723 142.959 349.601 174.026C376.351 183.589 397.29 190.887 415.43 196.19C462.359 209.914 476.199 201.323 526.107 196.08C562.737 192.231 597.996 183.77 632.945 177.344C678.994 168.953 724.713 169.174 767.292 205.995C790.932 226.435 809.651 254.705 829.331 275.075C841.031 287.195 852.631 297.35 867.5 299.966C913.189 308.006 969.358 283.927 993.798 260.7C1003.7 251.286 1010.72 239.557 1016.51 227.187C1037.38 182.587 1038.71 132.523 1086.9 121.707C1135.87 110.72 1162.43 184.853 1217.71 180.983C1226.14 180.381 1234.15 177.043 1242.46 172.602C1262.94 161.645 1281.77 143.701 1304.9 132.323C1344.67 112.765 1393.34 127.852 1430.53 122.178C1483.47 114.098 1521.5 68.9065 1561.38 97.0259C1574.32 106.108 1583.68 117.617 1590.7 130.087C1623.08 187.83 1605.54 287.806 1688.31 281.581C1731.78 278.313 1742.16 220.22 1771.4 176.843C1800.64 133.466 1839.07 145.796 1919.96 147.751" stroke="#838383" stroke-width="0.5" stroke-miterlimit="10"/>
  <path d="M0.279053 150.167C87.1172 175.951 106.967 235.578 157.456 228.49C207.055 221.443 260.794 143.37 346.262 174.667C372.101 184.131 392.781 191.599 411.16 197.253C457.279 211.438 472.719 195.328 520.158 200.962C557.517 205.393 591.947 192.662 625.746 186.487C671.325 178.246 716.244 176.582 758.543 206.837C782.153 223.728 801.542 246.625 821.502 263.015C833.272 272.689 844.721 281.1 859.261 282.453C904 286.594 958.109 262.063 982.848 239.738C993.038 230.545 1000.48 219.528 1006.78 208.351C1029.65 167.74 1032.93 127.932 1080.3 121.446C1127.31 115.02 1154.42 184.752 1209.4 181.163C1217.74 180.602 1225.71 177.464 1234.02 173.304C1254.98 162.818 1273.72 145.496 1295.86 133.676C1334.79 112.895 1379.48 122.198 1417.27 116.654C1469.38 109.006 1506.86 71.4028 1545.36 100.464C1557.84 109.828 1566.97 121.376 1573.89 133.586C1605.61 189.745 1591.25 286.513 1675.74 275.486C1721.06 269.572 1734.91 215.137 1766.88 175.058C1798.85 134.98 1838.51 147.41 1919.95 150.588" stroke="#838383" stroke-width="0.5" stroke-miterlimit="10"/>
  <path d="M0.329712 155.029C79.278 178.467 102.178 228.45 154.786 220.882C206.995 213.283 258.854 143.782 342.903 175.319C367.832 184.672 388.262 192.311 406.861 198.316C452.16 212.942 469.52 197.594 514.179 205.845C552.058 212.842 585.867 201.554 618.527 195.629C663.626 187.539 707.825 183.991 749.774 207.689C773.393 221.032 793.293 238.495 813.663 250.966C825.442 258.174 836.812 264.87 851.022 264.94C894.821 265.181 946.86 240.209 971.899 218.766C982.379 209.794 990.259 199.489 997.049 189.504C1021.96 152.874 1027.82 129.927 1073.7 121.186C1117.89 112.765 1146.42 184.662 1201.1 181.344C1209.34 180.833 1217.29 177.886 1225.59 174.006C1247.03 163.991 1265.68 147.27 1286.83 135.03C1324.91 113.006 1365.64 116.534 1404.01 111.131C1455.28 103.913 1492.22 73.8891 1529.34 103.913C1541.36 113.567 1550.26 125.136 1557.09 137.085C1588.14 191.66 1576.95 285.12 1663.19 269.391C1710.36 260.79 1727.6 210.055 1762.37 173.274C1795.29 138.448 1837.96 149.014 1919.96 153.425" stroke="#838383" stroke-width="0.5" stroke-miterlimit="10"/>
  <path d="M0.390259 159.901C71.4388 180.993 97.3982 221.323 152.127 213.283C206.946 205.133 256.925 144.182 339.563 175.981C363.593 185.223 383.752 193.023 402.592 199.388C447.091 214.436 466.39 200.421 508.23 210.736C546.619 220.2 579.818 210.466 611.327 204.782C655.946 196.852 699.506 191.389 741.035 208.541C764.714 218.325 784.924 230.385 805.853 238.916C817.543 243.688 828.933 248.62 842.803 247.437C885.662 243.768 935.641 218.385 960.97 197.815C971.75 189.063 980.07 179.469 987.339 170.678C1014.34 138.017 1021.28 125.877 1067.12 120.935C1109.71 116.354 1138.43 184.572 1192.83 181.534C1200.98 181.063 1208.89 178.316 1217.17 174.718C1239.11 165.184 1257.64 149.034 1277.81 136.393C1315.03 113.086 1351.8 110.88 1390.76 105.617C1441.2 98.8103 1477.59 76.3951 1513.34 107.361C1524.9 117.306 1533.57 128.905 1540.3 140.593C1570.68 193.584 1562.65 283.666 1650.65 263.296C1699.65 251.958 1720.22 204.942 1757.86 171.49C1792.86 140.383 1837.41 150.628 1919.96 156.262" stroke="#838383" stroke-width="0.5" stroke-miterlimit="10"/>
  <path d="M0.440918 164.763C63.5996 183.509 92.609 214.195 149.458 205.674C206.887 196.973 254.996 144.553 336.214 176.632C359.333 185.765 379.243 193.714 398.303 200.451C442.002 215.899 463.181 203.759 502.27 215.619C541.16 227.428 573.759 219.358 604.128 213.924C648.267 206.145 691.276 198.707 732.286 209.383C756.075 215.578 776.395 222.355 798.034 226.856C809.554 229.252 821.044 232.37 834.573 229.924C876.492 222.335 924.421 196.552 950.031 176.853C961.111 168.332 969.891 159.45 977.62 151.841C1006.78 123.16 1015.05 113.477 1060.52 120.684C1101.08 127.1 1130.41 184.492 1184.53 181.725C1192.59 181.294 1200.48 178.758 1208.75 175.429C1231.18 166.397 1249.58 150.769 1268.78 137.756C1305.13 113.126 1337.95 105.206 1377.5 100.114C1427.1 93.7178 1462.95 78.9113 1497.32 110.82C1508.42 121.055 1516.86 132.684 1523.5 144.102C1553.22 195.509 1548.31 282.143 1638.1 257.211C1688.94 243.096 1712.78 199.789 1753.36 169.715C1790.37 142.288 1836.87 152.252 1919.97 159.109" stroke="#838383" stroke-width="0.5" stroke-miterlimit="10"/>
  <path d="M0.501465 169.625C55.7603 186.036 87.8196 207.068 146.798 198.065C206.837 188.813 253.086 144.914 332.864 177.274C355.084 186.286 374.724 194.386 394.023 201.514C436.922 217.353 459.882 207.559 496.311 220.501C535.73 234.515 567.7 228.25 596.919 223.057C640.578 215.428 683.107 205.925 723.536 210.215C747.476 212.762 768.285 209.985 790.215 214.787C801.255 217.203 813.154 216.1 826.344 212.391C867.323 200.862 913.222 174.708 939.092 155.871C950.482 147.581 959.731 139.411 967.901 132.985C999.29 108.314 1009.02 108.284 1053.93 120.404C1092.28 130.749 1122.41 184.372 1176.24 181.885C1184.21 181.504 1192.07 179.179 1200.33 176.111C1223.28 167.59 1241.53 152.463 1259.77 139.1C1295.21 113.116 1324.11 99.5223 1364.26 94.5801C1413.02 88.5853 1448.33 81.3976 1481.32 114.259C1491.96 124.785 1500.17 136.433 1506.71 147.601C1535.76 197.424 1533.95 280.559 1625.55 251.116C1678.2 234.194 1705.29 194.557 1748.85 167.931C1787.82 144.112 1836.32 153.856 1919.97 161.946" stroke="#838383" stroke-width="0.5" stroke-miterlimit="10"/>
  <path d="M0.550171 174.497C47.9192 188.562 83.0284 199.95 144.137 190.466C206.786 180.662 251.175 145.275 329.523 177.935C350.843 186.827 370.232 195.078 389.752 202.586C431.861 218.786 454.271 219.708 490.36 225.402C532.939 232.119 561.648 237.161 589.718 232.219C632.897 224.751 674.956 213.032 714.785 211.087C738.885 209.904 759.184 206.957 782.384 202.757C793.483 200.742 805.253 199.869 818.103 194.907C858.142 179.439 902.011 152.934 928.141 134.929C939.83 126.879 949.57 119.431 958.17 114.168C991.849 93.5773 1003.06 102.93 1047.33 120.163C1083.54 134.258 1114.4 184.301 1167.93 182.086C1175.81 181.745 1183.64 179.64 1191.88 176.833C1215.33 168.843 1233.41 154.177 1250.71 140.473C1285.24 113.105 1310.24 93.848 1350.98 89.0762C1398.89 83.4624 1433.66 83.9135 1465.29 117.717C1475.47 128.534 1483.45 140.212 1489.9 151.119C1518.28 199.348 1519.55 278.955 1612.99 245.041C1667.43 225.282 1697.74 189.253 1744.33 166.166C1785.24 145.896 1835.77 155.49 1919.96 164.803" stroke="#838383" stroke-width="0.5" stroke-miterlimit="10"/>
  <path d="M0.608765 179.359C40.0779 191.078 78.2471 192.822 141.476 182.858C206.734 172.502 249.274 145.606 326.182 178.587C346.602 187.349 365.731 195.739 385.471 203.649C426.8 220.21 450.589 223.297 484.399 230.285C527.938 239.277 555.587 246.054 582.517 241.362C625.216 234.044 666.765 219.999 706.034 211.929C730.263 206.947 750.733 199.559 774.563 190.697C785.532 186.617 797.362 183.61 809.882 177.384C848.971 157.966 890.82 131.13 917.209 113.958C929.209 106.148 939.439 99.4419 948.459 95.3218C984.458 78.8912 997.248 97.3467 1040.75 119.902C1074.92 137.616 1106.41 184.201 1159.64 182.256C1167.42 181.955 1175.24 180.081 1183.46 177.525C1207.44 170.086 1225.33 155.851 1241.7 141.816C1275.27 113.025 1296.41 88.134 1337.74 83.5427C1384.81 78.3098 1419.04 86.3897 1449.29 121.145C1459.01 132.243 1466.76 143.962 1473.11 154.598C1500.82 201.243 1505.13 277.271 1600.44 238.916C1656.64 216.3 1690.2 183.82 1739.83 164.352C1782.66 147.551 1835.23 157.074 1919.98 167.61" stroke="#838383" stroke-width="0.5" stroke-miterlimit="10"/>
  <path d="M0.659546 184.231C32.2389 193.604 73.458 185.705 138.807 175.259C206.675 164.352 247.364 145.916 322.823 179.239C342.352 187.86 361.222 196.401 381.182 204.711C421.741 221.603 446.85 226.996 478.43 235.167C522.849 246.645 549.518 254.945 575.297 250.504C617.527 243.337 658.476 226.876 697.275 212.771C721.584 203.93 742.464 192.241 766.733 178.637C777.653 172.512 789.453 167.339 801.643 159.871C839.772 136.503 879.621 109.346 906.251 92.9959C918.57 85.4373 929.28 79.4826 938.72 76.4852C977.049 64.3152 991.599 91.6426 1034.14 119.642C1066.42 140.894 1098.39 184.111 1151.34 182.436C1159.03 182.186 1166.82 180.532 1175.02 178.226C1199.51 171.349 1217.2 157.515 1232.66 143.17C1265.24 112.925 1282.54 82.4298 1324.47 78.019C1370.7 73.157 1404.39 88.8858 1433.26 124.584C1442.52 135.972 1450.04 147.711 1456.3 158.096C1483.34 203.158 1490.67 275.576 1587.88 232.821C1645.85 207.328 1682.65 178.336 1735.31 162.568C1780.08 149.164 1834.67 158.678 1919.97 170.447" stroke="#D86A8D" stroke-miterlimit="10"/>
  <path d="M0.719971 189.093C24.3995 196.12 68.6685 178.577 136.147 167.65C206.626 156.192 245.485 146.197 319.483 179.89C338.113 188.371 356.742 197.053 376.902 205.784C416.691 223.007 443.041 230.806 472.47 240.059C517.659 254.264 543.469 263.847 568.098 259.657C609.847 252.64 650.086 233.733 688.525 213.634C712.855 200.912 734.365 184.933 758.914 166.598C769.874 158.407 781.554 151.089 793.413 142.378C830.582 115.05 868.442 87.5927 895.311 72.0543C907.941 64.7463 919.141 59.5736 929 57.6689C969.63 49.8496 986.179 85.8684 1027.54 119.401C1058.07 144.162 1090.37 184.031 1143.04 182.637C1150.64 182.427 1158.41 181.013 1166.59 178.948C1191.6 172.652 1209.06 159.189 1223.62 144.543C1255.16 112.815 1268.68 76.7359 1311.21 72.5255C1356.6 68.0344 1389.75 91.4121 1417.24 128.062C1426.04 139.741 1433.33 151.51 1439.49 161.625C1465.86 205.102 1476.17 273.902 1575.31 226.756C1635.01 198.366 1675.12 172.803 1730.79 160.813C1777.53 150.748 1834.11 160.322 1919.96 173.314" stroke="#838383" stroke-width="0.5" stroke-miterlimit="10"/>
  <path d="M0.780518 193.955C16.5702 198.646 63.8892 171.449 133.488 160.041C206.576 148.032 243.625 146.458 316.144 180.542C333.893 188.882 352.263 197.694 372.633 206.847C411.672 224.38 439.141 234.665 466.531 244.941C512.32 262.133 537.429 272.739 560.909 268.799C602.178 261.943 641.627 240.59 679.796 214.475C704.076 197.865 726.385 177.554 751.115 154.528C762.154 144.252 773.654 134.799 785.204 124.844C821.333 93.4871 857.272 65.8088 884.392 51.0725C897.342 44.0351 909.001 39.6343 919.301 38.8122C962.17 35.4138 980.98 80.0339 1020.97 119.13C1049.91 147.42 1082.39 183.93 1134.77 182.807C1142.28 182.637 1150.03 181.464 1158.19 179.64C1183.73 173.946 1200.94 160.823 1214.62 145.886C1245.08 112.644 1254.86 70.9916 1297.98 66.9917C1342.52 62.8515 1375.14 93.8981 1401.26 131.491C1409.6 143.46 1416.66 155.249 1422.73 165.114C1448.43 207.007 1461.69 272.168 1562.8 220.641C1624.22 189.343 1667.7 167.149 1726.32 159.009C1775.06 152.232 1833.6 161.916 1920 176.121" stroke="#838383" stroke-width="0.5" stroke-miterlimit="10"/>
  <path d="M0.831177 198.827C8.72101 201.173 59.1 164.322 130.818 152.443C206.517 139.882 241.766 146.699 312.785 181.204C329.644 189.394 347.764 198.346 368.333 207.92C406.623 225.744 435.102 238.575 460.552 249.833C506.731 270.273 531.35 281.641 553.69 277.952C594.479 271.246 633.048 247.477 671.027 215.328C695.217 194.847 718.416 170.126 743.266 142.478C754.415 130.078 765.735 118.549 776.945 107.342C812.124 72.0646 846.063 44.0755 873.423 30.1111C886.693 23.3344 898.802 19.7255 909.552 19.9761C954.611 21.0487 975.901 74.25 1014.35 118.87C1041.81 150.739 1074.36 183.83 1126.44 182.988C1133.85 182.868 1141.58 181.936 1149.73 180.342C1175.79 175.269 1192.74 162.458 1205.56 147.24C1234.87 112.464 1240.97 65.1976 1284.68 61.4684C1328.37 57.6189 1360.46 96.3845 1385.2 134.93C1393.08 147.19 1399.91 159.009 1405.88 168.603C1430.91 208.912 1447.1 270.414 1550.19 214.536C1613.31 180.322 1660.22 161.465 1721.76 157.215C1772.54 153.706 1832.99 163.51 1919.94 178.948" stroke="#838383" stroke-width="0.5" stroke-miterlimit="10"/>
  <path d="M0.889771 203.689C0.889771 203.689 54.3187 157.194 128.167 144.834C224.475 128.704 252.954 155.36 364.072 208.982C475.19 262.594 502.809 287.095 546.498 287.095C612.457 276.368 671.286 213.233 735.464 130.428C799.623 47.6141 858.572 -3.73251 899.841 1.13951C985.209 11.2144 994.619 205.514 1141.31 181.053C1230.16 166.237 1208.21 61.0372 1271.44 55.9547C1327.91 51.4135 1364.73 133.396 1389.1 172.121C1413.46 210.847 1432.56 268.689 1537.66 208.461C1655.66 140.824 1725.86 144.834 1919.97 181.805" stroke="#838383" stroke-width="0.5" stroke-miterlimit="10"/>
</svg>
