<svg width="1914" height="379" viewBox="0 0 1914 379" fill="none" xmlns="http://www.w3.org/2000/svg">
  <path d="M1913.98 136.254C1835.55 139.191 1769.26 311.993 1733.12 305.22C1642.01 288.157 1571.3 63.3788 1474.71 116.744C1408.12 153.536 1379.87 111.849 1336.85 126.774C1297.8 140.32 1275.53 177.441 1247 179.949C1190.73 184.894 1152.22 115.096 1096.56 144.655C1029.37 180.328 1074.36 297.038 1034.34 343.67C1011.33 370.473 947.011 392.56 897.617 369.044C854.024 348.295 850.605 270.176 812.664 215.103C733.971 100.87 622.472 184.614 548.246 205.283C470.729 226.861 480.708 93.4878 361.872 54.6578C269.662 24.5288 206.939 228.739 170.245 228.739C97.7924 228.739 125.914 126.843 0 89.4819" stroke="#838383" stroke-width="0.5" stroke-miterlimit="10"/>
  <path d="M0.0598145 96.5947C118.109 131.629 95.0012 224.963 167.583 224.963C205.733 224.963 267.279 34.0391 358.253 64.228C393.462 75.846 417.517 95.8155 436.118 117.563C477.887 166.373 490.447 222.475 542.564 209.628C578.999 200.648 622.662 177.751 666.743 168.291C713.974 158.191 761.884 163.116 801.669 216.521C838.901 266.71 843.906 337.736 886.322 355.418C898.055 360.313 910.556 362.811 923.166 363.2C961.875 364.479 1001.17 346.887 1018.39 326.918C1058.78 280.096 1018.89 168.361 1084.09 135.704C1139.56 107.933 1177.36 179.16 1233.33 177.851C1259.7 177.232 1281.51 148.451 1316.34 133.397C1319.19 132.158 1322.11 131.019 1325.11 129.99C1370.16 114.656 1395.42 147.452 1461.76 112.948C1505.22 90.3511 1542.91 124.506 1578.73 167.392C1608.26 202.845 1637.94 243.983 1672.06 268.957C1689.89 282.014 1706.7 293.162 1724.91 295.66C1763.93 301.004 1830.88 140.01 1913.98 139.071" stroke="#838383" stroke-width="0.5" stroke-miterlimit="10"/>
  <path d="M0.109619 103.707C110.283 136.404 92.2099 221.186 164.921 221.186C204.527 221.186 264.897 43.5591 354.635 73.798C388.677 85.1463 412.463 104.347 431.234 125.375C472.952 172.117 486.49 224.773 536.881 213.974C573.706 206.082 616.102 185.213 658.608 176.163C704.813 166.393 751.646 169.749 790.673 217.94C827.298 263.163 833.728 327.167 875.028 341.782C886.372 345.798 898.374 347.746 910.506 347.666C947.689 347.426 985.391 329.864 1002.44 310.155C1043.19 263.153 1008.44 156.433 1071.62 126.753C1126.94 100.77 1163.98 173.445 1219.66 175.753C1246.03 176.852 1268.64 151.148 1304.44 136.553C1307.37 135.355 1310.34 134.236 1313.37 133.207C1360.45 117.473 1382.74 141.398 1448.8 109.162C1493.03 87.5738 1530.75 125.095 1565.8 167.691C1594.97 203.345 1624.6 241.965 1662.78 263.213C1681.46 273.612 1698.24 284.411 1716.72 286.109C1758.67 289.965 1826.22 140.829 1913.99 141.898" stroke="#838383" stroke-width="0.5" stroke-miterlimit="10"/>
  <path d="M0.169434 110.82C102.478 141.179 89.4187 217.4 162.28 217.4C203.34 217.4 262.464 53.2792 351.036 83.3582C383.893 94.5167 407.419 112.858 426.369 133.177C468.028 177.861 482.602 227.16 531.209 218.309C568.452 211.526 609.553 192.666 650.484 184.025C695.662 174.574 741.358 176.392 779.678 219.348C815.635 259.647 823.51 316.598 863.733 328.136C874.679 331.273 886.183 332.682 897.836 332.122C933.474 330.404 969.59 312.832 986.487 293.382C1027.6 246.201 998.051 144.545 1059.15 117.783C1114.35 93.6077 1150.62 167.721 1206 173.635C1232.38 176.452 1255.77 153.836 1292.52 139.69C1295.53 138.531 1298.56 137.423 1301.63 136.404C1350.71 120.16 1370.1 135.375 1435.85 105.346C1480.87 84.7868 1518.66 125.585 1552.87 167.961C1581.76 203.774 1610.75 239.947 1653.5 257.439C1672.77 265.331 1689.79 275.58 1708.52 276.529C1753.43 278.807 1821.55 141.628 1913.99 144.705" stroke="#D86A8D" stroke-miterlimit="10"/>
  <path d="M0.21936 117.933C94.6623 145.954 86.6276 213.624 159.618 213.624C202.134 213.624 260.062 62.8495 347.417 92.9285C379.098 103.837 402.355 121.389 421.474 140.999C463.064 183.635 478.734 229.658 525.517 222.665C563.229 217.031 602.984 200.138 642.34 191.907C686.491 182.786 731.051 183.066 768.672 220.777C803.951 256.141 813.212 306.049 852.429 314.52C862.946 316.788 873.971 317.657 885.156 316.608C919.249 313.422 953.78 295.84 970.528 276.639C1012 229.278 987.703 132.748 1046.68 108.852C1101.8 86.5051 1137.27 162.067 1192.32 171.558C1218.72 176.103 1242.89 156.553 1280.61 142.867C1283.69 141.748 1286.77 140.659 1289.88 139.64C1340.99 122.968 1357.49 129.421 1422.89 101.58C1468.72 82.0697 1506.52 126.174 1539.93 168.281C1568.5 204.284 1596.47 238.179 1644.21 251.715C1663.86 257.289 1681.36 268.068 1700.3 266.999C1748.15 264.302 1816.88 142.468 1913.98 147.552" stroke="#838383" stroke-width="0.5" stroke-miterlimit="10"/>
  <path d="M0.279175 125.045C86.8469 150.739 83.8364 209.838 156.966 209.838C200.938 209.838 257.67 72.3996 343.809 102.489C374.313 113.148 397.29 129.91 416.6 148.801C458.099 189.399 474.926 232.235 519.845 227C558.045 222.545 596.434 207.6 634.215 199.768C677.34 190.977 720.743 189.699 757.687 222.185C792.288 252.604 802.885 295.51 841.144 300.874C851.233 302.283 861.79 302.603 872.496 301.064C905.043 296.409 937.99 278.807 954.588 259.867C996.416 212.326 977.426 120.99 1034.22 99.8813C1089.32 79.4023 1123.93 156.403 1178.66 169.44C1205.08 175.733 1230.02 159.24 1268.72 146.004C1271.87 144.925 1275.01 143.856 1278.15 142.837C1331.28 125.735 1344.92 123.467 1409.96 97.7635C1456.6 79.3324 1494.39 126.724 1527.01 168.551C1555.24 204.753 1581.91 236.73 1634.94 245.941C1654.85 249.397 1673 259.257 1692.11 257.419C1742.82 252.554 1812.21 143.267 1913.98 150.349" stroke="#838383" stroke-width="0.5" stroke-miterlimit="10"/>
  <path d="M0.328979 132.168C79.0314 155.524 81.0351 206.072 154.305 206.072C199.732 206.072 255.267 81.9697 340.19 112.079C369.518 122.478 392.216 138.471 411.715 156.633C453.115 195.193 471.138 234.942 514.163 231.366C552.891 228.149 589.875 215.083 626.081 207.67C668.178 199.209 710.416 196.382 746.681 223.634C780.585 249.108 792.468 285.061 829.84 287.268C839.48 287.838 849.588 287.588 859.826 285.57C890.828 279.456 922.199 261.824 938.628 243.144C980.815 195.423 967.188 109.351 1021.74 90.9704C1076.86 72.3895 1110.58 150.819 1164.99 167.382C1191.42 175.433 1217.14 161.977 1256.81 149.2C1260.03 148.162 1263.23 147.103 1266.41 146.094C1321.57 128.572 1332.35 117.623 1397 94.0173C1444.49 76.6751 1482.23 127.343 1514.07 168.9C1541.96 205.303 1571.22 218.489 1625.66 240.247C1644.4 247.739 1664.48 248.978 1683.9 247.919C1737.85 245.002 1807.54 144.136 1913.98 153.236" stroke="#838383" stroke-width="0.5" stroke-miterlimit="10"/>
  <path d="M0.388794 139.281C71.216 160.299 78.2539 202.296 151.653 202.296C198.536 202.296 252.885 91.51 336.581 121.649C364.743 131.788 387.142 147.013 406.84 164.455C448.121 200.997 467.49 232.085 508.491 235.722C549.492 239.358 583.305 222.485 617.956 215.552C659.017 207.331 700.088 203.035 735.696 225.062C768.892 245.591 782.16 270.266 818.555 273.642C827.697 274.492 837.396 272.554 847.165 270.046C876.613 262.484 906.409 244.812 922.688 226.391C965.234 178.49 957.01 97.7735 1009.28 82.0197C1064.46 65.3869 1097.24 145.215 1151.33 165.284C1177.79 175.094 1204.28 164.675 1244.91 152.357C1248.21 151.348 1251.46 150.319 1254.67 149.31C1311.87 131.379 1319.82 111.769 1384.06 90.2213C1432.39 74.008 1470.09 127.922 1501.16 169.19C1528.71 205.802 1554.99 216.931 1616.4 234.493C1635.93 240.087 1656.07 240.017 1675.72 238.359C1732.68 233.554 1802.9 144.955 1914 156.054" stroke="#838383" stroke-width="0.5" stroke-miterlimit="10"/>
  <path d="M0.438599 146.393C63.4006 165.074 75.4527 198.51 148.991 198.51C197.329 198.51 250.492 101.04 332.963 131.209C359.958 141.079 382.048 155.554 401.956 172.257C443.106 206.791 463.961 234.952 502.809 240.057C542.314 245.252 576.746 229.937 609.822 223.414C649.856 215.522 689.721 209.668 724.691 226.471C757.158 242.065 771.513 264.312 807.251 260.006C815.954 258.957 825.195 257.509 834.485 254.512C862.388 245.511 890.599 227.789 906.728 209.628C949.633 161.548 946.852 86.2652 996.795 73.0688C1052.08 58.4638 1083.87 139.63 1137.64 163.176C1164.11 174.764 1191.39 167.372 1232.99 155.504C1236.36 154.535 1239.67 153.526 1242.92 152.517C1302.15 134.176 1307.29 105.955 1371.09 86.425C1420.29 71.3605 1457.91 128.492 1488.21 169.48C1515.42 206.292 1538.67 216.721 1607.1 228.739C1627.44 232.315 1647.61 231.046 1667.5 228.798C1727.45 222.035 1798.21 145.774 1913.98 158.87" stroke="#838383" stroke-width="0.5" stroke-miterlimit="10"/>
  <path d="M0.498413 153.506C55.5852 169.859 72.6614 194.734 146.34 194.734C196.133 194.734 248.11 110.56 329.354 140.779C355.173 150.379 376.964 164.105 397.081 180.079C438.082 212.615 460.432 238.119 497.126 244.412C536.971 251.245 570.187 237.41 601.688 231.296C640.695 223.724 679.333 216.341 713.695 227.899C745.405 238.569 761.006 254.093 795.957 246.38C804.181 244.562 813.003 242.484 821.825 238.988C848.172 228.549 874.809 210.777 890.778 192.876C934.042 144.615 936.744 74.857 984.324 64.1181C1039.75 51.611 1070.49 134.066 1123.97 161.078C1150.45 174.455 1178.51 170.069 1221.09 158.661C1224.54 157.732 1227.9 156.743 1231.19 155.734C1292.45 136.993 1294.79 100.191 1358.15 82.629C1408.23 68.7533 1445.76 129.071 1475.29 169.769C1502.16 206.791 1523.52 235.462 1597.82 222.985C1618.69 219.478 1639.17 222.046 1659.3 219.238C1722.24 210.457 1793.55 146.583 1913.99 161.698" stroke="#838383" stroke-width="0.5" stroke-miterlimit="10"/>
  <path d="M0.548218 160.619C47.7697 174.634 69.8702 190.948 143.688 190.948C194.937 190.948 245.737 120.061 325.745 150.339C350.398 159.67 371.87 172.666 392.206 187.881C433.048 218.449 456.853 241.545 491.454 248.748C531.648 257.119 563.637 244.862 593.563 239.158C631.544 231.915 668.926 223.015 702.71 229.298C733.652 235.062 750.529 243.973 784.672 232.725C792.438 230.167 800.811 227.43 809.165 223.434C833.967 211.576 859.018 193.745 874.838 176.083C918.461 127.633 926.675 63.5088 971.863 55.1374C1027.46 44.838 1057.12 128.492 1110.32 158.951C1136.79 174.115 1165.65 172.746 1209.2 161.788C1212.72 160.898 1216.13 159.929 1219.45 158.921C1282.76 139.78 1282.3 94.4369 1345.2 78.813C1396.17 66.156 1433.6 129.641 1462.36 170.039C1488.87 207.281 1509.3 236.051 1588.54 217.211C1609.77 212.166 1630.73 213.025 1651.1 209.658C1717.01 198.789 1788.88 147.382 1913.99 164.495" stroke="#838383" stroke-width="0.5" stroke-miterlimit="10"/>
  <path d="M0.608032 167.731C39.9543 179.409 67.079 187.171 141.036 187.171C193.741 187.171 243.374 129.561 322.137 159.909C345.623 168.96 366.766 181.238 387.322 195.693C427.994 224.303 452.427 249.807 485.772 253.094C527.311 257.179 557.078 252.334 585.439 247.03C622.392 240.117 658.519 229.738 691.714 230.717C721.87 231.606 740.112 233.993 773.377 219.099C780.685 215.832 788.62 212.415 796.495 207.92C819.752 194.644 843.228 176.742 858.889 159.34C902.87 110.71 916.617 52.3103 959.392 46.1966C1015.18 38.2248 1043.73 122.958 1096.65 156.863C1123.12 173.825 1152.78 175.453 1197.28 164.954C1200.88 164.105 1204.35 163.156 1207.71 162.147C1273.05 142.607 1269.8 88.7627 1332.25 75.0369C1384.11 63.6386 1421.43 130.25 1449.43 170.359C1475.59 207.81 1495.3 236.92 1579.27 211.486C1600.91 204.933 1622.29 204.024 1642.9 200.128C1711.76 187.121 1784.23 148.222 1914 167.342" stroke="#838383" stroke-width="0.5" stroke-miterlimit="10"/>
  <path d="M0.657959 174.844C32.1389 184.185 64.2878 183.395 138.375 183.395C192.534 183.395 241.002 139.041 318.518 169.48C340.848 178.251 361.653 189.819 382.437 203.515C422.92 230.187 448.659 253.054 480.09 257.449C522.158 263.333 550.519 259.817 577.304 254.912C613.241 248.339 648.102 236.521 680.719 232.145C710.097 228.209 729.785 224.113 762.083 205.473C768.951 201.507 776.428 197.391 783.835 192.396C805.556 177.721 827.438 159.73 842.939 142.587C887.279 93.7776 906.569 41.2118 946.922 37.2558C1002.91 31.7715 1030.32 117.433 1082.97 154.775C1109.43 173.536 1139.9 178.161 1185.37 168.121C1189.04 167.302 1192.57 166.383 1195.96 165.374C1263.37 145.564 1257.3 83.1286 1319.28 71.2508C1372.02 61.1412 1409.24 130.849 1436.48 170.658C1462.27 208.33 1481.5 237.939 1569.97 205.742C1592.1 197.691 1613.8 195.003 1634.68 190.588C1706.45 175.384 1779.54 149.061 1913.97 170.189" stroke="#838383" stroke-width="0.5" stroke-miterlimit="10"/>
  <path d="M0.717773 181.967C24.3235 188.969 61.4966 179.619 135.723 179.619C191.338 179.619 238.649 148.501 314.91 179.05C336.073 187.531 356.539 198.41 377.563 211.326C417.856 236.081 444.861 256.36 474.418 261.794C516.964 269.606 543.969 267.289 569.18 262.783C604.09 256.55 637.724 243.323 669.734 233.563C698.364 224.832 719.597 214.303 750.789 191.836C757.258 187.181 764.246 182.366 771.165 176.862C791.371 160.788 811.637 142.707 826.989 125.824C871.688 76.8348 896.5 30.2028 934.451 28.2948C990.624 25.4777 1016.9 111.899 1069.31 152.667C1095.74 173.236 1127.03 180.858 1173.47 171.268C1177.22 170.488 1180.8 169.589 1184.23 168.58C1253.67 148.361 1244.8 77.5141 1306.33 67.4545C1359.97 58.6835 1397.06 131.439 1423.55 170.948C1450.05 210.457 1467.91 239.068 1560.69 199.988C1583.36 190.438 1605.34 185.962 1626.47 181.028C1701.15 163.576 1774.87 149.88 1913.97 173.006" stroke="#838383" stroke-width="0.5" stroke-miterlimit="10"/>
  <path d="M0.777588 189.079C16.5181 193.755 58.7054 175.843 133.071 175.843C190.142 175.843 236.307 157.932 311.301 188.62C331.308 196.811 351.425 207.021 372.688 219.139C412.782 241.995 441.013 259.737 468.736 266.14C511.691 276.06 537.42 274.811 561.045 270.665C594.949 264.831 627.377 250.167 658.728 234.992C686.64 221.486 709.518 204.524 739.484 178.221C745.565 172.876 752.055 167.372 758.484 161.348C777.176 143.876 795.827 125.705 811.029 109.082C856.087 59.9124 886.482 16.7169 921.97 19.3642C978.154 23.5499 1003.45 106.395 1055.63 150.589C1082.05 172.966 1114.15 183.575 1161.56 174.445C1165.37 173.705 1169.01 172.826 1172.48 171.817C1243.96 151.188 1232.3 71.97 1293.38 63.6785C1347.91 56.2762 1384.8 132.098 1410.63 171.258C1435.61 209.428 1454.51 240.287 1551.42 194.254C1574.69 183.205 1596.88 176.932 1618.28 171.488C1695.84 151.748 1770.21 150.709 1913.98 175.843" stroke="#838383" stroke-width="0.5" stroke-miterlimit="10"/>
  <path d="M0.827393 196.192C8.69265 198.53 55.9141 172.057 130.41 172.057C188.936 172.057 234.024 167.202 307.682 198.18C326.553 206.032 346.291 215.632 367.803 226.951C407.698 247.939 437.095 263.163 463.054 270.486C506.327 282.693 530.86 282.274 552.911 278.537C585.787 273.033 617.079 256.99 647.733 236.411C674.967 218.12 699.57 194.744 728.19 164.585C733.912 158.551 739.873 152.347 745.824 145.814C763.01 126.954 780.037 108.682 795.089 92.3192C840.506 42.97 876.244 8.51548 909.509 10.4035C965.932 13.6202 989.956 100.95 1041.97 148.481C1068.32 172.696 1101.29 186.272 1149.66 177.591C1153.55 176.892 1157.25 176.033 1160.75 175.024C1234.25 153.986 1219.8 66.4259 1280.43 59.8826C1335.85 53.8988 1372.64 132.678 1397.7 171.548C1422.34 209.928 1441.24 241.526 1542.15 188.5C1566.04 175.943 1588.4 167.881 1610.09 161.928C1690.49 139.85 1765.56 151.528 1913.99 178.67" stroke="#838383" stroke-width="0.5" stroke-miterlimit="10"/>
  <path d="M0.887207 203.305C0.887207 203.305 53.1229 168.281 127.768 168.281C202.413 168.281 252.167 181.337 362.938 234.762C473.71 288.187 512.887 291.594 544.796 286.409C610.55 275.72 669.195 212.805 733.174 130.29C797.133 47.7749 855.898 -3.39239 897.039 1.46261C982.141 11.5023 991.521 205.123 1137.75 180.748C1226.33 165.983 1204.45 61.1512 1267.48 56.0864C1323.78 51.561 1360.48 133.257 1384.77 171.847C1409.06 210.437 1428.1 242.784 1532.87 182.756C1650.51 115.355 1720.49 144.655 1913.99 181.497" stroke="#838383" stroke-width="0.5" stroke-miterlimit="10"/>
</svg>
