<svg width="1914" height="336" viewBox="0 0 1914 336" fill="none" xmlns="http://www.w3.org/2000/svg">
  <path d="M1913.96 93.4631C1835.53 96.3976 1833.08 105.82 1814.06 162.852C1795.21 219.375 1720.23 220.742 1684.09 213.975C1592.97 196.927 1704.92 85.8176 1620.36 40.5234C1575.12 16.2993 1530.77 64.0688 1474.69 73.9701C1439.95 80.0984 1374.13 31.6502 1331.11 46.562C1292.06 60.0963 1275.51 134.615 1246.97 137.12C1190.71 142.061 1152.19 37.06 1096.54 66.594C1029.35 102.237 1074.34 254.109 1034.32 300.701C1011.31 327.48 946.992 349.548 897.597 326.053C854.005 305.322 850.586 227.27 812.646 172.244C733.954 58.1101 627.948 45.9431 553.723 66.594C476.207 88.1532 499.225 140.654 380.39 101.857C288.181 71.7542 257.378 6.96694 256.092 50.6143C254.307 111.05 206.678 218.736 170.233 223.018C130.498 227.679 125.913 120.292 0 82.953" stroke="#838383" stroke-width="0.5" stroke-miterlimit="10"/>
  <path d="M0.0598145 87.7939C118.107 122.798 124.936 219.914 166.843 215.442C203.588 211.52 250.789 111.19 254.945 55.6847C257.956 15.4909 288.43 77.0942 376.931 106.329C404.852 115.571 424.899 119.793 440.38 120.482C487.472 122.578 489.745 90.2293 546.147 76.3556C596.827 63.8892 659.339 66.2048 718.343 100.799C746.943 117.568 775.014 141.223 800.075 174.889C837.517 225.174 842.392 296.419 884.808 314.245C915.421 327.111 951.557 322.929 979.698 310.941C995.399 304.324 1008.53 295.411 1016.66 285.969C1057.64 238.429 1018.05 95.2199 1083.56 62.4919C1138.88 34.8542 1176.69 137.889 1232.25 139.835C1257.95 140.734 1275.19 86.0672 1307.79 64.6278C1311.53 62.1725 1315.41 60.1263 1319.51 58.6591C1362.7 43.2483 1425.19 83.2725 1458.98 73.9302C1479.09 68.3607 1497.85 58.5493 1516.24 50.4946C1547.58 36.8005 1575.75 26.5399 1603.85 43.0487C1619.48 52.1514 1628.47 63.4401 1633.34 75.617C1651.63 121.75 1610.43 185.569 1656.34 204.802C1661.7 207.048 1668.13 209.104 1676.09 210.142C1713.85 215.033 1788.15 212.757 1809.56 159.748C1830.97 106.728 1835.99 98.1942 1913.97 96.2879" stroke="#838383" stroke-width="0.5" stroke-miterlimit="10"/>
  <path d="M0.109619 92.6447C110.282 125.313 119.363 212.148 163.454 207.876C200.487 204.293 247.27 111.359 253.789 60.7751C258.524 24.0446 288.669 82.454 373.461 110.81C400.327 119.823 419.865 124.245 435.207 125.253C480.962 128.257 484.451 97.7051 538.57 86.137C589.729 75.1978 649.859 78.7211 706.76 110.331C734.871 125.952 762.763 147.042 787.505 177.554C824.428 223.088 830.729 287.526 872.008 302.457C901.555 313.147 936.036 308.316 963.25 296.069C978.303 289.292 990.993 280.539 998.988 271.276C1040.93 222.798 1006.75 88.273 1070.55 58.4195C1125.56 32.6783 1162.67 136.751 1217.49 142.58C1243.4 145.335 1261.83 97.3857 1295.89 76.6849C1299.75 74.3394 1303.73 72.3032 1307.87 70.7761C1351.25 54.8762 1410.4 86.4864 1443.25 73.9002C1462.7 66.4443 1481.08 55.6548 1499.65 48.0292C1531.4 35.0438 1559.56 27.9173 1587.32 45.5739C1602.61 55.2954 1611.7 66.9434 1616.76 79.1802C1635.58 124.764 1598.45 187.126 1648.1 202.167C1653.65 203.844 1660.13 205.721 1668.07 206.309C1707.53 209.264 1780.99 206.24 1805.04 156.653C1828.78 107.706 1836.42 99.9908 1913.96 99.1125" stroke="#838383" stroke-width="0.5" stroke-miterlimit="10"/>
  <path d="M0.169434 97.4855C102.477 127.818 113.801 204.353 160.065 200.301C197.397 197.037 243.761 111.559 252.643 65.8454C259.102 32.6083 288.918 87.7938 370.012 115.282C395.811 124.075 414.851 128.676 430.053 130.014C474.473 133.916 479.238 105.281 531.014 95.8985C582.711 86.5262 640.439 91.1874 695.206 119.833C722.849 134.296 750.541 152.831 774.954 180.189C811.34 220.962 819.025 278.602 859.229 290.64C887.679 299.164 920.555 293.744 946.822 281.168C961.237 274.271 973.478 265.627 981.333 256.544C1024.22 207.118 995.518 81.3261 1057.56 54.3172C1112.3 30.4923 1148.8 134.286 1202.74 145.295C1228.9 150.635 1248.47 108.664 1284.01 88.722C1288 86.4863 1292.05 84.4701 1296.25 82.8731C1339.8 66.4742 1395.61 89.7002 1427.52 73.8602C1446.32 64.5279 1464.3 52.7602 1483.06 45.5538C1515.23 33.287 1543.39 29.2247 1570.8 48.099C1585.79 58.4095 1594.94 70.4566 1600.19 82.7434C1619.46 127.798 1586.24 188.832 1639.88 199.532C1645.59 200.67 1652.17 202.906 1660.06 202.477C1701.23 200.241 1773.75 199.812 1800.55 153.559C1826.51 108.744 1836.89 101.787 1913.97 101.947" stroke="#838383" stroke-width="0.5" stroke-miterlimit="10"/>
  <path d="M0.21936 102.326C94.6613 130.323 108.229 196.538 156.666 192.725C194.287 189.761 240.232 111.798 251.486 70.9159C259.671 41.1922 289.158 93.1238 366.543 119.743C391.285 128.317 409.817 133.098 424.879 134.765C467.953 139.526 474.064 112.986 523.438 105.65C575.743 97.8848 631.039 103.624 683.623 129.335C710.817 142.63 738.26 158.6 762.384 182.824C798.221 218.816 807.243 269.689 846.429 278.822C873.743 285.19 905.054 279.172 930.374 266.256C944.151 259.239 955.943 250.715 963.659 241.802C1007.5 191.438 984.304 74.4093 1044.55 50.2051C1099.04 28.3066 1134.95 131.97 1187.98 147.99C1214.41 155.975 1235.09 119.913 1272.12 100.739C1276.23 98.6034 1280.37 96.6072 1284.62 94.9504C1328.35 78.0524 1380.8 92.9142 1411.79 73.7904C1429.93 62.5916 1447.52 49.8358 1466.46 43.0487C1499.04 31.4906 1527.22 30.4924 1554.27 50.5944C1568.93 61.4937 1578.14 73.9402 1583.6 86.2768C1603.3 130.802 1573.86 190.689 1631.62 196.857C1637.49 197.486 1644.22 199.542 1652.03 198.614C1694.76 193.544 1766.37 193.414 1796.02 150.425C1824.06 109.772 1837.32 103.544 1913.96 104.732" stroke="#838383" stroke-width="0.5" stroke-miterlimit="10"/>
  <path d="M0.279175 107.177C86.846 132.848 102.666 188.723 153.286 185.159C191.197 182.484 236.693 112.118 250.35 76.006C260.239 49.8456 289.417 98.4835 363.104 124.235C386.78 132.579 404.803 137.53 419.736 139.536C461.454 145.145 468.98 120.841 515.892 115.431C568.875 109.323 621.708 116.04 672.069 138.867C698.835 150.994 725.999 164.389 749.834 185.489C785.093 216.7 795.42 260.826 833.649 267.034C859.787 271.276 889.573 264.629 913.956 251.384C927.094 244.247 938.439 235.833 946.025 227.11C990.813 175.797 973.169 67.592 1031.58 46.1426C1085.86 26.2104 1121.14 129.854 1173.26 150.745C1199.95 161.444 1221.73 131.211 1260.25 112.816C1264.49 110.79 1268.72 108.804 1273.01 107.087C1316.92 89.6901 1366.03 96.2078 1396.07 73.7902C1413.56 60.7449 1430.77 46.971 1449.89 40.6131C1482.88 29.7636 1511.08 31.8197 1537.77 53.1493C1552.12 64.6276 1561.38 77.4833 1567.05 89.8798C1587.17 133.886 1562.17 184.69 1623.41 194.262C1629.35 195.19 1636.22 195.4 1644.03 194.821C1688.88 191.487 1758.88 187.126 1791.53 147.371C1821.49 110.89 1837.78 105.39 1913.97 107.606" stroke="#838383" stroke-width="0.5" stroke-miterlimit="10"/>
  <path d="M0.328979 112.018C79.0306 135.354 97.0837 180.888 149.887 177.584C188.086 175.188 233.094 112.497 249.194 81.0766C260.757 58.5193 289.666 103.823 359.635 128.696C382.244 136.821 399.759 141.931 414.562 144.287C454.934 150.705 463.916 121.39 508.316 125.183C562.007 129.774 612.398 128.387 660.486 148.369C686.843 159.318 713.688 170.148 737.263 188.124C771.904 214.534 783.508 251.983 820.85 255.217C845.761 257.373 874.072 250.077 897.508 236.482C910.008 229.226 920.904 220.932 928.35 212.378C974.096 160.127 962.024 60.785 1018.58 42.0305C1072.67 24.0945 1107.26 127.818 1158.5 153.45C1185.46 166.934 1208.35 142.45 1248.36 124.844C1252.73 122.927 1257.03 120.961 1261.38 119.174C1305.46 101.278 1351.25 99.4717 1380.34 73.7305C1397.17 58.8487 1413.99 44.0567 1433.31 38.1179C1466.71 27.9871 1494.93 33.0775 1521.24 55.6547C1535.29 67.7019 1544.6 80.9767 1550.47 93.4232C1571.01 136.911 1549.08 186.437 1615.16 191.607C1621.3 192.086 1628.24 191.907 1636.01 190.978C1682.69 185.369 1751.2 180.778 1787.01 144.267C1818.74 111.918 1838.22 107.177 1913.96 110.421" stroke="#838383" stroke-width="0.5" stroke-miterlimit="10"/>
  <path d="M0.388794 116.869C71.2153 137.869 91.5112 173.052 146.498 170.018C184.986 167.892 229.406 112.936 248.047 86.1669C261.216 67.2428 289.915 109.173 356.176 133.188C377.728 141.093 394.734 146.363 409.398 149.068C448.425 156.274 459.221 129.245 500.75 134.974C554.779 142.42 603.137 140.714 648.922 157.901C674.89 167.653 701.357 175.927 724.703 190.789C758.676 212.408 771.894 238.349 808.06 243.429C831.486 246.713 858.591 235.554 881.07 221.6C892.942 214.234 903.379 206.04 910.686 197.666C957.379 144.466 950.929 54.0577 1005.58 37.9482C1059.52 22.0483 1093.34 125.922 1143.75 156.184C1170.94 172.503 1194.96 153.709 1236.48 136.901C1240.96 135.084 1245.37 133.138 1249.76 131.301C1294.02 112.916 1336.47 102.795 1364.61 73.7205C1380.79 57.0021 1397.21 41.1921 1416.72 35.6825C1450.53 26.2604 1478.78 34.395 1504.71 58.2099C1518.45 70.826 1527.8 84.53 1533.89 97.0164C1554.84 139.995 1536.53 197.696 1606.93 189.002C1613.22 188.224 1620.28 188.443 1627.99 187.176C1676.5 179.201 1743.37 174.42 1782.5 141.203C1815.84 112.916 1838.68 109.004 1913.96 113.276" stroke="#838383" stroke-width="0.5" stroke-miterlimit="10"/>
  <path d="M0.438599 121.709C63.3999 140.374 85.9388 165.187 143.108 162.442C181.886 160.586 225.598 113.405 246.901 91.2372C261.575 75.9661 290.214 114.383 352.727 137.649C373.232 145.285 389.71 150.745 404.244 153.819C441.925 161.794 454.556 137.48 493.194 144.726C547.542 154.907 593.926 152.94 637.359 167.403C662.958 175.927 688.986 181.686 712.153 193.424C745.408 210.272 759.543 234.546 795.28 231.601C817.65 229.765 843.119 221.001 864.651 206.689C875.886 199.213 885.874 191.128 893.042 182.934C940.681 128.796 939.884 47.3703 992.598 33.8459C1046.42 20.0321 1079.36 124.075 1129.02 158.899C1156.4 178.103 1181.58 164.938 1224.61 148.938C1229.22 147.221 1233.71 145.295 1238.14 143.398C1282.58 124.514 1321.73 106.089 1348.9 73.6705C1364.44 55.1256 1380.45 38.2775 1400.14 33.1971C1434.36 24.4836 1462.65 35.6525 1488.2 60.725C1501.64 73.91 1511.03 88.0333 1517.33 100.57C1538.68 143.039 1524.17 200.381 1598.71 186.357C1605.15 185.139 1612.33 184.92 1620 183.333C1670.31 172.903 1735.39 167.902 1778.01 138.088C1812.8 113.755 1839.14 110.78 1913.97 116.09" stroke="#838383" stroke-width="0.5" stroke-miterlimit="10"/>
  <path d="M0.498413 126.55C55.5846 142.89 80.3664 157.312 139.719 154.867C178.786 153.26 221.621 113.825 245.754 96.3077C261.814 84.6498 290.463 119.713 349.268 142.121C368.706 149.527 384.686 155.126 399.081 158.58C435.416 167.283 449.85 146.123 485.628 154.488C540.295 167.273 584.755 165.097 625.785 176.915C651.046 184.191 676.565 187.475 699.582 196.069C732.06 208.176 747.501 225.972 782.491 219.794C803.564 216.071 827.638 206.469 848.213 191.787C858.82 184.211 868.35 176.216 875.388 168.202C923.984 113.116 928.859 40.7629 979.609 29.7438C1033.34 18.0759 1065.32 122.289 1114.27 161.604C1141.81 183.722 1168.18 176.147 1212.72 160.965C1217.46 159.348 1222.03 157.452 1226.52 155.486C1271.14 136.102 1306.99 109.383 1333.17 73.6207C1348.09 53.2493 1363.68 35.3731 1383.55 30.712C1418.18 22.7171 1446.53 36.9003 1471.68 63.2304C1484.81 76.9843 1494.23 91.5368 1500.75 104.113C1522.5 146.073 1511.87 203.205 1590.47 183.692C1597.07 182.055 1604.35 181.377 1611.97 179.48C1664.07 166.505 1727.28 161.215 1773.49 134.975C1809.65 114.453 1839.57 112.557 1913.96 118.895" stroke="#838383" stroke-width="0.5" stroke-miterlimit="10"/>
  <path d="M0.548218 131.401C47.7692 145.405 74.784 149.427 136.32 147.301C175.666 145.944 217.504 114.104 244.588 101.398C261.953 93.2536 290.703 125.063 345.789 146.603C364.171 153.789 379.642 159.508 393.897 163.341C428.897 172.753 445.056 155.136 478.041 164.259C533.058 179.47 575.604 177.185 614.202 186.427C639.143 192.406 664.094 193.314 687.012 198.714C718.652 206.15 735.479 217.538 769.691 207.986C789.469 202.467 812.157 191.957 831.765 176.895C841.744 169.23 850.815 161.325 857.713 153.48C907.257 97.4556 917.834 34.2254 966.6 25.6416C1020.25 16.1995 1051.17 120.522 1099.52 164.319C1127.17 189.372 1154.79 187.345 1200.83 173.003C1205.69 171.485 1210.35 169.609 1214.89 167.583C1259.68 147.7 1292.25 112.687 1317.44 73.5708C1331.74 51.3829 1346.9 32.4687 1366.97 28.2267C1402.02 20.9405 1430.4 38.1479 1455.16 65.7457C1468 80.0586 1477.45 95.0402 1484.19 107.666C1506.32 149.128 1499.67 206.16 1582.25 181.047C1589.01 178.991 1596.37 177.833 1603.97 175.638C1657.81 160.037 1719.1 154.328 1769 131.87C1806.46 115.012 1840.04 114.354 1913.98 121.72" stroke="#838383" stroke-width="0.5" stroke-miterlimit="10"/>
  <path d="M0.608032 136.242C39.9539 147.91 69.2115 141.522 132.94 139.725C172.575 138.607 213.367 114.164 243.452 106.468C262.093 101.697 290.962 130.413 342.35 151.074C359.665 158.041 374.638 163.87 388.753 168.102C422.427 178.193 438.915 170.667 470.495 174.02C528.273 180.159 566.522 189.172 602.648 195.939C627.29 200.56 651.634 199.223 674.472 201.349C705.234 204.213 723.537 209.224 756.921 196.168C775.443 188.922 796.716 177.444 815.357 161.993C824.717 154.238 833.32 146.423 840.079 138.757C890.58 81.7851 906.858 27.7774 953.631 21.5492C1007.22 14.4127 1037.02 118.785 1084.8 167.044C1112.52 195.041 1141.41 198.554 1188.98 185.05C1193.96 183.632 1198.71 181.786 1203.29 179.69C1248.26 159.308 1277.57 116.01 1301.75 73.5407C1315.43 49.5262 1330.16 29.574 1350.42 25.7612C1385.88 19.1837 1414.32 39.4054 1438.67 68.2807C1451.22 83.1525 1460.68 98.5733 1467.64 111.239C1490.14 152.202 1487.57 209.224 1574.03 178.422C1580.96 175.957 1588.41 174.31 1595.97 171.815C1651.51 153.519 1710.9 147.241 1764.51 128.786C1803.27 115.441 1840.51 116.16 1914 124.554" stroke="#838383" stroke-width="0.5" stroke-miterlimit="10"/>
  <path d="M0.657959 141.083C32.1386 150.415 63.6292 133.617 129.541 132.15C169.465 131.261 209.28 114.024 242.295 111.539C262.262 110.032 291.201 135.753 338.881 155.535C355.139 162.283 369.604 168.211 383.58 172.853C415.937 183.602 433.891 179.39 462.919 183.782C521.464 192.635 557.421 201.039 591.065 205.451C615.418 208.645 639.153 205.211 661.891 203.994C691.797 202.397 711.664 201.059 744.112 184.361C761.437 175.448 781.235 162.941 798.899 147.091C807.641 139.246 815.776 131.511 822.395 124.025C873.842 66.1148 895.843 21.3895 940.612 17.447C994.143 12.7259 1022.74 117.038 1070.02 169.759C1097.79 200.71 1127.98 209.743 1177.07 197.087C1182.17 195.769 1187 193.943 1191.64 191.787C1236.79 170.906 1262.82 119.314 1285.99 73.4908C1299.05 47.6598 1313.36 26.6695 1333.79 23.2759C1369.66 17.417 1398.16 40.643 1422.11 70.786C1434.36 86.2167 1443.85 102.077 1451.03 114.793C1473.9 155.266 1475.49 212.328 1565.77 175.777C1572.88 172.903 1580.39 170.757 1587.92 167.982C1645.11 146.912 1702.68 139.915 1759.96 125.682C1800.05 115.721 1840.91 117.947 1913.95 127.379" stroke="#838383" stroke-width="0.5" stroke-miterlimit="10"/>
  <path d="M0.717773 145.934C24.3233 152.93 58.0668 125.702 126.152 124.584C166.365 123.925 205.332 113.775 241.149 116.629C262.532 118.326 291.44 141.133 335.422 160.027C350.614 166.555 364.599 172.573 378.416 177.634C409.468 189.012 428.817 188.243 455.353 193.563C514.566 205.441 548.33 212.827 579.491 214.973C603.565 216.64 626.712 211.29 649.331 206.649C678.439 200.68 699.941 192.994 731.322 172.563C747.511 162.023 765.793 148.469 782.461 132.21C790.585 124.285 798.251 116.629 804.731 109.313C857.135 50.4544 884.828 15.1114 927.613 13.3647C981.074 11.1788 1008.45 115.312 1055.27 172.493C1083.04 206.409 1114.58 220.942 1165.17 209.134C1170.4 207.916 1175.33 206.11 1180.01 203.894C1225.33 182.524 1248.12 122.628 1270.26 73.4609C1282.71 45.8032 1296.58 23.785 1317.2 20.8106C1353.49 15.6603 1382.06 41.9006 1405.58 73.3211C1417.56 89.3009 1427.05 105.61 1434.45 118.366C1457.69 158.35 1463.53 215.512 1557.52 173.142C1564.81 169.858 1572.39 167.203 1579.89 164.149C1638.69 140.234 1694.55 132.409 1755.44 122.588C1796.95 115.9 1841.36 119.743 1913.94 130.203" stroke="#838383" stroke-width="0.5" stroke-miterlimit="10"/>
  <path d="M0.777588 150.775C16.5179 155.446 52.4944 117.757 122.773 117.009C163.275 116.569 201.534 113.475 240.013 121.7C262.89 126.59 291.69 146.493 331.982 164.489C346.108 170.797 359.615 176.885 373.272 182.385C403.038 194.372 423.703 197.147 447.807 203.315C507.528 218.616 539.338 226.97 567.948 224.475C591.623 222.409 614.381 217.398 636.791 209.284C665.191 199.003 688.398 184.97 718.553 160.746C733.685 148.589 750.382 133.976 766.043 117.308C773.569 109.303 780.746 101.717 787.096 94.591C840.448 34.7942 873.882 6.91702 914.644 9.27256C967.926 12.3467 994.143 113.555 1040.56 175.208C1068.31 212.078 1101.22 232.111 1153.33 221.171C1158.68 220.043 1163.7 218.277 1168.42 215.991C1213.93 194.122 1233.47 125.922 1254.57 73.4111C1266.42 43.9269 1279.84 20.8706 1300.66 18.3254C1337.35 13.8838 1365.99 43.1284 1389.1 75.8265C1400.78 92.3652 1410.28 109.123 1417.92 121.909C1441.5 161.414 1451.68 218.706 1549.33 170.487C1556.81 166.794 1564.42 163.63 1571.92 160.307C1632.27 133.497 1686.58 124.724 1750.97 119.484C1793.98 115.98 1841.85 121.54 1913.98 133.028" stroke="#00C5C0" stroke-miterlimit="10"/>
  <path d="M0.827393 155.615C8.69257 157.951 46.912 109.722 119.373 109.433C160.165 109.163 197.816 113.196 238.856 126.77C263.309 134.855 291.899 151.912 328.513 168.95C341.562 175.069 354.611 181.187 368.088 187.126C396.589 199.692 418.459 206.11 440.221 213.067C500.202 232.24 530.027 235.973 556.354 233.977C579.77 232.2 602.08 223.527 624.21 211.919C652.002 197.336 676.964 176.955 705.743 148.928C719.898 135.144 734.951 119.494 749.595 102.396C756.523 94.3115 763.212 86.8057 769.422 79.8489C823.721 19.1139 862.718 2.76486 901.635 5.16032C954.867 8.4441 979.758 111.768 1025.79 177.913C1053.51 217.728 1087.79 243.2 1141.43 233.198C1146.9 232.16 1152 230.424 1156.78 228.078C1202.47 205.711 1218.82 129.235 1238.83 73.3612C1250.12 42.0604 1263.05 17.9661 1284.06 15.8401C1321.16 12.1171 1349.94 44.3261 1372.57 78.3417C1384 95.4194 1393.45 112.647 1401.34 125.462C1425.22 164.519 1439.85 221.93 1541.09 167.842C1548.76 163.74 1556.4 160.067 1563.89 156.464C1625.74 126.71 1678.71 118.855 1746.46 116.38C1791.03 114.743 1842.29 123.327 1913.97 135.843" stroke="#838383" stroke-width="0.5" stroke-miterlimit="10"/>
  <path d="M0.887207 160.466C0.887207 160.466 41.3495 101.867 115.984 101.867C190.618 101.867 252.154 138.528 362.925 191.907C473.695 245.286 512.872 248.689 544.781 243.509C610.533 232.829 669.178 169.968 733.156 87.5243C797.125 5.07048 847.506 -3.78275 888.636 1.06806C973.737 11.0991 983.307 269.6 1129.54 245.246C1218.12 230.494 1204.43 18.4352 1267.46 13.3748C1323.75 8.85332 1360.46 90.4787 1384.75 129.036C1409.03 167.593 1428.07 225.184 1532.84 165.217C1650.48 97.8747 1720.46 101.867 1913.96 138.677" stroke="#838383" stroke-width="0.5" stroke-miterlimit="10"/>
</svg>
